%TF.GenerationSoftware,KiCad,Pcbnew,9.0.2*%
%TF.CreationDate,2025-06-22T22:41:08+03:00*%
%TF.ProjectId,macropad,6d616372-6f70-4616-942e-6b696361645f,rev?*%
%TF.SameCoordinates,Original*%
%TF.FileFunction,Drillmap*%
%TF.FilePolarity,Positive*%
%FSLAX45Y45*%
G04 Gerber Fmt 4.5, Leading zero omitted, Abs format (unit mm)*
G04 Created by KiCad (PCBNEW 9.0.2) date 2025-06-22 22:41:08*
%MOMM*%
%LPD*%
G01*
G04 APERTURE LIST*
%ADD10C,0.050000*%
%ADD11C,0.120000*%
%ADD12C,0.200000*%
%ADD13C,0.170000*%
%ADD14C,0.400000*%
G04 APERTURE END LIST*
D10*
X10775000Y-5300000D02*
X20200000Y-5300000D01*
X20200000Y-14300000D01*
X10775000Y-14300000D01*
X10775000Y-5300000D01*
D11*
X15943333Y-14055000D02*
X15943333Y-13795000D01*
X15963333Y-13775000D02*
X16303333Y-13775000D01*
X16303333Y-14075000D02*
X15963333Y-14075000D01*
X16323333Y-13795000D02*
X16323333Y-14055000D01*
X15943333Y-13795000D02*
G75*
G02*
X15963333Y-13775000I20000J0D01*
G01*
X15963333Y-14075000D02*
G75*
G02*
X15943333Y-14055000I0J20000D01*
G01*
X16303333Y-13775000D02*
G75*
G02*
X16323333Y-13795000I0J-20000D01*
G01*
X16323333Y-14055000D02*
G75*
G02*
X16303333Y-14075000I-20000J0D01*
G01*
X17776667Y-10330000D02*
X17776667Y-10070000D01*
X17796667Y-10050000D02*
X18136667Y-10050000D01*
X18136667Y-10350000D02*
X17796667Y-10350000D01*
X18156667Y-10070000D02*
X18156667Y-10330000D01*
X17776667Y-10070000D02*
G75*
G02*
X17796667Y-10050000I20000J0D01*
G01*
X17796667Y-10350000D02*
G75*
G02*
X17776667Y-10330000I0J20000D01*
G01*
X18136667Y-10050000D02*
G75*
G02*
X18156667Y-10070000I0J-20000D01*
G01*
X18156667Y-10330000D02*
G75*
G02*
X18136667Y-10350000I-20000J0D01*
G01*
X15943333Y-8505000D02*
X15943333Y-8245000D01*
X15963333Y-8225000D02*
X16303333Y-8225000D01*
X16303333Y-8525000D02*
X15963333Y-8525000D01*
X16323333Y-8245000D02*
X16323333Y-8505000D01*
X15943333Y-8245000D02*
G75*
G02*
X15963333Y-8225000I20000J0D01*
G01*
X15963333Y-8525000D02*
G75*
G02*
X15943333Y-8505000I0J20000D01*
G01*
X16303333Y-8225000D02*
G75*
G02*
X16323333Y-8245000I0J-20000D01*
G01*
X16323333Y-8505000D02*
G75*
G02*
X16303333Y-8525000I-20000J0D01*
G01*
X14110000Y-14055000D02*
X14110000Y-13795000D01*
X14130000Y-13775000D02*
X14470000Y-13775000D01*
X14470000Y-14075000D02*
X14130000Y-14075000D01*
X14490000Y-13795000D02*
X14490000Y-14055000D01*
X14110000Y-13795000D02*
G75*
G02*
X14130000Y-13775000I20000J0D01*
G01*
X14130000Y-14075000D02*
G75*
G02*
X14110000Y-14055000I0J20000D01*
G01*
X14470000Y-13775000D02*
G75*
G02*
X14490000Y-13795000I0J-20000D01*
G01*
X14490000Y-14055000D02*
G75*
G02*
X14470000Y-14075000I-20000J0D01*
G01*
X15943333Y-12205000D02*
X15943333Y-11945000D01*
X15963333Y-11925000D02*
X16303333Y-11925000D01*
X16303333Y-12225000D02*
X15963333Y-12225000D01*
X16323333Y-11945000D02*
X16323333Y-12205000D01*
X15943333Y-11945000D02*
G75*
G02*
X15963333Y-11925000I20000J0D01*
G01*
X15963333Y-12225000D02*
G75*
G02*
X15943333Y-12205000I0J20000D01*
G01*
X16303333Y-11925000D02*
G75*
G02*
X16323333Y-11945000I0J-20000D01*
G01*
X16323333Y-12205000D02*
G75*
G02*
X16303333Y-12225000I-20000J0D01*
G01*
X19610000Y-14055000D02*
X19610000Y-13795000D01*
X19630000Y-13775000D02*
X19970000Y-13775000D01*
X19970000Y-14075000D02*
X19630000Y-14075000D01*
X19990000Y-13795000D02*
X19990000Y-14055000D01*
X19610000Y-13795000D02*
G75*
G02*
X19630000Y-13775000I20000J0D01*
G01*
X19630000Y-14075000D02*
G75*
G02*
X19610000Y-14055000I0J20000D01*
G01*
X19970000Y-13775000D02*
G75*
G02*
X19990000Y-13795000I0J-20000D01*
G01*
X19990000Y-14055000D02*
G75*
G02*
X19970000Y-14075000I-20000J0D01*
G01*
X17776667Y-12205000D02*
X17776667Y-11945000D01*
X17796667Y-11925000D02*
X18136667Y-11925000D01*
X18136667Y-12225000D02*
X17796667Y-12225000D01*
X18156667Y-11945000D02*
X18156667Y-12205000D01*
X17776667Y-11945000D02*
G75*
G02*
X17796667Y-11925000I20000J0D01*
G01*
X17796667Y-12225000D02*
G75*
G02*
X17776667Y-12205000I0J20000D01*
G01*
X18136667Y-11925000D02*
G75*
G02*
X18156667Y-11945000I0J-20000D01*
G01*
X18156667Y-12205000D02*
G75*
G02*
X18136667Y-12225000I-20000J0D01*
G01*
X14210000Y-12205000D02*
X14210000Y-11945000D01*
X14230000Y-11925000D02*
X14570000Y-11925000D01*
X14570000Y-12225000D02*
X14230000Y-12225000D01*
X14590000Y-11945000D02*
X14590000Y-12205000D01*
X14210000Y-11945000D02*
G75*
G02*
X14230000Y-11925000I20000J0D01*
G01*
X14230000Y-12225000D02*
G75*
G02*
X14210000Y-12205000I0J20000D01*
G01*
X14570000Y-11925000D02*
G75*
G02*
X14590000Y-11945000I0J-20000D01*
G01*
X14590000Y-12205000D02*
G75*
G02*
X14570000Y-12225000I-20000J0D01*
G01*
X17776667Y-8505000D02*
X17776667Y-8245000D01*
X17796667Y-8225000D02*
X18136667Y-8225000D01*
X18136667Y-8525000D02*
X17796667Y-8525000D01*
X18156667Y-8245000D02*
X18156667Y-8505000D01*
X17776667Y-8245000D02*
G75*
G02*
X17796667Y-8225000I20000J0D01*
G01*
X17796667Y-8525000D02*
G75*
G02*
X17776667Y-8505000I0J20000D01*
G01*
X18136667Y-8225000D02*
G75*
G02*
X18156667Y-8245000I0J-20000D01*
G01*
X18156667Y-8505000D02*
G75*
G02*
X18136667Y-8525000I-20000J0D01*
G01*
X13975000Y-8545000D02*
X13975000Y-8205000D01*
X13995000Y-8185000D02*
X14255000Y-8185000D01*
X14255000Y-8565000D02*
X13995000Y-8565000D01*
X14275000Y-8205000D02*
X14275000Y-8545000D01*
X13975000Y-8205000D02*
G75*
G02*
X13995000Y-8185000I20000J0D01*
G01*
X13995000Y-8565000D02*
G75*
G02*
X13975000Y-8545000I0J20000D01*
G01*
X14255000Y-8185000D02*
G75*
G02*
X14275000Y-8205000I0J-20000D01*
G01*
X14275000Y-8545000D02*
G75*
G02*
X14255000Y-8565000I-20000J0D01*
G01*
X17776667Y-14055000D02*
X17776667Y-13795000D01*
X17796667Y-13775000D02*
X18136667Y-13775000D01*
X18136667Y-14075000D02*
X17796667Y-14075000D01*
X18156667Y-13795000D02*
X18156667Y-14055000D01*
X17776667Y-13795000D02*
G75*
G02*
X17796667Y-13775000I20000J0D01*
G01*
X17796667Y-14075000D02*
G75*
G02*
X17776667Y-14055000I0J20000D01*
G01*
X18136667Y-13775000D02*
G75*
G02*
X18156667Y-13795000I0J-20000D01*
G01*
X18156667Y-14055000D02*
G75*
G02*
X18136667Y-14075000I-20000J0D01*
G01*
X19650000Y-12245000D02*
X19650000Y-11905000D01*
X19670000Y-11885000D02*
X19930000Y-11885000D01*
X19930000Y-12265000D02*
X19670000Y-12265000D01*
X19950000Y-11905000D02*
X19950000Y-12245000D01*
X19650000Y-11905000D02*
G75*
G02*
X19670000Y-11885000I20000J0D01*
G01*
X19670000Y-12265000D02*
G75*
G02*
X19650000Y-12245000I0J20000D01*
G01*
X19930000Y-11885000D02*
G75*
G02*
X19950000Y-11905000I0J-20000D01*
G01*
X19950000Y-12245000D02*
G75*
G02*
X19930000Y-12265000I-20000J0D01*
G01*
X19610000Y-10330000D02*
X19610000Y-10070000D01*
X19630000Y-10050000D02*
X19970000Y-10050000D01*
X19970000Y-10350000D02*
X19630000Y-10350000D01*
X19990000Y-10070000D02*
X19990000Y-10330000D01*
X19610000Y-10070000D02*
G75*
G02*
X19630000Y-10050000I20000J0D01*
G01*
X19630000Y-10350000D02*
G75*
G02*
X19610000Y-10330000I0J20000D01*
G01*
X19970000Y-10050000D02*
G75*
G02*
X19990000Y-10070000I0J-20000D01*
G01*
X19990000Y-10330000D02*
G75*
G02*
X19970000Y-10350000I-20000J0D01*
G01*
X14110000Y-10330000D02*
X14110000Y-10070000D01*
X14130000Y-10050000D02*
X14470000Y-10050000D01*
X14470000Y-10350000D02*
X14130000Y-10350000D01*
X14490000Y-10070000D02*
X14490000Y-10330000D01*
X14110000Y-10070000D02*
G75*
G02*
X14130000Y-10050000I20000J0D01*
G01*
X14130000Y-10350000D02*
G75*
G02*
X14110000Y-10330000I0J20000D01*
G01*
X14470000Y-10050000D02*
G75*
G02*
X14490000Y-10070000I0J-20000D01*
G01*
X14490000Y-10330000D02*
G75*
G02*
X14470000Y-10350000I-20000J0D01*
G01*
X15943333Y-10330000D02*
X15943333Y-10070000D01*
X15963333Y-10050000D02*
X16303333Y-10050000D01*
X16303333Y-10350000D02*
X15963333Y-10350000D01*
X16323333Y-10070000D02*
X16323333Y-10330000D01*
X15943333Y-10070000D02*
G75*
G02*
X15963333Y-10050000I20000J0D01*
G01*
X15963333Y-10350000D02*
G75*
G02*
X15943333Y-10330000I0J20000D01*
G01*
X16303333Y-10050000D02*
G75*
G02*
X16323333Y-10070000I0J-20000D01*
G01*
X16323333Y-10330000D02*
G75*
G02*
X16303333Y-10350000I-20000J0D01*
G01*
X19650000Y-8545000D02*
X19650000Y-8205000D01*
X19670000Y-8185000D02*
X19930000Y-8185000D01*
X19930000Y-8565000D02*
X19670000Y-8565000D01*
X19950000Y-8205000D02*
X19950000Y-8545000D01*
X19650000Y-8205000D02*
G75*
G02*
X19670000Y-8185000I20000J0D01*
G01*
X19670000Y-8565000D02*
G75*
G02*
X19650000Y-8545000I0J20000D01*
G01*
X19930000Y-8185000D02*
G75*
G02*
X19950000Y-8205000I0J-20000D01*
G01*
X19950000Y-8545000D02*
G75*
G02*
X19930000Y-8565000I-20000J0D01*
G01*
D12*
D13*
X14460000Y-9155000D02*
X14630000Y-9325000D01*
X14630000Y-9155000D02*
X14460000Y-9325000D01*
X14460000Y-11060000D02*
X14630000Y-11230000D01*
X14630000Y-11060000D02*
X14460000Y-11230000D01*
X14460000Y-12965000D02*
X14630000Y-13135000D01*
X14630000Y-12965000D02*
X14460000Y-13135000D01*
X15476000Y-9155000D02*
X15646000Y-9325000D01*
X15646000Y-9155000D02*
X15476000Y-9325000D01*
X15476000Y-11060000D02*
X15646000Y-11230000D01*
X15646000Y-11060000D02*
X15476000Y-11230000D01*
X15476000Y-12965000D02*
X15646000Y-13135000D01*
X15646000Y-12965000D02*
X15476000Y-13135000D01*
X16365000Y-9155000D02*
X16535000Y-9325000D01*
X16535000Y-9155000D02*
X16365000Y-9325000D01*
X16365000Y-11060000D02*
X16535000Y-11230000D01*
X16535000Y-11060000D02*
X16365000Y-11230000D01*
X16365000Y-12965000D02*
X16535000Y-13135000D01*
X16535000Y-12965000D02*
X16365000Y-13135000D01*
X17381000Y-9155000D02*
X17551000Y-9325000D01*
X17551000Y-9155000D02*
X17381000Y-9325000D01*
X17381000Y-11060000D02*
X17551000Y-11230000D01*
X17551000Y-11060000D02*
X17381000Y-11230000D01*
X17381000Y-12965000D02*
X17551000Y-13135000D01*
X17551000Y-12965000D02*
X17381000Y-13135000D01*
X18270000Y-9155000D02*
X18440000Y-9325000D01*
X18440000Y-9155000D02*
X18270000Y-9325000D01*
X18270000Y-11060000D02*
X18440000Y-11230000D01*
X18440000Y-11060000D02*
X18270000Y-11230000D01*
X18270000Y-12965000D02*
X18440000Y-13135000D01*
X18440000Y-12965000D02*
X18270000Y-13135000D01*
X19286000Y-9155000D02*
X19456000Y-9325000D01*
X19456000Y-9155000D02*
X19286000Y-9325000D01*
X19286000Y-11060000D02*
X19456000Y-11230000D01*
X19456000Y-11060000D02*
X19286000Y-11230000D01*
X19286000Y-12965000D02*
X19456000Y-13135000D01*
X19456000Y-12965000D02*
X19286000Y-13135000D01*
D14*
X15253000Y-9240000D02*
G75*
G02*
X14853000Y-9240000I-200000J0D01*
G01*
X14853000Y-9240000D02*
G75*
G02*
X15253000Y-9240000I200000J0D01*
G01*
X15253000Y-11145000D02*
G75*
G02*
X14853000Y-11145000I-200000J0D01*
G01*
X14853000Y-11145000D02*
G75*
G02*
X15253000Y-11145000I200000J0D01*
G01*
X15253000Y-13050000D02*
G75*
G02*
X14853000Y-13050000I-200000J0D01*
G01*
X14853000Y-13050000D02*
G75*
G02*
X15253000Y-13050000I200000J0D01*
G01*
X17158000Y-9240000D02*
G75*
G02*
X16758000Y-9240000I-200000J0D01*
G01*
X16758000Y-9240000D02*
G75*
G02*
X17158000Y-9240000I200000J0D01*
G01*
X17158000Y-11145000D02*
G75*
G02*
X16758000Y-11145000I-200000J0D01*
G01*
X16758000Y-11145000D02*
G75*
G02*
X17158000Y-11145000I200000J0D01*
G01*
X17158000Y-13050000D02*
G75*
G02*
X16758000Y-13050000I-200000J0D01*
G01*
X16758000Y-13050000D02*
G75*
G02*
X17158000Y-13050000I200000J0D01*
G01*
X19063000Y-9240000D02*
G75*
G02*
X18663000Y-9240000I-200000J0D01*
G01*
X18663000Y-9240000D02*
G75*
G02*
X19063000Y-9240000I200000J0D01*
G01*
X19063000Y-11145000D02*
G75*
G02*
X18663000Y-11145000I-200000J0D01*
G01*
X18663000Y-11145000D02*
G75*
G02*
X19063000Y-11145000I200000J0D01*
G01*
X19063000Y-13050000D02*
G75*
G02*
X18663000Y-13050000I-200000J0D01*
G01*
X18663000Y-13050000D02*
G75*
G02*
X19063000Y-13050000I200000J0D01*
G01*
D12*
X11033277Y-14613984D02*
X11033277Y-14413984D01*
X11033277Y-14413984D02*
X11080896Y-14413984D01*
X11080896Y-14413984D02*
X11109467Y-14423508D01*
X11109467Y-14423508D02*
X11128515Y-14442555D01*
X11128515Y-14442555D02*
X11138039Y-14461603D01*
X11138039Y-14461603D02*
X11147563Y-14499698D01*
X11147563Y-14499698D02*
X11147563Y-14528269D01*
X11147563Y-14528269D02*
X11138039Y-14566365D01*
X11138039Y-14566365D02*
X11128515Y-14585412D01*
X11128515Y-14585412D02*
X11109467Y-14604460D01*
X11109467Y-14604460D02*
X11080896Y-14613984D01*
X11080896Y-14613984D02*
X11033277Y-14613984D01*
X11233277Y-14613984D02*
X11233277Y-14480650D01*
X11233277Y-14518746D02*
X11242801Y-14499698D01*
X11242801Y-14499698D02*
X11252324Y-14490174D01*
X11252324Y-14490174D02*
X11271372Y-14480650D01*
X11271372Y-14480650D02*
X11290420Y-14480650D01*
X11357086Y-14613984D02*
X11357086Y-14480650D01*
X11357086Y-14413984D02*
X11347562Y-14423508D01*
X11347562Y-14423508D02*
X11357086Y-14433031D01*
X11357086Y-14433031D02*
X11366610Y-14423508D01*
X11366610Y-14423508D02*
X11357086Y-14413984D01*
X11357086Y-14413984D02*
X11357086Y-14433031D01*
X11480896Y-14613984D02*
X11461848Y-14604460D01*
X11461848Y-14604460D02*
X11452324Y-14585412D01*
X11452324Y-14585412D02*
X11452324Y-14413984D01*
X11585658Y-14613984D02*
X11566610Y-14604460D01*
X11566610Y-14604460D02*
X11557086Y-14585412D01*
X11557086Y-14585412D02*
X11557086Y-14413984D01*
X11814229Y-14613984D02*
X11814229Y-14413984D01*
X11814229Y-14413984D02*
X11880896Y-14556841D01*
X11880896Y-14556841D02*
X11947562Y-14413984D01*
X11947562Y-14413984D02*
X11947562Y-14613984D01*
X12128515Y-14613984D02*
X12128515Y-14509222D01*
X12128515Y-14509222D02*
X12118991Y-14490174D01*
X12118991Y-14490174D02*
X12099943Y-14480650D01*
X12099943Y-14480650D02*
X12061848Y-14480650D01*
X12061848Y-14480650D02*
X12042801Y-14490174D01*
X12128515Y-14604460D02*
X12109467Y-14613984D01*
X12109467Y-14613984D02*
X12061848Y-14613984D01*
X12061848Y-14613984D02*
X12042801Y-14604460D01*
X12042801Y-14604460D02*
X12033277Y-14585412D01*
X12033277Y-14585412D02*
X12033277Y-14566365D01*
X12033277Y-14566365D02*
X12042801Y-14547317D01*
X12042801Y-14547317D02*
X12061848Y-14537793D01*
X12061848Y-14537793D02*
X12109467Y-14537793D01*
X12109467Y-14537793D02*
X12128515Y-14528269D01*
X12223753Y-14480650D02*
X12223753Y-14680650D01*
X12223753Y-14490174D02*
X12242801Y-14480650D01*
X12242801Y-14480650D02*
X12280896Y-14480650D01*
X12280896Y-14480650D02*
X12299943Y-14490174D01*
X12299943Y-14490174D02*
X12309467Y-14499698D01*
X12309467Y-14499698D02*
X12318991Y-14518746D01*
X12318991Y-14518746D02*
X12318991Y-14575888D01*
X12318991Y-14575888D02*
X12309467Y-14594936D01*
X12309467Y-14594936D02*
X12299943Y-14604460D01*
X12299943Y-14604460D02*
X12280896Y-14613984D01*
X12280896Y-14613984D02*
X12242801Y-14613984D01*
X12242801Y-14613984D02*
X12223753Y-14604460D01*
X12404705Y-14594936D02*
X12414229Y-14604460D01*
X12414229Y-14604460D02*
X12404705Y-14613984D01*
X12404705Y-14613984D02*
X12395182Y-14604460D01*
X12395182Y-14604460D02*
X12404705Y-14594936D01*
X12404705Y-14594936D02*
X12404705Y-14613984D01*
X12404705Y-14490174D02*
X12414229Y-14499698D01*
X12414229Y-14499698D02*
X12404705Y-14509222D01*
X12404705Y-14509222D02*
X12395182Y-14499698D01*
X12395182Y-14499698D02*
X12404705Y-14490174D01*
X12404705Y-14490174D02*
X12404705Y-14509222D01*
D13*
X10602500Y-14857500D02*
X10772500Y-15027500D01*
X10772500Y-14857500D02*
X10602500Y-15027500D01*
D12*
X11138039Y-15033984D02*
X11023753Y-15033984D01*
X11080896Y-15033984D02*
X11080896Y-14833984D01*
X11080896Y-14833984D02*
X11061848Y-14862555D01*
X11061848Y-14862555D02*
X11042801Y-14881603D01*
X11042801Y-14881603D02*
X11023753Y-14891127D01*
X11223753Y-15014936D02*
X11233277Y-15024460D01*
X11233277Y-15024460D02*
X11223753Y-15033984D01*
X11223753Y-15033984D02*
X11214229Y-15024460D01*
X11214229Y-15024460D02*
X11223753Y-15014936D01*
X11223753Y-15014936D02*
X11223753Y-15033984D01*
X11299943Y-14833984D02*
X11433277Y-14833984D01*
X11433277Y-14833984D02*
X11347562Y-15033984D01*
X11547562Y-14833984D02*
X11566610Y-14833984D01*
X11566610Y-14833984D02*
X11585658Y-14843508D01*
X11585658Y-14843508D02*
X11595182Y-14853031D01*
X11595182Y-14853031D02*
X11604705Y-14872079D01*
X11604705Y-14872079D02*
X11614229Y-14910174D01*
X11614229Y-14910174D02*
X11614229Y-14957793D01*
X11614229Y-14957793D02*
X11604705Y-14995888D01*
X11604705Y-14995888D02*
X11595182Y-15014936D01*
X11595182Y-15014936D02*
X11585658Y-15024460D01*
X11585658Y-15024460D02*
X11566610Y-15033984D01*
X11566610Y-15033984D02*
X11547562Y-15033984D01*
X11547562Y-15033984D02*
X11528515Y-15024460D01*
X11528515Y-15024460D02*
X11518991Y-15014936D01*
X11518991Y-15014936D02*
X11509467Y-14995888D01*
X11509467Y-14995888D02*
X11499943Y-14957793D01*
X11499943Y-14957793D02*
X11499943Y-14910174D01*
X11499943Y-14910174D02*
X11509467Y-14872079D01*
X11509467Y-14872079D02*
X11518991Y-14853031D01*
X11518991Y-14853031D02*
X11528515Y-14843508D01*
X11528515Y-14843508D02*
X11547562Y-14833984D01*
X11738039Y-14833984D02*
X11757086Y-14833984D01*
X11757086Y-14833984D02*
X11776134Y-14843508D01*
X11776134Y-14843508D02*
X11785658Y-14853031D01*
X11785658Y-14853031D02*
X11795182Y-14872079D01*
X11795182Y-14872079D02*
X11804705Y-14910174D01*
X11804705Y-14910174D02*
X11804705Y-14957793D01*
X11804705Y-14957793D02*
X11795182Y-14995888D01*
X11795182Y-14995888D02*
X11785658Y-15014936D01*
X11785658Y-15014936D02*
X11776134Y-15024460D01*
X11776134Y-15024460D02*
X11757086Y-15033984D01*
X11757086Y-15033984D02*
X11738039Y-15033984D01*
X11738039Y-15033984D02*
X11718991Y-15024460D01*
X11718991Y-15024460D02*
X11709467Y-15014936D01*
X11709467Y-15014936D02*
X11699943Y-14995888D01*
X11699943Y-14995888D02*
X11690420Y-14957793D01*
X11690420Y-14957793D02*
X11690420Y-14910174D01*
X11690420Y-14910174D02*
X11699943Y-14872079D01*
X11699943Y-14872079D02*
X11709467Y-14853031D01*
X11709467Y-14853031D02*
X11718991Y-14843508D01*
X11718991Y-14843508D02*
X11738039Y-14833984D01*
X11890420Y-15033984D02*
X11890420Y-14900650D01*
X11890420Y-14919698D02*
X11899943Y-14910174D01*
X11899943Y-14910174D02*
X11918991Y-14900650D01*
X11918991Y-14900650D02*
X11947563Y-14900650D01*
X11947563Y-14900650D02*
X11966610Y-14910174D01*
X11966610Y-14910174D02*
X11976134Y-14929222D01*
X11976134Y-14929222D02*
X11976134Y-15033984D01*
X11976134Y-14929222D02*
X11985658Y-14910174D01*
X11985658Y-14910174D02*
X12004705Y-14900650D01*
X12004705Y-14900650D02*
X12033277Y-14900650D01*
X12033277Y-14900650D02*
X12052324Y-14910174D01*
X12052324Y-14910174D02*
X12061848Y-14929222D01*
X12061848Y-14929222D02*
X12061848Y-15033984D01*
X12157086Y-15033984D02*
X12157086Y-14900650D01*
X12157086Y-14919698D02*
X12166610Y-14910174D01*
X12166610Y-14910174D02*
X12185658Y-14900650D01*
X12185658Y-14900650D02*
X12214229Y-14900650D01*
X12214229Y-14900650D02*
X12233277Y-14910174D01*
X12233277Y-14910174D02*
X12242801Y-14929222D01*
X12242801Y-14929222D02*
X12242801Y-15033984D01*
X12242801Y-14929222D02*
X12252324Y-14910174D01*
X12252324Y-14910174D02*
X12271372Y-14900650D01*
X12271372Y-14900650D02*
X12299943Y-14900650D01*
X12299943Y-14900650D02*
X12318991Y-14910174D01*
X12318991Y-14910174D02*
X12328515Y-14929222D01*
X12328515Y-14929222D02*
X12328515Y-15033984D01*
X12718991Y-14824460D02*
X12547563Y-15081603D01*
X12976134Y-14833984D02*
X12995182Y-14833984D01*
X12995182Y-14833984D02*
X13014229Y-14843508D01*
X13014229Y-14843508D02*
X13023753Y-14853031D01*
X13023753Y-14853031D02*
X13033277Y-14872079D01*
X13033277Y-14872079D02*
X13042801Y-14910174D01*
X13042801Y-14910174D02*
X13042801Y-14957793D01*
X13042801Y-14957793D02*
X13033277Y-14995888D01*
X13033277Y-14995888D02*
X13023753Y-15014936D01*
X13023753Y-15014936D02*
X13014229Y-15024460D01*
X13014229Y-15024460D02*
X12995182Y-15033984D01*
X12995182Y-15033984D02*
X12976134Y-15033984D01*
X12976134Y-15033984D02*
X12957086Y-15024460D01*
X12957086Y-15024460D02*
X12947563Y-15014936D01*
X12947563Y-15014936D02*
X12938039Y-14995888D01*
X12938039Y-14995888D02*
X12928515Y-14957793D01*
X12928515Y-14957793D02*
X12928515Y-14910174D01*
X12928515Y-14910174D02*
X12938039Y-14872079D01*
X12938039Y-14872079D02*
X12947563Y-14853031D01*
X12947563Y-14853031D02*
X12957086Y-14843508D01*
X12957086Y-14843508D02*
X12976134Y-14833984D01*
X13128515Y-15014936D02*
X13138039Y-15024460D01*
X13138039Y-15024460D02*
X13128515Y-15033984D01*
X13128515Y-15033984D02*
X13118991Y-15024460D01*
X13118991Y-15024460D02*
X13128515Y-15014936D01*
X13128515Y-15014936D02*
X13128515Y-15033984D01*
X13261848Y-14833984D02*
X13280896Y-14833984D01*
X13280896Y-14833984D02*
X13299944Y-14843508D01*
X13299944Y-14843508D02*
X13309467Y-14853031D01*
X13309467Y-14853031D02*
X13318991Y-14872079D01*
X13318991Y-14872079D02*
X13328515Y-14910174D01*
X13328515Y-14910174D02*
X13328515Y-14957793D01*
X13328515Y-14957793D02*
X13318991Y-14995888D01*
X13318991Y-14995888D02*
X13309467Y-15014936D01*
X13309467Y-15014936D02*
X13299944Y-15024460D01*
X13299944Y-15024460D02*
X13280896Y-15033984D01*
X13280896Y-15033984D02*
X13261848Y-15033984D01*
X13261848Y-15033984D02*
X13242801Y-15024460D01*
X13242801Y-15024460D02*
X13233277Y-15014936D01*
X13233277Y-15014936D02*
X13223753Y-14995888D01*
X13223753Y-14995888D02*
X13214229Y-14957793D01*
X13214229Y-14957793D02*
X13214229Y-14910174D01*
X13214229Y-14910174D02*
X13223753Y-14872079D01*
X13223753Y-14872079D02*
X13233277Y-14853031D01*
X13233277Y-14853031D02*
X13242801Y-14843508D01*
X13242801Y-14843508D02*
X13261848Y-14833984D01*
X13499944Y-14833984D02*
X13461848Y-14833984D01*
X13461848Y-14833984D02*
X13442801Y-14843508D01*
X13442801Y-14843508D02*
X13433277Y-14853031D01*
X13433277Y-14853031D02*
X13414229Y-14881603D01*
X13414229Y-14881603D02*
X13404706Y-14919698D01*
X13404706Y-14919698D02*
X13404706Y-14995888D01*
X13404706Y-14995888D02*
X13414229Y-15014936D01*
X13414229Y-15014936D02*
X13423753Y-15024460D01*
X13423753Y-15024460D02*
X13442801Y-15033984D01*
X13442801Y-15033984D02*
X13480896Y-15033984D01*
X13480896Y-15033984D02*
X13499944Y-15024460D01*
X13499944Y-15024460D02*
X13509467Y-15014936D01*
X13509467Y-15014936D02*
X13518991Y-14995888D01*
X13518991Y-14995888D02*
X13518991Y-14948269D01*
X13518991Y-14948269D02*
X13509467Y-14929222D01*
X13509467Y-14929222D02*
X13499944Y-14919698D01*
X13499944Y-14919698D02*
X13480896Y-14910174D01*
X13480896Y-14910174D02*
X13442801Y-14910174D01*
X13442801Y-14910174D02*
X13423753Y-14919698D01*
X13423753Y-14919698D02*
X13414229Y-14929222D01*
X13414229Y-14929222D02*
X13404706Y-14948269D01*
X13690420Y-14833984D02*
X13652325Y-14833984D01*
X13652325Y-14833984D02*
X13633277Y-14843508D01*
X13633277Y-14843508D02*
X13623753Y-14853031D01*
X13623753Y-14853031D02*
X13604706Y-14881603D01*
X13604706Y-14881603D02*
X13595182Y-14919698D01*
X13595182Y-14919698D02*
X13595182Y-14995888D01*
X13595182Y-14995888D02*
X13604706Y-15014936D01*
X13604706Y-15014936D02*
X13614229Y-15024460D01*
X13614229Y-15024460D02*
X13633277Y-15033984D01*
X13633277Y-15033984D02*
X13671372Y-15033984D01*
X13671372Y-15033984D02*
X13690420Y-15024460D01*
X13690420Y-15024460D02*
X13699944Y-15014936D01*
X13699944Y-15014936D02*
X13709467Y-14995888D01*
X13709467Y-14995888D02*
X13709467Y-14948269D01*
X13709467Y-14948269D02*
X13699944Y-14929222D01*
X13699944Y-14929222D02*
X13690420Y-14919698D01*
X13690420Y-14919698D02*
X13671372Y-14910174D01*
X13671372Y-14910174D02*
X13633277Y-14910174D01*
X13633277Y-14910174D02*
X13614229Y-14919698D01*
X13614229Y-14919698D02*
X13604706Y-14929222D01*
X13604706Y-14929222D02*
X13595182Y-14948269D01*
X13804706Y-15033984D02*
X13842801Y-15033984D01*
X13842801Y-15033984D02*
X13861848Y-15024460D01*
X13861848Y-15024460D02*
X13871372Y-15014936D01*
X13871372Y-15014936D02*
X13890420Y-14986365D01*
X13890420Y-14986365D02*
X13899944Y-14948269D01*
X13899944Y-14948269D02*
X13899944Y-14872079D01*
X13899944Y-14872079D02*
X13890420Y-14853031D01*
X13890420Y-14853031D02*
X13880896Y-14843508D01*
X13880896Y-14843508D02*
X13861848Y-14833984D01*
X13861848Y-14833984D02*
X13823753Y-14833984D01*
X13823753Y-14833984D02*
X13804706Y-14843508D01*
X13804706Y-14843508D02*
X13795182Y-14853031D01*
X13795182Y-14853031D02*
X13785658Y-14872079D01*
X13785658Y-14872079D02*
X13785658Y-14919698D01*
X13785658Y-14919698D02*
X13795182Y-14938746D01*
X13795182Y-14938746D02*
X13804706Y-14948269D01*
X13804706Y-14948269D02*
X13823753Y-14957793D01*
X13823753Y-14957793D02*
X13861848Y-14957793D01*
X13861848Y-14957793D02*
X13880896Y-14948269D01*
X13880896Y-14948269D02*
X13890420Y-14938746D01*
X13890420Y-14938746D02*
X13899944Y-14919698D01*
X13976134Y-14833984D02*
X13976134Y-14872079D01*
X14052325Y-14833984D02*
X14052325Y-14872079D01*
X14347563Y-15110174D02*
X14338039Y-15100650D01*
X14338039Y-15100650D02*
X14318991Y-15072079D01*
X14318991Y-15072079D02*
X14309468Y-15053031D01*
X14309468Y-15053031D02*
X14299944Y-15024460D01*
X14299944Y-15024460D02*
X14290420Y-14976841D01*
X14290420Y-14976841D02*
X14290420Y-14938746D01*
X14290420Y-14938746D02*
X14299944Y-14891127D01*
X14299944Y-14891127D02*
X14309468Y-14862555D01*
X14309468Y-14862555D02*
X14318991Y-14843508D01*
X14318991Y-14843508D02*
X14338039Y-14814936D01*
X14338039Y-14814936D02*
X14347563Y-14805412D01*
X14528515Y-15033984D02*
X14414229Y-15033984D01*
X14471372Y-15033984D02*
X14471372Y-14833984D01*
X14471372Y-14833984D02*
X14452325Y-14862555D01*
X14452325Y-14862555D02*
X14433277Y-14881603D01*
X14433277Y-14881603D02*
X14414229Y-14891127D01*
X14642801Y-14919698D02*
X14623753Y-14910174D01*
X14623753Y-14910174D02*
X14614229Y-14900650D01*
X14614229Y-14900650D02*
X14604706Y-14881603D01*
X14604706Y-14881603D02*
X14604706Y-14872079D01*
X14604706Y-14872079D02*
X14614229Y-14853031D01*
X14614229Y-14853031D02*
X14623753Y-14843508D01*
X14623753Y-14843508D02*
X14642801Y-14833984D01*
X14642801Y-14833984D02*
X14680896Y-14833984D01*
X14680896Y-14833984D02*
X14699944Y-14843508D01*
X14699944Y-14843508D02*
X14709468Y-14853031D01*
X14709468Y-14853031D02*
X14718991Y-14872079D01*
X14718991Y-14872079D02*
X14718991Y-14881603D01*
X14718991Y-14881603D02*
X14709468Y-14900650D01*
X14709468Y-14900650D02*
X14699944Y-14910174D01*
X14699944Y-14910174D02*
X14680896Y-14919698D01*
X14680896Y-14919698D02*
X14642801Y-14919698D01*
X14642801Y-14919698D02*
X14623753Y-14929222D01*
X14623753Y-14929222D02*
X14614229Y-14938746D01*
X14614229Y-14938746D02*
X14604706Y-14957793D01*
X14604706Y-14957793D02*
X14604706Y-14995888D01*
X14604706Y-14995888D02*
X14614229Y-15014936D01*
X14614229Y-15014936D02*
X14623753Y-15024460D01*
X14623753Y-15024460D02*
X14642801Y-15033984D01*
X14642801Y-15033984D02*
X14680896Y-15033984D01*
X14680896Y-15033984D02*
X14699944Y-15024460D01*
X14699944Y-15024460D02*
X14709468Y-15014936D01*
X14709468Y-15014936D02*
X14718991Y-14995888D01*
X14718991Y-14995888D02*
X14718991Y-14957793D01*
X14718991Y-14957793D02*
X14709468Y-14938746D01*
X14709468Y-14938746D02*
X14699944Y-14929222D01*
X14699944Y-14929222D02*
X14680896Y-14919698D01*
X14957087Y-15033984D02*
X14957087Y-14833984D01*
X15042801Y-15033984D02*
X15042801Y-14929222D01*
X15042801Y-14929222D02*
X15033277Y-14910174D01*
X15033277Y-14910174D02*
X15014230Y-14900650D01*
X15014230Y-14900650D02*
X14985658Y-14900650D01*
X14985658Y-14900650D02*
X14966610Y-14910174D01*
X14966610Y-14910174D02*
X14957087Y-14919698D01*
X15166610Y-15033984D02*
X15147563Y-15024460D01*
X15147563Y-15024460D02*
X15138039Y-15014936D01*
X15138039Y-15014936D02*
X15128515Y-14995888D01*
X15128515Y-14995888D02*
X15128515Y-14938746D01*
X15128515Y-14938746D02*
X15138039Y-14919698D01*
X15138039Y-14919698D02*
X15147563Y-14910174D01*
X15147563Y-14910174D02*
X15166610Y-14900650D01*
X15166610Y-14900650D02*
X15195182Y-14900650D01*
X15195182Y-14900650D02*
X15214230Y-14910174D01*
X15214230Y-14910174D02*
X15223753Y-14919698D01*
X15223753Y-14919698D02*
X15233277Y-14938746D01*
X15233277Y-14938746D02*
X15233277Y-14995888D01*
X15233277Y-14995888D02*
X15223753Y-15014936D01*
X15223753Y-15014936D02*
X15214230Y-15024460D01*
X15214230Y-15024460D02*
X15195182Y-15033984D01*
X15195182Y-15033984D02*
X15166610Y-15033984D01*
X15347563Y-15033984D02*
X15328515Y-15024460D01*
X15328515Y-15024460D02*
X15318991Y-15005412D01*
X15318991Y-15005412D02*
X15318991Y-14833984D01*
X15499944Y-15024460D02*
X15480896Y-15033984D01*
X15480896Y-15033984D02*
X15442801Y-15033984D01*
X15442801Y-15033984D02*
X15423753Y-15024460D01*
X15423753Y-15024460D02*
X15414230Y-15005412D01*
X15414230Y-15005412D02*
X15414230Y-14929222D01*
X15414230Y-14929222D02*
X15423753Y-14910174D01*
X15423753Y-14910174D02*
X15442801Y-14900650D01*
X15442801Y-14900650D02*
X15480896Y-14900650D01*
X15480896Y-14900650D02*
X15499944Y-14910174D01*
X15499944Y-14910174D02*
X15509468Y-14929222D01*
X15509468Y-14929222D02*
X15509468Y-14948269D01*
X15509468Y-14948269D02*
X15414230Y-14967317D01*
X15585658Y-15024460D02*
X15604706Y-15033984D01*
X15604706Y-15033984D02*
X15642801Y-15033984D01*
X15642801Y-15033984D02*
X15661849Y-15024460D01*
X15661849Y-15024460D02*
X15671372Y-15005412D01*
X15671372Y-15005412D02*
X15671372Y-14995888D01*
X15671372Y-14995888D02*
X15661849Y-14976841D01*
X15661849Y-14976841D02*
X15642801Y-14967317D01*
X15642801Y-14967317D02*
X15614230Y-14967317D01*
X15614230Y-14967317D02*
X15595182Y-14957793D01*
X15595182Y-14957793D02*
X15585658Y-14938746D01*
X15585658Y-14938746D02*
X15585658Y-14929222D01*
X15585658Y-14929222D02*
X15595182Y-14910174D01*
X15595182Y-14910174D02*
X15614230Y-14900650D01*
X15614230Y-14900650D02*
X15642801Y-14900650D01*
X15642801Y-14900650D02*
X15661849Y-14910174D01*
X15738039Y-15110174D02*
X15747563Y-15100650D01*
X15747563Y-15100650D02*
X15766611Y-15072079D01*
X15766611Y-15072079D02*
X15776134Y-15053031D01*
X15776134Y-15053031D02*
X15785658Y-15024460D01*
X15785658Y-15024460D02*
X15795182Y-14976841D01*
X15795182Y-14976841D02*
X15795182Y-14938746D01*
X15795182Y-14938746D02*
X15785658Y-14891127D01*
X15785658Y-14891127D02*
X15776134Y-14862555D01*
X15776134Y-14862555D02*
X15766611Y-14843508D01*
X15766611Y-14843508D02*
X15747563Y-14814936D01*
X15747563Y-14814936D02*
X15738039Y-14805412D01*
X16099944Y-15110174D02*
X16090420Y-15100650D01*
X16090420Y-15100650D02*
X16071372Y-15072079D01*
X16071372Y-15072079D02*
X16061849Y-15053031D01*
X16061849Y-15053031D02*
X16052325Y-15024460D01*
X16052325Y-15024460D02*
X16042801Y-14976841D01*
X16042801Y-14976841D02*
X16042801Y-14938746D01*
X16042801Y-14938746D02*
X16052325Y-14891127D01*
X16052325Y-14891127D02*
X16061849Y-14862555D01*
X16061849Y-14862555D02*
X16071372Y-14843508D01*
X16071372Y-14843508D02*
X16090420Y-14814936D01*
X16090420Y-14814936D02*
X16099944Y-14805412D01*
X16176134Y-14900650D02*
X16176134Y-15033984D01*
X16176134Y-14919698D02*
X16185658Y-14910174D01*
X16185658Y-14910174D02*
X16204706Y-14900650D01*
X16204706Y-14900650D02*
X16233277Y-14900650D01*
X16233277Y-14900650D02*
X16252325Y-14910174D01*
X16252325Y-14910174D02*
X16261849Y-14929222D01*
X16261849Y-14929222D02*
X16261849Y-15033984D01*
X16385658Y-15033984D02*
X16366611Y-15024460D01*
X16366611Y-15024460D02*
X16357087Y-15014936D01*
X16357087Y-15014936D02*
X16347563Y-14995888D01*
X16347563Y-14995888D02*
X16347563Y-14938746D01*
X16347563Y-14938746D02*
X16357087Y-14919698D01*
X16357087Y-14919698D02*
X16366611Y-14910174D01*
X16366611Y-14910174D02*
X16385658Y-14900650D01*
X16385658Y-14900650D02*
X16414230Y-14900650D01*
X16414230Y-14900650D02*
X16433277Y-14910174D01*
X16433277Y-14910174D02*
X16442801Y-14919698D01*
X16442801Y-14919698D02*
X16452325Y-14938746D01*
X16452325Y-14938746D02*
X16452325Y-14995888D01*
X16452325Y-14995888D02*
X16442801Y-15014936D01*
X16442801Y-15014936D02*
X16433277Y-15024460D01*
X16433277Y-15024460D02*
X16414230Y-15033984D01*
X16414230Y-15033984D02*
X16385658Y-15033984D01*
X16509468Y-14900650D02*
X16585658Y-14900650D01*
X16538039Y-14833984D02*
X16538039Y-15005412D01*
X16538039Y-15005412D02*
X16547563Y-15024460D01*
X16547563Y-15024460D02*
X16566611Y-15033984D01*
X16566611Y-15033984D02*
X16585658Y-15033984D01*
X16804706Y-14900650D02*
X16804706Y-15100650D01*
X16804706Y-14910174D02*
X16823754Y-14900650D01*
X16823754Y-14900650D02*
X16861849Y-14900650D01*
X16861849Y-14900650D02*
X16880896Y-14910174D01*
X16880896Y-14910174D02*
X16890420Y-14919698D01*
X16890420Y-14919698D02*
X16899944Y-14938746D01*
X16899944Y-14938746D02*
X16899944Y-14995888D01*
X16899944Y-14995888D02*
X16890420Y-15014936D01*
X16890420Y-15014936D02*
X16880896Y-15024460D01*
X16880896Y-15024460D02*
X16861849Y-15033984D01*
X16861849Y-15033984D02*
X16823754Y-15033984D01*
X16823754Y-15033984D02*
X16804706Y-15024460D01*
X17014230Y-15033984D02*
X16995182Y-15024460D01*
X16995182Y-15024460D02*
X16985658Y-15005412D01*
X16985658Y-15005412D02*
X16985658Y-14833984D01*
X17176135Y-15033984D02*
X17176135Y-14929222D01*
X17176135Y-14929222D02*
X17166611Y-14910174D01*
X17166611Y-14910174D02*
X17147563Y-14900650D01*
X17147563Y-14900650D02*
X17109468Y-14900650D01*
X17109468Y-14900650D02*
X17090420Y-14910174D01*
X17176135Y-15024460D02*
X17157087Y-15033984D01*
X17157087Y-15033984D02*
X17109468Y-15033984D01*
X17109468Y-15033984D02*
X17090420Y-15024460D01*
X17090420Y-15024460D02*
X17080896Y-15005412D01*
X17080896Y-15005412D02*
X17080896Y-14986365D01*
X17080896Y-14986365D02*
X17090420Y-14967317D01*
X17090420Y-14967317D02*
X17109468Y-14957793D01*
X17109468Y-14957793D02*
X17157087Y-14957793D01*
X17157087Y-14957793D02*
X17176135Y-14948269D01*
X17242801Y-14900650D02*
X17318992Y-14900650D01*
X17271373Y-14833984D02*
X17271373Y-15005412D01*
X17271373Y-15005412D02*
X17280896Y-15024460D01*
X17280896Y-15024460D02*
X17299944Y-15033984D01*
X17299944Y-15033984D02*
X17318992Y-15033984D01*
X17461849Y-15024460D02*
X17442801Y-15033984D01*
X17442801Y-15033984D02*
X17404706Y-15033984D01*
X17404706Y-15033984D02*
X17385658Y-15024460D01*
X17385658Y-15024460D02*
X17376135Y-15005412D01*
X17376135Y-15005412D02*
X17376135Y-14929222D01*
X17376135Y-14929222D02*
X17385658Y-14910174D01*
X17385658Y-14910174D02*
X17404706Y-14900650D01*
X17404706Y-14900650D02*
X17442801Y-14900650D01*
X17442801Y-14900650D02*
X17461849Y-14910174D01*
X17461849Y-14910174D02*
X17471373Y-14929222D01*
X17471373Y-14929222D02*
X17471373Y-14948269D01*
X17471373Y-14948269D02*
X17376135Y-14967317D01*
X17642801Y-15033984D02*
X17642801Y-14833984D01*
X17642801Y-15024460D02*
X17623754Y-15033984D01*
X17623754Y-15033984D02*
X17585658Y-15033984D01*
X17585658Y-15033984D02*
X17566611Y-15024460D01*
X17566611Y-15024460D02*
X17557087Y-15014936D01*
X17557087Y-15014936D02*
X17547563Y-14995888D01*
X17547563Y-14995888D02*
X17547563Y-14938746D01*
X17547563Y-14938746D02*
X17557087Y-14919698D01*
X17557087Y-14919698D02*
X17566611Y-14910174D01*
X17566611Y-14910174D02*
X17585658Y-14900650D01*
X17585658Y-14900650D02*
X17623754Y-14900650D01*
X17623754Y-14900650D02*
X17642801Y-14910174D01*
X17718992Y-15110174D02*
X17728516Y-15100650D01*
X17728516Y-15100650D02*
X17747563Y-15072079D01*
X17747563Y-15072079D02*
X17757087Y-15053031D01*
X17757087Y-15053031D02*
X17766611Y-15024460D01*
X17766611Y-15024460D02*
X17776135Y-14976841D01*
X17776135Y-14976841D02*
X17776135Y-14938746D01*
X17776135Y-14938746D02*
X17766611Y-14891127D01*
X17766611Y-14891127D02*
X17757087Y-14862555D01*
X17757087Y-14862555D02*
X17747563Y-14843508D01*
X17747563Y-14843508D02*
X17728516Y-14814936D01*
X17728516Y-14814936D02*
X17718992Y-14805412D01*
X10772500Y-15232500D02*
G75*
G02*
X10572500Y-15232500I-100000J0D01*
G01*
X10572500Y-15232500D02*
G75*
G02*
X10772500Y-15232500I100000J0D01*
G01*
X11118991Y-15190650D02*
X11118991Y-15323984D01*
X11071372Y-15114460D02*
X11023753Y-15257317D01*
X11023753Y-15257317D02*
X11147563Y-15257317D01*
X11223753Y-15304936D02*
X11233277Y-15314460D01*
X11233277Y-15314460D02*
X11223753Y-15323984D01*
X11223753Y-15323984D02*
X11214229Y-15314460D01*
X11214229Y-15314460D02*
X11223753Y-15304936D01*
X11223753Y-15304936D02*
X11223753Y-15323984D01*
X11357086Y-15123984D02*
X11376134Y-15123984D01*
X11376134Y-15123984D02*
X11395182Y-15133508D01*
X11395182Y-15133508D02*
X11404705Y-15143031D01*
X11404705Y-15143031D02*
X11414229Y-15162079D01*
X11414229Y-15162079D02*
X11423753Y-15200174D01*
X11423753Y-15200174D02*
X11423753Y-15247793D01*
X11423753Y-15247793D02*
X11414229Y-15285888D01*
X11414229Y-15285888D02*
X11404705Y-15304936D01*
X11404705Y-15304936D02*
X11395182Y-15314460D01*
X11395182Y-15314460D02*
X11376134Y-15323984D01*
X11376134Y-15323984D02*
X11357086Y-15323984D01*
X11357086Y-15323984D02*
X11338039Y-15314460D01*
X11338039Y-15314460D02*
X11328515Y-15304936D01*
X11328515Y-15304936D02*
X11318991Y-15285888D01*
X11318991Y-15285888D02*
X11309467Y-15247793D01*
X11309467Y-15247793D02*
X11309467Y-15200174D01*
X11309467Y-15200174D02*
X11318991Y-15162079D01*
X11318991Y-15162079D02*
X11328515Y-15143031D01*
X11328515Y-15143031D02*
X11338039Y-15133508D01*
X11338039Y-15133508D02*
X11357086Y-15123984D01*
X11547562Y-15123984D02*
X11566610Y-15123984D01*
X11566610Y-15123984D02*
X11585658Y-15133508D01*
X11585658Y-15133508D02*
X11595182Y-15143031D01*
X11595182Y-15143031D02*
X11604705Y-15162079D01*
X11604705Y-15162079D02*
X11614229Y-15200174D01*
X11614229Y-15200174D02*
X11614229Y-15247793D01*
X11614229Y-15247793D02*
X11604705Y-15285888D01*
X11604705Y-15285888D02*
X11595182Y-15304936D01*
X11595182Y-15304936D02*
X11585658Y-15314460D01*
X11585658Y-15314460D02*
X11566610Y-15323984D01*
X11566610Y-15323984D02*
X11547562Y-15323984D01*
X11547562Y-15323984D02*
X11528515Y-15314460D01*
X11528515Y-15314460D02*
X11518991Y-15304936D01*
X11518991Y-15304936D02*
X11509467Y-15285888D01*
X11509467Y-15285888D02*
X11499943Y-15247793D01*
X11499943Y-15247793D02*
X11499943Y-15200174D01*
X11499943Y-15200174D02*
X11509467Y-15162079D01*
X11509467Y-15162079D02*
X11518991Y-15143031D01*
X11518991Y-15143031D02*
X11528515Y-15133508D01*
X11528515Y-15133508D02*
X11547562Y-15123984D01*
X11738039Y-15123984D02*
X11757086Y-15123984D01*
X11757086Y-15123984D02*
X11776134Y-15133508D01*
X11776134Y-15133508D02*
X11785658Y-15143031D01*
X11785658Y-15143031D02*
X11795182Y-15162079D01*
X11795182Y-15162079D02*
X11804705Y-15200174D01*
X11804705Y-15200174D02*
X11804705Y-15247793D01*
X11804705Y-15247793D02*
X11795182Y-15285888D01*
X11795182Y-15285888D02*
X11785658Y-15304936D01*
X11785658Y-15304936D02*
X11776134Y-15314460D01*
X11776134Y-15314460D02*
X11757086Y-15323984D01*
X11757086Y-15323984D02*
X11738039Y-15323984D01*
X11738039Y-15323984D02*
X11718991Y-15314460D01*
X11718991Y-15314460D02*
X11709467Y-15304936D01*
X11709467Y-15304936D02*
X11699943Y-15285888D01*
X11699943Y-15285888D02*
X11690420Y-15247793D01*
X11690420Y-15247793D02*
X11690420Y-15200174D01*
X11690420Y-15200174D02*
X11699943Y-15162079D01*
X11699943Y-15162079D02*
X11709467Y-15143031D01*
X11709467Y-15143031D02*
X11718991Y-15133508D01*
X11718991Y-15133508D02*
X11738039Y-15123984D01*
X11890420Y-15323984D02*
X11890420Y-15190650D01*
X11890420Y-15209698D02*
X11899943Y-15200174D01*
X11899943Y-15200174D02*
X11918991Y-15190650D01*
X11918991Y-15190650D02*
X11947563Y-15190650D01*
X11947563Y-15190650D02*
X11966610Y-15200174D01*
X11966610Y-15200174D02*
X11976134Y-15219222D01*
X11976134Y-15219222D02*
X11976134Y-15323984D01*
X11976134Y-15219222D02*
X11985658Y-15200174D01*
X11985658Y-15200174D02*
X12004705Y-15190650D01*
X12004705Y-15190650D02*
X12033277Y-15190650D01*
X12033277Y-15190650D02*
X12052324Y-15200174D01*
X12052324Y-15200174D02*
X12061848Y-15219222D01*
X12061848Y-15219222D02*
X12061848Y-15323984D01*
X12157086Y-15323984D02*
X12157086Y-15190650D01*
X12157086Y-15209698D02*
X12166610Y-15200174D01*
X12166610Y-15200174D02*
X12185658Y-15190650D01*
X12185658Y-15190650D02*
X12214229Y-15190650D01*
X12214229Y-15190650D02*
X12233277Y-15200174D01*
X12233277Y-15200174D02*
X12242801Y-15219222D01*
X12242801Y-15219222D02*
X12242801Y-15323984D01*
X12242801Y-15219222D02*
X12252324Y-15200174D01*
X12252324Y-15200174D02*
X12271372Y-15190650D01*
X12271372Y-15190650D02*
X12299943Y-15190650D01*
X12299943Y-15190650D02*
X12318991Y-15200174D01*
X12318991Y-15200174D02*
X12328515Y-15219222D01*
X12328515Y-15219222D02*
X12328515Y-15323984D01*
X12718991Y-15114460D02*
X12547563Y-15371603D01*
X12976134Y-15123984D02*
X12995182Y-15123984D01*
X12995182Y-15123984D02*
X13014229Y-15133508D01*
X13014229Y-15133508D02*
X13023753Y-15143031D01*
X13023753Y-15143031D02*
X13033277Y-15162079D01*
X13033277Y-15162079D02*
X13042801Y-15200174D01*
X13042801Y-15200174D02*
X13042801Y-15247793D01*
X13042801Y-15247793D02*
X13033277Y-15285888D01*
X13033277Y-15285888D02*
X13023753Y-15304936D01*
X13023753Y-15304936D02*
X13014229Y-15314460D01*
X13014229Y-15314460D02*
X12995182Y-15323984D01*
X12995182Y-15323984D02*
X12976134Y-15323984D01*
X12976134Y-15323984D02*
X12957086Y-15314460D01*
X12957086Y-15314460D02*
X12947563Y-15304936D01*
X12947563Y-15304936D02*
X12938039Y-15285888D01*
X12938039Y-15285888D02*
X12928515Y-15247793D01*
X12928515Y-15247793D02*
X12928515Y-15200174D01*
X12928515Y-15200174D02*
X12938039Y-15162079D01*
X12938039Y-15162079D02*
X12947563Y-15143031D01*
X12947563Y-15143031D02*
X12957086Y-15133508D01*
X12957086Y-15133508D02*
X12976134Y-15123984D01*
X13128515Y-15304936D02*
X13138039Y-15314460D01*
X13138039Y-15314460D02*
X13128515Y-15323984D01*
X13128515Y-15323984D02*
X13118991Y-15314460D01*
X13118991Y-15314460D02*
X13128515Y-15304936D01*
X13128515Y-15304936D02*
X13128515Y-15323984D01*
X13328515Y-15323984D02*
X13214229Y-15323984D01*
X13271372Y-15323984D02*
X13271372Y-15123984D01*
X13271372Y-15123984D02*
X13252325Y-15152555D01*
X13252325Y-15152555D02*
X13233277Y-15171603D01*
X13233277Y-15171603D02*
X13214229Y-15181127D01*
X13509467Y-15123984D02*
X13414229Y-15123984D01*
X13414229Y-15123984D02*
X13404706Y-15219222D01*
X13404706Y-15219222D02*
X13414229Y-15209698D01*
X13414229Y-15209698D02*
X13433277Y-15200174D01*
X13433277Y-15200174D02*
X13480896Y-15200174D01*
X13480896Y-15200174D02*
X13499944Y-15209698D01*
X13499944Y-15209698D02*
X13509467Y-15219222D01*
X13509467Y-15219222D02*
X13518991Y-15238269D01*
X13518991Y-15238269D02*
X13518991Y-15285888D01*
X13518991Y-15285888D02*
X13509467Y-15304936D01*
X13509467Y-15304936D02*
X13499944Y-15314460D01*
X13499944Y-15314460D02*
X13480896Y-15323984D01*
X13480896Y-15323984D02*
X13433277Y-15323984D01*
X13433277Y-15323984D02*
X13414229Y-15314460D01*
X13414229Y-15314460D02*
X13404706Y-15304936D01*
X13585658Y-15123984D02*
X13718991Y-15123984D01*
X13718991Y-15123984D02*
X13633277Y-15323984D01*
X13890420Y-15123984D02*
X13795182Y-15123984D01*
X13795182Y-15123984D02*
X13785658Y-15219222D01*
X13785658Y-15219222D02*
X13795182Y-15209698D01*
X13795182Y-15209698D02*
X13814229Y-15200174D01*
X13814229Y-15200174D02*
X13861848Y-15200174D01*
X13861848Y-15200174D02*
X13880896Y-15209698D01*
X13880896Y-15209698D02*
X13890420Y-15219222D01*
X13890420Y-15219222D02*
X13899944Y-15238269D01*
X13899944Y-15238269D02*
X13899944Y-15285888D01*
X13899944Y-15285888D02*
X13890420Y-15304936D01*
X13890420Y-15304936D02*
X13880896Y-15314460D01*
X13880896Y-15314460D02*
X13861848Y-15323984D01*
X13861848Y-15323984D02*
X13814229Y-15323984D01*
X13814229Y-15323984D02*
X13795182Y-15314460D01*
X13795182Y-15314460D02*
X13785658Y-15304936D01*
X13976134Y-15123984D02*
X13976134Y-15162079D01*
X14052325Y-15123984D02*
X14052325Y-15162079D01*
X14347563Y-15400174D02*
X14338039Y-15390650D01*
X14338039Y-15390650D02*
X14318991Y-15362079D01*
X14318991Y-15362079D02*
X14309468Y-15343031D01*
X14309468Y-15343031D02*
X14299944Y-15314460D01*
X14299944Y-15314460D02*
X14290420Y-15266841D01*
X14290420Y-15266841D02*
X14290420Y-15228746D01*
X14290420Y-15228746D02*
X14299944Y-15181127D01*
X14299944Y-15181127D02*
X14309468Y-15152555D01*
X14309468Y-15152555D02*
X14318991Y-15133508D01*
X14318991Y-15133508D02*
X14338039Y-15104936D01*
X14338039Y-15104936D02*
X14347563Y-15095412D01*
X14433277Y-15323984D02*
X14471372Y-15323984D01*
X14471372Y-15323984D02*
X14490420Y-15314460D01*
X14490420Y-15314460D02*
X14499944Y-15304936D01*
X14499944Y-15304936D02*
X14518991Y-15276365D01*
X14518991Y-15276365D02*
X14528515Y-15238269D01*
X14528515Y-15238269D02*
X14528515Y-15162079D01*
X14528515Y-15162079D02*
X14518991Y-15143031D01*
X14518991Y-15143031D02*
X14509468Y-15133508D01*
X14509468Y-15133508D02*
X14490420Y-15123984D01*
X14490420Y-15123984D02*
X14452325Y-15123984D01*
X14452325Y-15123984D02*
X14433277Y-15133508D01*
X14433277Y-15133508D02*
X14423753Y-15143031D01*
X14423753Y-15143031D02*
X14414229Y-15162079D01*
X14414229Y-15162079D02*
X14414229Y-15209698D01*
X14414229Y-15209698D02*
X14423753Y-15228746D01*
X14423753Y-15228746D02*
X14433277Y-15238269D01*
X14433277Y-15238269D02*
X14452325Y-15247793D01*
X14452325Y-15247793D02*
X14490420Y-15247793D01*
X14490420Y-15247793D02*
X14509468Y-15238269D01*
X14509468Y-15238269D02*
X14518991Y-15228746D01*
X14518991Y-15228746D02*
X14528515Y-15209698D01*
X14766610Y-15323984D02*
X14766610Y-15123984D01*
X14852325Y-15323984D02*
X14852325Y-15219222D01*
X14852325Y-15219222D02*
X14842801Y-15200174D01*
X14842801Y-15200174D02*
X14823753Y-15190650D01*
X14823753Y-15190650D02*
X14795182Y-15190650D01*
X14795182Y-15190650D02*
X14776134Y-15200174D01*
X14776134Y-15200174D02*
X14766610Y-15209698D01*
X14976134Y-15323984D02*
X14957087Y-15314460D01*
X14957087Y-15314460D02*
X14947563Y-15304936D01*
X14947563Y-15304936D02*
X14938039Y-15285888D01*
X14938039Y-15285888D02*
X14938039Y-15228746D01*
X14938039Y-15228746D02*
X14947563Y-15209698D01*
X14947563Y-15209698D02*
X14957087Y-15200174D01*
X14957087Y-15200174D02*
X14976134Y-15190650D01*
X14976134Y-15190650D02*
X15004706Y-15190650D01*
X15004706Y-15190650D02*
X15023753Y-15200174D01*
X15023753Y-15200174D02*
X15033277Y-15209698D01*
X15033277Y-15209698D02*
X15042801Y-15228746D01*
X15042801Y-15228746D02*
X15042801Y-15285888D01*
X15042801Y-15285888D02*
X15033277Y-15304936D01*
X15033277Y-15304936D02*
X15023753Y-15314460D01*
X15023753Y-15314460D02*
X15004706Y-15323984D01*
X15004706Y-15323984D02*
X14976134Y-15323984D01*
X15157087Y-15323984D02*
X15138039Y-15314460D01*
X15138039Y-15314460D02*
X15128515Y-15295412D01*
X15128515Y-15295412D02*
X15128515Y-15123984D01*
X15309468Y-15314460D02*
X15290420Y-15323984D01*
X15290420Y-15323984D02*
X15252325Y-15323984D01*
X15252325Y-15323984D02*
X15233277Y-15314460D01*
X15233277Y-15314460D02*
X15223753Y-15295412D01*
X15223753Y-15295412D02*
X15223753Y-15219222D01*
X15223753Y-15219222D02*
X15233277Y-15200174D01*
X15233277Y-15200174D02*
X15252325Y-15190650D01*
X15252325Y-15190650D02*
X15290420Y-15190650D01*
X15290420Y-15190650D02*
X15309468Y-15200174D01*
X15309468Y-15200174D02*
X15318991Y-15219222D01*
X15318991Y-15219222D02*
X15318991Y-15238269D01*
X15318991Y-15238269D02*
X15223753Y-15257317D01*
X15395182Y-15314460D02*
X15414230Y-15323984D01*
X15414230Y-15323984D02*
X15452325Y-15323984D01*
X15452325Y-15323984D02*
X15471372Y-15314460D01*
X15471372Y-15314460D02*
X15480896Y-15295412D01*
X15480896Y-15295412D02*
X15480896Y-15285888D01*
X15480896Y-15285888D02*
X15471372Y-15266841D01*
X15471372Y-15266841D02*
X15452325Y-15257317D01*
X15452325Y-15257317D02*
X15423753Y-15257317D01*
X15423753Y-15257317D02*
X15404706Y-15247793D01*
X15404706Y-15247793D02*
X15395182Y-15228746D01*
X15395182Y-15228746D02*
X15395182Y-15219222D01*
X15395182Y-15219222D02*
X15404706Y-15200174D01*
X15404706Y-15200174D02*
X15423753Y-15190650D01*
X15423753Y-15190650D02*
X15452325Y-15190650D01*
X15452325Y-15190650D02*
X15471372Y-15200174D01*
X15547563Y-15400174D02*
X15557087Y-15390650D01*
X15557087Y-15390650D02*
X15576134Y-15362079D01*
X15576134Y-15362079D02*
X15585658Y-15343031D01*
X15585658Y-15343031D02*
X15595182Y-15314460D01*
X15595182Y-15314460D02*
X15604706Y-15266841D01*
X15604706Y-15266841D02*
X15604706Y-15228746D01*
X15604706Y-15228746D02*
X15595182Y-15181127D01*
X15595182Y-15181127D02*
X15585658Y-15152555D01*
X15585658Y-15152555D02*
X15576134Y-15133508D01*
X15576134Y-15133508D02*
X15557087Y-15104936D01*
X15557087Y-15104936D02*
X15547563Y-15095412D01*
X15909468Y-15400174D02*
X15899944Y-15390650D01*
X15899944Y-15390650D02*
X15880896Y-15362079D01*
X15880896Y-15362079D02*
X15871372Y-15343031D01*
X15871372Y-15343031D02*
X15861849Y-15314460D01*
X15861849Y-15314460D02*
X15852325Y-15266841D01*
X15852325Y-15266841D02*
X15852325Y-15228746D01*
X15852325Y-15228746D02*
X15861849Y-15181127D01*
X15861849Y-15181127D02*
X15871372Y-15152555D01*
X15871372Y-15152555D02*
X15880896Y-15133508D01*
X15880896Y-15133508D02*
X15899944Y-15104936D01*
X15899944Y-15104936D02*
X15909468Y-15095412D01*
X15985658Y-15190650D02*
X15985658Y-15323984D01*
X15985658Y-15209698D02*
X15995182Y-15200174D01*
X15995182Y-15200174D02*
X16014230Y-15190650D01*
X16014230Y-15190650D02*
X16042801Y-15190650D01*
X16042801Y-15190650D02*
X16061849Y-15200174D01*
X16061849Y-15200174D02*
X16071372Y-15219222D01*
X16071372Y-15219222D02*
X16071372Y-15323984D01*
X16195182Y-15323984D02*
X16176134Y-15314460D01*
X16176134Y-15314460D02*
X16166611Y-15304936D01*
X16166611Y-15304936D02*
X16157087Y-15285888D01*
X16157087Y-15285888D02*
X16157087Y-15228746D01*
X16157087Y-15228746D02*
X16166611Y-15209698D01*
X16166611Y-15209698D02*
X16176134Y-15200174D01*
X16176134Y-15200174D02*
X16195182Y-15190650D01*
X16195182Y-15190650D02*
X16223753Y-15190650D01*
X16223753Y-15190650D02*
X16242801Y-15200174D01*
X16242801Y-15200174D02*
X16252325Y-15209698D01*
X16252325Y-15209698D02*
X16261849Y-15228746D01*
X16261849Y-15228746D02*
X16261849Y-15285888D01*
X16261849Y-15285888D02*
X16252325Y-15304936D01*
X16252325Y-15304936D02*
X16242801Y-15314460D01*
X16242801Y-15314460D02*
X16223753Y-15323984D01*
X16223753Y-15323984D02*
X16195182Y-15323984D01*
X16318992Y-15190650D02*
X16395182Y-15190650D01*
X16347563Y-15123984D02*
X16347563Y-15295412D01*
X16347563Y-15295412D02*
X16357087Y-15314460D01*
X16357087Y-15314460D02*
X16376134Y-15323984D01*
X16376134Y-15323984D02*
X16395182Y-15323984D01*
X16614230Y-15190650D02*
X16614230Y-15390650D01*
X16614230Y-15200174D02*
X16633277Y-15190650D01*
X16633277Y-15190650D02*
X16671373Y-15190650D01*
X16671373Y-15190650D02*
X16690420Y-15200174D01*
X16690420Y-15200174D02*
X16699944Y-15209698D01*
X16699944Y-15209698D02*
X16709468Y-15228746D01*
X16709468Y-15228746D02*
X16709468Y-15285888D01*
X16709468Y-15285888D02*
X16699944Y-15304936D01*
X16699944Y-15304936D02*
X16690420Y-15314460D01*
X16690420Y-15314460D02*
X16671373Y-15323984D01*
X16671373Y-15323984D02*
X16633277Y-15323984D01*
X16633277Y-15323984D02*
X16614230Y-15314460D01*
X16823754Y-15323984D02*
X16804706Y-15314460D01*
X16804706Y-15314460D02*
X16795182Y-15295412D01*
X16795182Y-15295412D02*
X16795182Y-15123984D01*
X16985658Y-15323984D02*
X16985658Y-15219222D01*
X16985658Y-15219222D02*
X16976135Y-15200174D01*
X16976135Y-15200174D02*
X16957087Y-15190650D01*
X16957087Y-15190650D02*
X16918992Y-15190650D01*
X16918992Y-15190650D02*
X16899944Y-15200174D01*
X16985658Y-15314460D02*
X16966611Y-15323984D01*
X16966611Y-15323984D02*
X16918992Y-15323984D01*
X16918992Y-15323984D02*
X16899944Y-15314460D01*
X16899944Y-15314460D02*
X16890420Y-15295412D01*
X16890420Y-15295412D02*
X16890420Y-15276365D01*
X16890420Y-15276365D02*
X16899944Y-15257317D01*
X16899944Y-15257317D02*
X16918992Y-15247793D01*
X16918992Y-15247793D02*
X16966611Y-15247793D01*
X16966611Y-15247793D02*
X16985658Y-15238269D01*
X17052325Y-15190650D02*
X17128515Y-15190650D01*
X17080896Y-15123984D02*
X17080896Y-15295412D01*
X17080896Y-15295412D02*
X17090420Y-15314460D01*
X17090420Y-15314460D02*
X17109468Y-15323984D01*
X17109468Y-15323984D02*
X17128515Y-15323984D01*
X17271373Y-15314460D02*
X17252325Y-15323984D01*
X17252325Y-15323984D02*
X17214230Y-15323984D01*
X17214230Y-15323984D02*
X17195182Y-15314460D01*
X17195182Y-15314460D02*
X17185658Y-15295412D01*
X17185658Y-15295412D02*
X17185658Y-15219222D01*
X17185658Y-15219222D02*
X17195182Y-15200174D01*
X17195182Y-15200174D02*
X17214230Y-15190650D01*
X17214230Y-15190650D02*
X17252325Y-15190650D01*
X17252325Y-15190650D02*
X17271373Y-15200174D01*
X17271373Y-15200174D02*
X17280896Y-15219222D01*
X17280896Y-15219222D02*
X17280896Y-15238269D01*
X17280896Y-15238269D02*
X17185658Y-15257317D01*
X17452325Y-15323984D02*
X17452325Y-15123984D01*
X17452325Y-15314460D02*
X17433277Y-15323984D01*
X17433277Y-15323984D02*
X17395182Y-15323984D01*
X17395182Y-15323984D02*
X17376135Y-15314460D01*
X17376135Y-15314460D02*
X17366611Y-15304936D01*
X17366611Y-15304936D02*
X17357087Y-15285888D01*
X17357087Y-15285888D02*
X17357087Y-15228746D01*
X17357087Y-15228746D02*
X17366611Y-15209698D01*
X17366611Y-15209698D02*
X17376135Y-15200174D01*
X17376135Y-15200174D02*
X17395182Y-15190650D01*
X17395182Y-15190650D02*
X17433277Y-15190650D01*
X17433277Y-15190650D02*
X17452325Y-15200174D01*
X17528516Y-15400174D02*
X17538039Y-15390650D01*
X17538039Y-15390650D02*
X17557087Y-15362079D01*
X17557087Y-15362079D02*
X17566611Y-15343031D01*
X17566611Y-15343031D02*
X17576135Y-15314460D01*
X17576135Y-15314460D02*
X17585658Y-15266841D01*
X17585658Y-15266841D02*
X17585658Y-15228746D01*
X17585658Y-15228746D02*
X17576135Y-15181127D01*
X17576135Y-15181127D02*
X17566611Y-15152555D01*
X17566611Y-15152555D02*
X17557087Y-15133508D01*
X17557087Y-15133508D02*
X17538039Y-15104936D01*
X17538039Y-15104936D02*
X17528516Y-15095412D01*
M02*
