M48
; DRILL file {KiCad 9.0.2} date 2025-06-22T22:41:08+0300
; FORMAT={-:-/ absolute / metric / decimal}
; #@! TF.CreationDate,2025-06-22T22:41:08+03:00
; #@! TF.GenerationSoftware,Kicad,Pcbnew,9.0.2
; #@! TF.FileFunction,NonPlated,1,2,NPTH
FMAT,2
METRIC
; #@! TA.AperFunction,NonPlated,NPTH,ComponentDrill
T1C1.700
; #@! TA.AperFunction,NonPlated,NPTH,ComponentDrill
T2C4.000
%
G90
G05
T1
X145.45Y-92.4
X145.45Y-111.45
X145.45Y-130.5
X155.61Y-92.4
X155.61Y-111.45
X155.61Y-130.5
X164.5Y-92.4
X164.5Y-111.45
X164.5Y-130.5
X174.66Y-92.4
X174.66Y-111.45
X174.66Y-130.5
X183.55Y-92.4
X183.55Y-111.45
X183.55Y-130.5
X193.71Y-92.4
X193.71Y-111.45
X193.71Y-130.5
T2
X150.53Y-92.4
X150.53Y-111.45
X150.53Y-130.5
X169.58Y-92.4
X169.58Y-111.45
X169.58Y-130.5
X188.63Y-92.4
X188.63Y-111.45
X188.63Y-130.5
M30
