M48
; DRILL file {KiCad 9.0.2} date 2025-06-22T22:41:08+0300
; FORMAT={-:-/ absolute / metric / decimal}
; #@! TF.CreationDate,2025-06-22T22:41:08+03:00
; #@! TF.GenerationSoftware,Kicad,Pcbnew,9.0.2
; #@! TF.FileFunction,Plated,1,2,PTH
FMAT,2
METRIC
; #@! TA.AperFunction,Plated,PTH,ViaDrill
T1C0.300
; #@! TA.AperFunction,Plated,PTH,ComponentDrill
T2C0.889
; #@! TA.AperFunction,Plated,PTH,ComponentDrill
T3C1.000
; #@! TA.AperFunction,Plated,PTH,ComponentDrill
T4C1.400
; #@! TA.AperFunction,Plated,PTH,ComponentDrill
T5C1.500
%
G90
G05
T1
X138.0Y-85.25
X139.5Y-119.0
X140.325Y-104.5
X158.658Y-112.5
X161.25Y-107.25
X169.5Y-101.85
X174.25Y-120.0
X174.75Y-83.9
X185.0Y-139.1
T2
X112.38Y-55.88
X112.38Y-58.42
X112.38Y-60.96
X112.38Y-63.5
X112.38Y-66.04
X112.38Y-68.58
X112.38Y-71.12
X127.62Y-55.88
X127.62Y-58.42
X127.62Y-60.96
X127.62Y-63.5
X127.62Y-66.04
X127.62Y-68.58
X127.62Y-71.12
T3
X137.885Y-69.325
X137.885Y-71.865
X137.885Y-74.405
X137.885Y-76.945
X180.5Y-69.75
X180.5Y-72.25
X180.5Y-74.75
X195.0Y-69.75
X195.0Y-74.75
T4
X111.84Y-113.0
X111.84Y-120.5
X111.92Y-105.5
X116.92Y-113.0
X116.92Y-120.5
X117.0Y-105.5
X121.84Y-113.0
X121.84Y-120.5
X122.0Y-105.5
X126.92Y-113.0
X126.92Y-120.5
X127.08Y-105.5
X131.84Y-120.5
X131.92Y-105.5
X131.92Y-113.0
X136.92Y-120.5
X137.0Y-105.5
X137.0Y-113.0
T5
X146.72Y-89.86
X146.72Y-108.91
X146.72Y-127.96
X153.07Y-87.32
X153.07Y-106.37
X153.07Y-125.42
X165.77Y-89.86
X165.77Y-108.91
X165.77Y-127.96
X172.12Y-87.32
X172.12Y-106.37
X172.12Y-125.42
X184.82Y-89.86
X184.82Y-108.91
X184.82Y-127.96
X191.17Y-87.32
X191.17Y-106.37
X191.17Y-125.42
T5
G00X187.35Y-66.65
M15
G01X188.65Y-66.65
M16
G05
G00X187.35Y-77.85
M15
G01X188.65Y-77.85
M16
G05
M30
