%TF.GenerationSoftware,KiCad,Pcbnew,9.0.2*%
%TF.CreationDate,2025-06-22T22:41:08+03:00*%
%TF.ProjectId,macropad,6d616372-6f70-4616-942e-6b696361645f,rev?*%
%TF.SameCoordinates,Original*%
%TF.FileFunction,Drillmap*%
%TF.FilePolarity,Positive*%
%FSLAX45Y45*%
G04 Gerber Fmt 4.5, Leading zero omitted, Abs format (unit mm)*
G04 Created by KiCad (PCBNEW 9.0.2) date 2025-06-22 22:41:08*
%MOMM*%
%LPD*%
G01*
G04 APERTURE LIST*
%ADD10C,0.050000*%
%ADD11C,0.120000*%
%ADD12C,0.200000*%
%ADD13C,0.100000*%
%ADD14C,0.140000*%
%ADD15C,0.150000*%
G04 APERTURE END LIST*
D10*
X10775000Y-5300000D02*
X20200000Y-5300000D01*
X20200000Y-14300000D01*
X10775000Y-14300000D01*
X10775000Y-5300000D01*
D11*
X15943333Y-14055000D02*
X15943333Y-13795000D01*
X15963333Y-13775000D02*
X16303333Y-13775000D01*
X16303333Y-14075000D02*
X15963333Y-14075000D01*
X16323333Y-13795000D02*
X16323333Y-14055000D01*
X15943333Y-13795000D02*
G75*
G02*
X15963333Y-13775000I20000J0D01*
G01*
X15963333Y-14075000D02*
G75*
G02*
X15943333Y-14055000I0J20000D01*
G01*
X16303333Y-13775000D02*
G75*
G02*
X16323333Y-13795000I0J-20000D01*
G01*
X16323333Y-14055000D02*
G75*
G02*
X16303333Y-14075000I-20000J0D01*
G01*
X17776667Y-10330000D02*
X17776667Y-10070000D01*
X17796667Y-10050000D02*
X18136667Y-10050000D01*
X18136667Y-10350000D02*
X17796667Y-10350000D01*
X18156667Y-10070000D02*
X18156667Y-10330000D01*
X17776667Y-10070000D02*
G75*
G02*
X17796667Y-10050000I20000J0D01*
G01*
X17796667Y-10350000D02*
G75*
G02*
X17776667Y-10330000I0J20000D01*
G01*
X18136667Y-10050000D02*
G75*
G02*
X18156667Y-10070000I0J-20000D01*
G01*
X18156667Y-10330000D02*
G75*
G02*
X18136667Y-10350000I-20000J0D01*
G01*
X15943333Y-8505000D02*
X15943333Y-8245000D01*
X15963333Y-8225000D02*
X16303333Y-8225000D01*
X16303333Y-8525000D02*
X15963333Y-8525000D01*
X16323333Y-8245000D02*
X16323333Y-8505000D01*
X15943333Y-8245000D02*
G75*
G02*
X15963333Y-8225000I20000J0D01*
G01*
X15963333Y-8525000D02*
G75*
G02*
X15943333Y-8505000I0J20000D01*
G01*
X16303333Y-8225000D02*
G75*
G02*
X16323333Y-8245000I0J-20000D01*
G01*
X16323333Y-8505000D02*
G75*
G02*
X16303333Y-8525000I-20000J0D01*
G01*
X14110000Y-14055000D02*
X14110000Y-13795000D01*
X14130000Y-13775000D02*
X14470000Y-13775000D01*
X14470000Y-14075000D02*
X14130000Y-14075000D01*
X14490000Y-13795000D02*
X14490000Y-14055000D01*
X14110000Y-13795000D02*
G75*
G02*
X14130000Y-13775000I20000J0D01*
G01*
X14130000Y-14075000D02*
G75*
G02*
X14110000Y-14055000I0J20000D01*
G01*
X14470000Y-13775000D02*
G75*
G02*
X14490000Y-13795000I0J-20000D01*
G01*
X14490000Y-14055000D02*
G75*
G02*
X14470000Y-14075000I-20000J0D01*
G01*
X15943333Y-12205000D02*
X15943333Y-11945000D01*
X15963333Y-11925000D02*
X16303333Y-11925000D01*
X16303333Y-12225000D02*
X15963333Y-12225000D01*
X16323333Y-11945000D02*
X16323333Y-12205000D01*
X15943333Y-11945000D02*
G75*
G02*
X15963333Y-11925000I20000J0D01*
G01*
X15963333Y-12225000D02*
G75*
G02*
X15943333Y-12205000I0J20000D01*
G01*
X16303333Y-11925000D02*
G75*
G02*
X16323333Y-11945000I0J-20000D01*
G01*
X16323333Y-12205000D02*
G75*
G02*
X16303333Y-12225000I-20000J0D01*
G01*
X19610000Y-14055000D02*
X19610000Y-13795000D01*
X19630000Y-13775000D02*
X19970000Y-13775000D01*
X19970000Y-14075000D02*
X19630000Y-14075000D01*
X19990000Y-13795000D02*
X19990000Y-14055000D01*
X19610000Y-13795000D02*
G75*
G02*
X19630000Y-13775000I20000J0D01*
G01*
X19630000Y-14075000D02*
G75*
G02*
X19610000Y-14055000I0J20000D01*
G01*
X19970000Y-13775000D02*
G75*
G02*
X19990000Y-13795000I0J-20000D01*
G01*
X19990000Y-14055000D02*
G75*
G02*
X19970000Y-14075000I-20000J0D01*
G01*
X17776667Y-12205000D02*
X17776667Y-11945000D01*
X17796667Y-11925000D02*
X18136667Y-11925000D01*
X18136667Y-12225000D02*
X17796667Y-12225000D01*
X18156667Y-11945000D02*
X18156667Y-12205000D01*
X17776667Y-11945000D02*
G75*
G02*
X17796667Y-11925000I20000J0D01*
G01*
X17796667Y-12225000D02*
G75*
G02*
X17776667Y-12205000I0J20000D01*
G01*
X18136667Y-11925000D02*
G75*
G02*
X18156667Y-11945000I0J-20000D01*
G01*
X18156667Y-12205000D02*
G75*
G02*
X18136667Y-12225000I-20000J0D01*
G01*
X14210000Y-12205000D02*
X14210000Y-11945000D01*
X14230000Y-11925000D02*
X14570000Y-11925000D01*
X14570000Y-12225000D02*
X14230000Y-12225000D01*
X14590000Y-11945000D02*
X14590000Y-12205000D01*
X14210000Y-11945000D02*
G75*
G02*
X14230000Y-11925000I20000J0D01*
G01*
X14230000Y-12225000D02*
G75*
G02*
X14210000Y-12205000I0J20000D01*
G01*
X14570000Y-11925000D02*
G75*
G02*
X14590000Y-11945000I0J-20000D01*
G01*
X14590000Y-12205000D02*
G75*
G02*
X14570000Y-12225000I-20000J0D01*
G01*
X17776667Y-8505000D02*
X17776667Y-8245000D01*
X17796667Y-8225000D02*
X18136667Y-8225000D01*
X18136667Y-8525000D02*
X17796667Y-8525000D01*
X18156667Y-8245000D02*
X18156667Y-8505000D01*
X17776667Y-8245000D02*
G75*
G02*
X17796667Y-8225000I20000J0D01*
G01*
X17796667Y-8525000D02*
G75*
G02*
X17776667Y-8505000I0J20000D01*
G01*
X18136667Y-8225000D02*
G75*
G02*
X18156667Y-8245000I0J-20000D01*
G01*
X18156667Y-8505000D02*
G75*
G02*
X18136667Y-8525000I-20000J0D01*
G01*
X13975000Y-8545000D02*
X13975000Y-8205000D01*
X13995000Y-8185000D02*
X14255000Y-8185000D01*
X14255000Y-8565000D02*
X13995000Y-8565000D01*
X14275000Y-8205000D02*
X14275000Y-8545000D01*
X13975000Y-8205000D02*
G75*
G02*
X13995000Y-8185000I20000J0D01*
G01*
X13995000Y-8565000D02*
G75*
G02*
X13975000Y-8545000I0J20000D01*
G01*
X14255000Y-8185000D02*
G75*
G02*
X14275000Y-8205000I0J-20000D01*
G01*
X14275000Y-8545000D02*
G75*
G02*
X14255000Y-8565000I-20000J0D01*
G01*
X17776667Y-14055000D02*
X17776667Y-13795000D01*
X17796667Y-13775000D02*
X18136667Y-13775000D01*
X18136667Y-14075000D02*
X17796667Y-14075000D01*
X18156667Y-13795000D02*
X18156667Y-14055000D01*
X17776667Y-13795000D02*
G75*
G02*
X17796667Y-13775000I20000J0D01*
G01*
X17796667Y-14075000D02*
G75*
G02*
X17776667Y-14055000I0J20000D01*
G01*
X18136667Y-13775000D02*
G75*
G02*
X18156667Y-13795000I0J-20000D01*
G01*
X18156667Y-14055000D02*
G75*
G02*
X18136667Y-14075000I-20000J0D01*
G01*
X19650000Y-12245000D02*
X19650000Y-11905000D01*
X19670000Y-11885000D02*
X19930000Y-11885000D01*
X19930000Y-12265000D02*
X19670000Y-12265000D01*
X19950000Y-11905000D02*
X19950000Y-12245000D01*
X19650000Y-11905000D02*
G75*
G02*
X19670000Y-11885000I20000J0D01*
G01*
X19670000Y-12265000D02*
G75*
G02*
X19650000Y-12245000I0J20000D01*
G01*
X19930000Y-11885000D02*
G75*
G02*
X19950000Y-11905000I0J-20000D01*
G01*
X19950000Y-12245000D02*
G75*
G02*
X19930000Y-12265000I-20000J0D01*
G01*
X19610000Y-10330000D02*
X19610000Y-10070000D01*
X19630000Y-10050000D02*
X19970000Y-10050000D01*
X19970000Y-10350000D02*
X19630000Y-10350000D01*
X19990000Y-10070000D02*
X19990000Y-10330000D01*
X19610000Y-10070000D02*
G75*
G02*
X19630000Y-10050000I20000J0D01*
G01*
X19630000Y-10350000D02*
G75*
G02*
X19610000Y-10330000I0J20000D01*
G01*
X19970000Y-10050000D02*
G75*
G02*
X19990000Y-10070000I0J-20000D01*
G01*
X19990000Y-10330000D02*
G75*
G02*
X19970000Y-10350000I-20000J0D01*
G01*
X14110000Y-10330000D02*
X14110000Y-10070000D01*
X14130000Y-10050000D02*
X14470000Y-10050000D01*
X14470000Y-10350000D02*
X14130000Y-10350000D01*
X14490000Y-10070000D02*
X14490000Y-10330000D01*
X14110000Y-10070000D02*
G75*
G02*
X14130000Y-10050000I20000J0D01*
G01*
X14130000Y-10350000D02*
G75*
G02*
X14110000Y-10330000I0J20000D01*
G01*
X14470000Y-10050000D02*
G75*
G02*
X14490000Y-10070000I0J-20000D01*
G01*
X14490000Y-10330000D02*
G75*
G02*
X14470000Y-10350000I-20000J0D01*
G01*
X15943333Y-10330000D02*
X15943333Y-10070000D01*
X15963333Y-10050000D02*
X16303333Y-10050000D01*
X16303333Y-10350000D02*
X15963333Y-10350000D01*
X16323333Y-10070000D02*
X16323333Y-10330000D01*
X15943333Y-10070000D02*
G75*
G02*
X15963333Y-10050000I20000J0D01*
G01*
X15963333Y-10350000D02*
G75*
G02*
X15943333Y-10330000I0J20000D01*
G01*
X16303333Y-10050000D02*
G75*
G02*
X16323333Y-10070000I0J-20000D01*
G01*
X16323333Y-10330000D02*
G75*
G02*
X16303333Y-10350000I-20000J0D01*
G01*
X19650000Y-8545000D02*
X19650000Y-8205000D01*
X19670000Y-8185000D02*
X19930000Y-8185000D01*
X19930000Y-8565000D02*
X19670000Y-8565000D01*
X19950000Y-8205000D02*
X19950000Y-8545000D01*
X19650000Y-8205000D02*
G75*
G02*
X19670000Y-8185000I20000J0D01*
G01*
X19670000Y-8565000D02*
G75*
G02*
X19650000Y-8545000I0J20000D01*
G01*
X19930000Y-8185000D02*
G75*
G02*
X19950000Y-8205000I0J-20000D01*
G01*
X19950000Y-8545000D02*
G75*
G02*
X19930000Y-8565000I-20000J0D01*
G01*
D12*
D13*
X13785000Y-8510000D02*
X13815000Y-8540000D01*
X13815000Y-8510000D02*
X13785000Y-8540000D01*
X13935000Y-11885000D02*
X13965000Y-11915000D01*
X13965000Y-11885000D02*
X13935000Y-11915000D01*
X14017500Y-10435000D02*
X14047500Y-10465000D01*
X14047500Y-10435000D02*
X14017500Y-10465000D01*
X15850833Y-11235000D02*
X15880833Y-11265000D01*
X15880833Y-11235000D02*
X15850833Y-11265000D01*
X16110000Y-10710000D02*
X16140000Y-10740000D01*
X16140000Y-10710000D02*
X16110000Y-10740000D01*
X16935000Y-10170000D02*
X16965000Y-10200000D01*
X16965000Y-10170000D02*
X16935000Y-10200000D01*
X17410000Y-11985000D02*
X17440000Y-12015000D01*
X17440000Y-11985000D02*
X17410000Y-12015000D01*
X17460000Y-8375000D02*
X17490000Y-8405000D01*
X17490000Y-8375000D02*
X17460000Y-8405000D01*
X18485000Y-13895000D02*
X18515000Y-13925000D01*
X18515000Y-13895000D02*
X18485000Y-13925000D01*
X11282450Y-5588000D02*
G75*
G02*
X11193550Y-5588000I-44450J0D01*
G01*
X11193550Y-5588000D02*
G75*
G02*
X11282450Y-5588000I44450J0D01*
G01*
X11282450Y-5842000D02*
G75*
G02*
X11193550Y-5842000I-44450J0D01*
G01*
X11193550Y-5842000D02*
G75*
G02*
X11282450Y-5842000I44450J0D01*
G01*
X11282450Y-6096000D02*
G75*
G02*
X11193550Y-6096000I-44450J0D01*
G01*
X11193550Y-6096000D02*
G75*
G02*
X11282450Y-6096000I44450J0D01*
G01*
X11282450Y-6350000D02*
G75*
G02*
X11193550Y-6350000I-44450J0D01*
G01*
X11193550Y-6350000D02*
G75*
G02*
X11282450Y-6350000I44450J0D01*
G01*
X11282450Y-6604000D02*
G75*
G02*
X11193550Y-6604000I-44450J0D01*
G01*
X11193550Y-6604000D02*
G75*
G02*
X11282450Y-6604000I44450J0D01*
G01*
X11282450Y-6858000D02*
G75*
G02*
X11193550Y-6858000I-44450J0D01*
G01*
X11193550Y-6858000D02*
G75*
G02*
X11282450Y-6858000I44450J0D01*
G01*
X11282450Y-7112000D02*
G75*
G02*
X11193550Y-7112000I-44450J0D01*
G01*
X11193550Y-7112000D02*
G75*
G02*
X11282450Y-7112000I44450J0D01*
G01*
X12806450Y-5588000D02*
G75*
G02*
X12717550Y-5588000I-44450J0D01*
G01*
X12717550Y-5588000D02*
G75*
G02*
X12806450Y-5588000I44450J0D01*
G01*
X12806450Y-5842000D02*
G75*
G02*
X12717550Y-5842000I-44450J0D01*
G01*
X12717550Y-5842000D02*
G75*
G02*
X12806450Y-5842000I44450J0D01*
G01*
X12806450Y-6096000D02*
G75*
G02*
X12717550Y-6096000I-44450J0D01*
G01*
X12717550Y-6096000D02*
G75*
G02*
X12806450Y-6096000I44450J0D01*
G01*
X12806450Y-6350000D02*
G75*
G02*
X12717550Y-6350000I-44450J0D01*
G01*
X12717550Y-6350000D02*
G75*
G02*
X12806450Y-6350000I44450J0D01*
G01*
X12806450Y-6604000D02*
G75*
G02*
X12717550Y-6604000I-44450J0D01*
G01*
X12717550Y-6604000D02*
G75*
G02*
X12806450Y-6604000I44450J0D01*
G01*
X12806450Y-6858000D02*
G75*
G02*
X12717550Y-6858000I-44450J0D01*
G01*
X12717550Y-6858000D02*
G75*
G02*
X12806450Y-6858000I44450J0D01*
G01*
X12806450Y-7112000D02*
G75*
G02*
X12717550Y-7112000I-44450J0D01*
G01*
X12717550Y-7112000D02*
G75*
G02*
X12806450Y-7112000I44450J0D01*
G01*
X13788500Y-6882500D02*
X13788500Y-6982500D01*
X13738500Y-6932500D02*
X13838500Y-6932500D01*
X13788500Y-7136500D02*
X13788500Y-7236500D01*
X13738500Y-7186500D02*
X13838500Y-7186500D01*
X13788500Y-7390500D02*
X13788500Y-7490500D01*
X13738500Y-7440500D02*
X13838500Y-7440500D01*
X13788500Y-7644500D02*
X13788500Y-7744500D01*
X13738500Y-7694500D02*
X13838500Y-7694500D01*
X18050000Y-6925000D02*
X18050000Y-7025000D01*
X18000000Y-6975000D02*
X18100000Y-6975000D01*
X18050000Y-7175000D02*
X18050000Y-7275000D01*
X18000000Y-7225000D02*
X18100000Y-7225000D01*
X18050000Y-7425000D02*
X18050000Y-7525000D01*
X18000000Y-7475000D02*
X18100000Y-7475000D01*
X19500000Y-6925000D02*
X19500000Y-7025000D01*
X19450000Y-6975000D02*
X19550000Y-6975000D01*
X19500000Y-7425000D02*
X19500000Y-7525000D01*
X19450000Y-7475000D02*
X19550000Y-7475000D01*
D14*
X11233498Y-11349498D02*
X11233498Y-11250502D01*
X11134502Y-11250502D01*
X11134502Y-11349498D01*
X11233498Y-11349498D01*
X11233498Y-12099498D02*
X11233498Y-12000502D01*
X11134502Y-12000502D01*
X11134502Y-12099498D01*
X11233498Y-12099498D01*
X11241498Y-10599498D02*
X11241498Y-10500502D01*
X11142502Y-10500502D01*
X11142502Y-10599498D01*
X11241498Y-10599498D01*
X11741498Y-11349498D02*
X11741498Y-11250502D01*
X11642502Y-11250502D01*
X11642502Y-11349498D01*
X11741498Y-11349498D01*
X11741498Y-12099498D02*
X11741498Y-12000502D01*
X11642502Y-12000502D01*
X11642502Y-12099498D01*
X11741498Y-12099498D01*
X11749498Y-10599498D02*
X11749498Y-10500502D01*
X11650502Y-10500502D01*
X11650502Y-10599498D01*
X11749498Y-10599498D01*
X12233498Y-11349498D02*
X12233498Y-11250502D01*
X12134502Y-11250502D01*
X12134502Y-11349498D01*
X12233498Y-11349498D01*
X12233498Y-12099498D02*
X12233498Y-12000502D01*
X12134502Y-12000502D01*
X12134502Y-12099498D01*
X12233498Y-12099498D01*
X12249498Y-10599498D02*
X12249498Y-10500502D01*
X12150502Y-10500502D01*
X12150502Y-10599498D01*
X12249498Y-10599498D01*
X12741498Y-11349498D02*
X12741498Y-11250502D01*
X12642502Y-11250502D01*
X12642502Y-11349498D01*
X12741498Y-11349498D01*
X12741498Y-12099498D02*
X12741498Y-12000502D01*
X12642502Y-12000502D01*
X12642502Y-12099498D01*
X12741498Y-12099498D01*
X12757498Y-10599498D02*
X12757498Y-10500502D01*
X12658502Y-10500502D01*
X12658502Y-10599498D01*
X12757498Y-10599498D01*
X13233498Y-12099498D02*
X13233498Y-12000502D01*
X13134502Y-12000502D01*
X13134502Y-12099498D01*
X13233498Y-12099498D01*
X13241498Y-10599498D02*
X13241498Y-10500502D01*
X13142502Y-10500502D01*
X13142502Y-10599498D01*
X13241498Y-10599498D01*
X13241498Y-11349498D02*
X13241498Y-11250502D01*
X13142502Y-11250502D01*
X13142502Y-11349498D01*
X13241498Y-11349498D01*
X13741498Y-12099498D02*
X13741498Y-12000502D01*
X13642502Y-12000502D01*
X13642502Y-12099498D01*
X13741498Y-12099498D01*
X13749498Y-10599498D02*
X13749498Y-10500502D01*
X13650502Y-10500502D01*
X13650502Y-10599498D01*
X13749498Y-10599498D01*
X13749498Y-11349498D02*
X13749498Y-11250502D01*
X13650502Y-11250502D01*
X13650502Y-11349498D01*
X13749498Y-11349498D01*
D15*
X14672000Y-9061000D02*
X14747000Y-8986000D01*
X14672000Y-8911000D01*
X14597000Y-8986000D01*
X14672000Y-9061000D01*
X14672000Y-10966000D02*
X14747000Y-10891000D01*
X14672000Y-10816000D01*
X14597000Y-10891000D01*
X14672000Y-10966000D01*
X14672000Y-12871000D02*
X14747000Y-12796000D01*
X14672000Y-12721000D01*
X14597000Y-12796000D01*
X14672000Y-12871000D01*
X15307000Y-8807000D02*
X15382000Y-8732000D01*
X15307000Y-8657000D01*
X15232000Y-8732000D01*
X15307000Y-8807000D01*
X15307000Y-10712000D02*
X15382000Y-10637000D01*
X15307000Y-10562000D01*
X15232000Y-10637000D01*
X15307000Y-10712000D01*
X15307000Y-12617000D02*
X15382000Y-12542000D01*
X15307000Y-12467000D01*
X15232000Y-12542000D01*
X15307000Y-12617000D01*
X16577000Y-9061000D02*
X16652000Y-8986000D01*
X16577000Y-8911000D01*
X16502000Y-8986000D01*
X16577000Y-9061000D01*
X16577000Y-10966000D02*
X16652000Y-10891000D01*
X16577000Y-10816000D01*
X16502000Y-10891000D01*
X16577000Y-10966000D01*
X16577000Y-12871000D02*
X16652000Y-12796000D01*
X16577000Y-12721000D01*
X16502000Y-12796000D01*
X16577000Y-12871000D01*
X17212000Y-8807000D02*
X17287000Y-8732000D01*
X17212000Y-8657000D01*
X17137000Y-8732000D01*
X17212000Y-8807000D01*
X17212000Y-10712000D02*
X17287000Y-10637000D01*
X17212000Y-10562000D01*
X17137000Y-10637000D01*
X17212000Y-10712000D01*
X17212000Y-12617000D02*
X17287000Y-12542000D01*
X17212000Y-12467000D01*
X17137000Y-12542000D01*
X17212000Y-12617000D01*
X18482000Y-9061000D02*
X18557000Y-8986000D01*
X18482000Y-8911000D01*
X18407000Y-8986000D01*
X18482000Y-9061000D01*
X18482000Y-10966000D02*
X18557000Y-10891000D01*
X18482000Y-10816000D01*
X18407000Y-10891000D01*
X18482000Y-10966000D01*
X18482000Y-12871000D02*
X18557000Y-12796000D01*
X18482000Y-12721000D01*
X18407000Y-12796000D01*
X18482000Y-12871000D01*
X18800000Y-6740000D02*
X18875000Y-6665000D01*
X18800000Y-6590000D01*
X18725000Y-6665000D01*
X18800000Y-6740000D01*
D13*
X18735000Y-6740000D02*
X18865000Y-6740000D01*
X18865000Y-6590000D02*
G75*
G02*
X18865000Y-6740000I0J-75000D01*
G01*
X18865000Y-6590000D02*
X18735000Y-6590000D01*
X18735000Y-6590000D02*
G75*
G03*
X18735000Y-6740000I0J-75000D01*
G01*
D15*
X18800000Y-7860000D02*
X18875000Y-7785000D01*
X18800000Y-7710000D01*
X18725000Y-7785000D01*
X18800000Y-7860000D01*
D13*
X18735000Y-7860000D02*
X18865000Y-7860000D01*
X18865000Y-7710000D02*
G75*
G02*
X18865000Y-7860000I0J-75000D01*
G01*
X18865000Y-7710000D02*
X18735000Y-7710000D01*
X18735000Y-7710000D02*
G75*
G03*
X18735000Y-7860000I0J-75000D01*
G01*
D15*
X19117000Y-8807000D02*
X19192000Y-8732000D01*
X19117000Y-8657000D01*
X19042000Y-8732000D01*
X19117000Y-8807000D01*
X19117000Y-10712000D02*
X19192000Y-10637000D01*
X19117000Y-10562000D01*
X19042000Y-10637000D01*
X19117000Y-10712000D01*
X19117000Y-12617000D02*
X19192000Y-12542000D01*
X19117000Y-12467000D01*
X19042000Y-12542000D01*
X19117000Y-12617000D01*
D12*
X11033277Y-14613984D02*
X11033277Y-14413984D01*
X11033277Y-14413984D02*
X11080896Y-14413984D01*
X11080896Y-14413984D02*
X11109467Y-14423508D01*
X11109467Y-14423508D02*
X11128515Y-14442555D01*
X11128515Y-14442555D02*
X11138039Y-14461603D01*
X11138039Y-14461603D02*
X11147563Y-14499698D01*
X11147563Y-14499698D02*
X11147563Y-14528269D01*
X11147563Y-14528269D02*
X11138039Y-14566365D01*
X11138039Y-14566365D02*
X11128515Y-14585412D01*
X11128515Y-14585412D02*
X11109467Y-14604460D01*
X11109467Y-14604460D02*
X11080896Y-14613984D01*
X11080896Y-14613984D02*
X11033277Y-14613984D01*
X11233277Y-14613984D02*
X11233277Y-14480650D01*
X11233277Y-14518746D02*
X11242801Y-14499698D01*
X11242801Y-14499698D02*
X11252324Y-14490174D01*
X11252324Y-14490174D02*
X11271372Y-14480650D01*
X11271372Y-14480650D02*
X11290420Y-14480650D01*
X11357086Y-14613984D02*
X11357086Y-14480650D01*
X11357086Y-14413984D02*
X11347562Y-14423508D01*
X11347562Y-14423508D02*
X11357086Y-14433031D01*
X11357086Y-14433031D02*
X11366610Y-14423508D01*
X11366610Y-14423508D02*
X11357086Y-14413984D01*
X11357086Y-14413984D02*
X11357086Y-14433031D01*
X11480896Y-14613984D02*
X11461848Y-14604460D01*
X11461848Y-14604460D02*
X11452324Y-14585412D01*
X11452324Y-14585412D02*
X11452324Y-14413984D01*
X11585658Y-14613984D02*
X11566610Y-14604460D01*
X11566610Y-14604460D02*
X11557086Y-14585412D01*
X11557086Y-14585412D02*
X11557086Y-14413984D01*
X11814229Y-14613984D02*
X11814229Y-14413984D01*
X11814229Y-14413984D02*
X11880896Y-14556841D01*
X11880896Y-14556841D02*
X11947562Y-14413984D01*
X11947562Y-14413984D02*
X11947562Y-14613984D01*
X12128515Y-14613984D02*
X12128515Y-14509222D01*
X12128515Y-14509222D02*
X12118991Y-14490174D01*
X12118991Y-14490174D02*
X12099943Y-14480650D01*
X12099943Y-14480650D02*
X12061848Y-14480650D01*
X12061848Y-14480650D02*
X12042801Y-14490174D01*
X12128515Y-14604460D02*
X12109467Y-14613984D01*
X12109467Y-14613984D02*
X12061848Y-14613984D01*
X12061848Y-14613984D02*
X12042801Y-14604460D01*
X12042801Y-14604460D02*
X12033277Y-14585412D01*
X12033277Y-14585412D02*
X12033277Y-14566365D01*
X12033277Y-14566365D02*
X12042801Y-14547317D01*
X12042801Y-14547317D02*
X12061848Y-14537793D01*
X12061848Y-14537793D02*
X12109467Y-14537793D01*
X12109467Y-14537793D02*
X12128515Y-14528269D01*
X12223753Y-14480650D02*
X12223753Y-14680650D01*
X12223753Y-14490174D02*
X12242801Y-14480650D01*
X12242801Y-14480650D02*
X12280896Y-14480650D01*
X12280896Y-14480650D02*
X12299943Y-14490174D01*
X12299943Y-14490174D02*
X12309467Y-14499698D01*
X12309467Y-14499698D02*
X12318991Y-14518746D01*
X12318991Y-14518746D02*
X12318991Y-14575888D01*
X12318991Y-14575888D02*
X12309467Y-14594936D01*
X12309467Y-14594936D02*
X12299943Y-14604460D01*
X12299943Y-14604460D02*
X12280896Y-14613984D01*
X12280896Y-14613984D02*
X12242801Y-14613984D01*
X12242801Y-14613984D02*
X12223753Y-14604460D01*
X12404705Y-14594936D02*
X12414229Y-14604460D01*
X12414229Y-14604460D02*
X12404705Y-14613984D01*
X12404705Y-14613984D02*
X12395182Y-14604460D01*
X12395182Y-14604460D02*
X12404705Y-14594936D01*
X12404705Y-14594936D02*
X12404705Y-14613984D01*
X12404705Y-14490174D02*
X12414229Y-14499698D01*
X12414229Y-14499698D02*
X12404705Y-14509222D01*
X12404705Y-14509222D02*
X12395182Y-14499698D01*
X12395182Y-14499698D02*
X12404705Y-14490174D01*
X12404705Y-14490174D02*
X12404705Y-14509222D01*
D13*
X10742500Y-14927500D02*
X10772500Y-14957500D01*
X10772500Y-14927500D02*
X10742500Y-14957500D01*
D12*
X11071372Y-14833984D02*
X11090420Y-14833984D01*
X11090420Y-14833984D02*
X11109467Y-14843508D01*
X11109467Y-14843508D02*
X11118991Y-14853031D01*
X11118991Y-14853031D02*
X11128515Y-14872079D01*
X11128515Y-14872079D02*
X11138039Y-14910174D01*
X11138039Y-14910174D02*
X11138039Y-14957793D01*
X11138039Y-14957793D02*
X11128515Y-14995888D01*
X11128515Y-14995888D02*
X11118991Y-15014936D01*
X11118991Y-15014936D02*
X11109467Y-15024460D01*
X11109467Y-15024460D02*
X11090420Y-15033984D01*
X11090420Y-15033984D02*
X11071372Y-15033984D01*
X11071372Y-15033984D02*
X11052324Y-15024460D01*
X11052324Y-15024460D02*
X11042801Y-15014936D01*
X11042801Y-15014936D02*
X11033277Y-14995888D01*
X11033277Y-14995888D02*
X11023753Y-14957793D01*
X11023753Y-14957793D02*
X11023753Y-14910174D01*
X11023753Y-14910174D02*
X11033277Y-14872079D01*
X11033277Y-14872079D02*
X11042801Y-14853031D01*
X11042801Y-14853031D02*
X11052324Y-14843508D01*
X11052324Y-14843508D02*
X11071372Y-14833984D01*
X11223753Y-15014936D02*
X11233277Y-15024460D01*
X11233277Y-15024460D02*
X11223753Y-15033984D01*
X11223753Y-15033984D02*
X11214229Y-15024460D01*
X11214229Y-15024460D02*
X11223753Y-15014936D01*
X11223753Y-15014936D02*
X11223753Y-15033984D01*
X11299943Y-14833984D02*
X11423753Y-14833984D01*
X11423753Y-14833984D02*
X11357086Y-14910174D01*
X11357086Y-14910174D02*
X11385658Y-14910174D01*
X11385658Y-14910174D02*
X11404705Y-14919698D01*
X11404705Y-14919698D02*
X11414229Y-14929222D01*
X11414229Y-14929222D02*
X11423753Y-14948269D01*
X11423753Y-14948269D02*
X11423753Y-14995888D01*
X11423753Y-14995888D02*
X11414229Y-15014936D01*
X11414229Y-15014936D02*
X11404705Y-15024460D01*
X11404705Y-15024460D02*
X11385658Y-15033984D01*
X11385658Y-15033984D02*
X11328515Y-15033984D01*
X11328515Y-15033984D02*
X11309467Y-15024460D01*
X11309467Y-15024460D02*
X11299943Y-15014936D01*
X11547562Y-14833984D02*
X11566610Y-14833984D01*
X11566610Y-14833984D02*
X11585658Y-14843508D01*
X11585658Y-14843508D02*
X11595182Y-14853031D01*
X11595182Y-14853031D02*
X11604705Y-14872079D01*
X11604705Y-14872079D02*
X11614229Y-14910174D01*
X11614229Y-14910174D02*
X11614229Y-14957793D01*
X11614229Y-14957793D02*
X11604705Y-14995888D01*
X11604705Y-14995888D02*
X11595182Y-15014936D01*
X11595182Y-15014936D02*
X11585658Y-15024460D01*
X11585658Y-15024460D02*
X11566610Y-15033984D01*
X11566610Y-15033984D02*
X11547562Y-15033984D01*
X11547562Y-15033984D02*
X11528515Y-15024460D01*
X11528515Y-15024460D02*
X11518991Y-15014936D01*
X11518991Y-15014936D02*
X11509467Y-14995888D01*
X11509467Y-14995888D02*
X11499943Y-14957793D01*
X11499943Y-14957793D02*
X11499943Y-14910174D01*
X11499943Y-14910174D02*
X11509467Y-14872079D01*
X11509467Y-14872079D02*
X11518991Y-14853031D01*
X11518991Y-14853031D02*
X11528515Y-14843508D01*
X11528515Y-14843508D02*
X11547562Y-14833984D01*
X11738039Y-14833984D02*
X11757086Y-14833984D01*
X11757086Y-14833984D02*
X11776134Y-14843508D01*
X11776134Y-14843508D02*
X11785658Y-14853031D01*
X11785658Y-14853031D02*
X11795182Y-14872079D01*
X11795182Y-14872079D02*
X11804705Y-14910174D01*
X11804705Y-14910174D02*
X11804705Y-14957793D01*
X11804705Y-14957793D02*
X11795182Y-14995888D01*
X11795182Y-14995888D02*
X11785658Y-15014936D01*
X11785658Y-15014936D02*
X11776134Y-15024460D01*
X11776134Y-15024460D02*
X11757086Y-15033984D01*
X11757086Y-15033984D02*
X11738039Y-15033984D01*
X11738039Y-15033984D02*
X11718991Y-15024460D01*
X11718991Y-15024460D02*
X11709467Y-15014936D01*
X11709467Y-15014936D02*
X11699943Y-14995888D01*
X11699943Y-14995888D02*
X11690420Y-14957793D01*
X11690420Y-14957793D02*
X11690420Y-14910174D01*
X11690420Y-14910174D02*
X11699943Y-14872079D01*
X11699943Y-14872079D02*
X11709467Y-14853031D01*
X11709467Y-14853031D02*
X11718991Y-14843508D01*
X11718991Y-14843508D02*
X11738039Y-14833984D01*
X11890420Y-15033984D02*
X11890420Y-14900650D01*
X11890420Y-14919698D02*
X11899943Y-14910174D01*
X11899943Y-14910174D02*
X11918991Y-14900650D01*
X11918991Y-14900650D02*
X11947563Y-14900650D01*
X11947563Y-14900650D02*
X11966610Y-14910174D01*
X11966610Y-14910174D02*
X11976134Y-14929222D01*
X11976134Y-14929222D02*
X11976134Y-15033984D01*
X11976134Y-14929222D02*
X11985658Y-14910174D01*
X11985658Y-14910174D02*
X12004705Y-14900650D01*
X12004705Y-14900650D02*
X12033277Y-14900650D01*
X12033277Y-14900650D02*
X12052324Y-14910174D01*
X12052324Y-14910174D02*
X12061848Y-14929222D01*
X12061848Y-14929222D02*
X12061848Y-15033984D01*
X12157086Y-15033984D02*
X12157086Y-14900650D01*
X12157086Y-14919698D02*
X12166610Y-14910174D01*
X12166610Y-14910174D02*
X12185658Y-14900650D01*
X12185658Y-14900650D02*
X12214229Y-14900650D01*
X12214229Y-14900650D02*
X12233277Y-14910174D01*
X12233277Y-14910174D02*
X12242801Y-14929222D01*
X12242801Y-14929222D02*
X12242801Y-15033984D01*
X12242801Y-14929222D02*
X12252324Y-14910174D01*
X12252324Y-14910174D02*
X12271372Y-14900650D01*
X12271372Y-14900650D02*
X12299943Y-14900650D01*
X12299943Y-14900650D02*
X12318991Y-14910174D01*
X12318991Y-14910174D02*
X12328515Y-14929222D01*
X12328515Y-14929222D02*
X12328515Y-15033984D01*
X12718991Y-14824460D02*
X12547563Y-15081603D01*
X12976134Y-14833984D02*
X12995182Y-14833984D01*
X12995182Y-14833984D02*
X13014229Y-14843508D01*
X13014229Y-14843508D02*
X13023753Y-14853031D01*
X13023753Y-14853031D02*
X13033277Y-14872079D01*
X13033277Y-14872079D02*
X13042801Y-14910174D01*
X13042801Y-14910174D02*
X13042801Y-14957793D01*
X13042801Y-14957793D02*
X13033277Y-14995888D01*
X13033277Y-14995888D02*
X13023753Y-15014936D01*
X13023753Y-15014936D02*
X13014229Y-15024460D01*
X13014229Y-15024460D02*
X12995182Y-15033984D01*
X12995182Y-15033984D02*
X12976134Y-15033984D01*
X12976134Y-15033984D02*
X12957086Y-15024460D01*
X12957086Y-15024460D02*
X12947563Y-15014936D01*
X12947563Y-15014936D02*
X12938039Y-14995888D01*
X12938039Y-14995888D02*
X12928515Y-14957793D01*
X12928515Y-14957793D02*
X12928515Y-14910174D01*
X12928515Y-14910174D02*
X12938039Y-14872079D01*
X12938039Y-14872079D02*
X12947563Y-14853031D01*
X12947563Y-14853031D02*
X12957086Y-14843508D01*
X12957086Y-14843508D02*
X12976134Y-14833984D01*
X13128515Y-15014936D02*
X13138039Y-15024460D01*
X13138039Y-15024460D02*
X13128515Y-15033984D01*
X13128515Y-15033984D02*
X13118991Y-15024460D01*
X13118991Y-15024460D02*
X13128515Y-15014936D01*
X13128515Y-15014936D02*
X13128515Y-15033984D01*
X13261848Y-14833984D02*
X13280896Y-14833984D01*
X13280896Y-14833984D02*
X13299944Y-14843508D01*
X13299944Y-14843508D02*
X13309467Y-14853031D01*
X13309467Y-14853031D02*
X13318991Y-14872079D01*
X13318991Y-14872079D02*
X13328515Y-14910174D01*
X13328515Y-14910174D02*
X13328515Y-14957793D01*
X13328515Y-14957793D02*
X13318991Y-14995888D01*
X13318991Y-14995888D02*
X13309467Y-15014936D01*
X13309467Y-15014936D02*
X13299944Y-15024460D01*
X13299944Y-15024460D02*
X13280896Y-15033984D01*
X13280896Y-15033984D02*
X13261848Y-15033984D01*
X13261848Y-15033984D02*
X13242801Y-15024460D01*
X13242801Y-15024460D02*
X13233277Y-15014936D01*
X13233277Y-15014936D02*
X13223753Y-14995888D01*
X13223753Y-14995888D02*
X13214229Y-14957793D01*
X13214229Y-14957793D02*
X13214229Y-14910174D01*
X13214229Y-14910174D02*
X13223753Y-14872079D01*
X13223753Y-14872079D02*
X13233277Y-14853031D01*
X13233277Y-14853031D02*
X13242801Y-14843508D01*
X13242801Y-14843508D02*
X13261848Y-14833984D01*
X13518991Y-15033984D02*
X13404706Y-15033984D01*
X13461848Y-15033984D02*
X13461848Y-14833984D01*
X13461848Y-14833984D02*
X13442801Y-14862555D01*
X13442801Y-14862555D02*
X13423753Y-14881603D01*
X13423753Y-14881603D02*
X13404706Y-14891127D01*
X13709467Y-15033984D02*
X13595182Y-15033984D01*
X13652325Y-15033984D02*
X13652325Y-14833984D01*
X13652325Y-14833984D02*
X13633277Y-14862555D01*
X13633277Y-14862555D02*
X13614229Y-14881603D01*
X13614229Y-14881603D02*
X13595182Y-14891127D01*
X13823753Y-14919698D02*
X13804706Y-14910174D01*
X13804706Y-14910174D02*
X13795182Y-14900650D01*
X13795182Y-14900650D02*
X13785658Y-14881603D01*
X13785658Y-14881603D02*
X13785658Y-14872079D01*
X13785658Y-14872079D02*
X13795182Y-14853031D01*
X13795182Y-14853031D02*
X13804706Y-14843508D01*
X13804706Y-14843508D02*
X13823753Y-14833984D01*
X13823753Y-14833984D02*
X13861848Y-14833984D01*
X13861848Y-14833984D02*
X13880896Y-14843508D01*
X13880896Y-14843508D02*
X13890420Y-14853031D01*
X13890420Y-14853031D02*
X13899944Y-14872079D01*
X13899944Y-14872079D02*
X13899944Y-14881603D01*
X13899944Y-14881603D02*
X13890420Y-14900650D01*
X13890420Y-14900650D02*
X13880896Y-14910174D01*
X13880896Y-14910174D02*
X13861848Y-14919698D01*
X13861848Y-14919698D02*
X13823753Y-14919698D01*
X13823753Y-14919698D02*
X13804706Y-14929222D01*
X13804706Y-14929222D02*
X13795182Y-14938746D01*
X13795182Y-14938746D02*
X13785658Y-14957793D01*
X13785658Y-14957793D02*
X13785658Y-14995888D01*
X13785658Y-14995888D02*
X13795182Y-15014936D01*
X13795182Y-15014936D02*
X13804706Y-15024460D01*
X13804706Y-15024460D02*
X13823753Y-15033984D01*
X13823753Y-15033984D02*
X13861848Y-15033984D01*
X13861848Y-15033984D02*
X13880896Y-15024460D01*
X13880896Y-15024460D02*
X13890420Y-15014936D01*
X13890420Y-15014936D02*
X13899944Y-14995888D01*
X13899944Y-14995888D02*
X13899944Y-14957793D01*
X13899944Y-14957793D02*
X13890420Y-14938746D01*
X13890420Y-14938746D02*
X13880896Y-14929222D01*
X13880896Y-14929222D02*
X13861848Y-14919698D01*
X13976134Y-14833984D02*
X13976134Y-14872079D01*
X14052325Y-14833984D02*
X14052325Y-14872079D01*
X14347563Y-15110174D02*
X14338039Y-15100650D01*
X14338039Y-15100650D02*
X14318991Y-15072079D01*
X14318991Y-15072079D02*
X14309468Y-15053031D01*
X14309468Y-15053031D02*
X14299944Y-15024460D01*
X14299944Y-15024460D02*
X14290420Y-14976841D01*
X14290420Y-14976841D02*
X14290420Y-14938746D01*
X14290420Y-14938746D02*
X14299944Y-14891127D01*
X14299944Y-14891127D02*
X14309468Y-14862555D01*
X14309468Y-14862555D02*
X14318991Y-14843508D01*
X14318991Y-14843508D02*
X14338039Y-14814936D01*
X14338039Y-14814936D02*
X14347563Y-14805412D01*
X14433277Y-15033984D02*
X14471372Y-15033984D01*
X14471372Y-15033984D02*
X14490420Y-15024460D01*
X14490420Y-15024460D02*
X14499944Y-15014936D01*
X14499944Y-15014936D02*
X14518991Y-14986365D01*
X14518991Y-14986365D02*
X14528515Y-14948269D01*
X14528515Y-14948269D02*
X14528515Y-14872079D01*
X14528515Y-14872079D02*
X14518991Y-14853031D01*
X14518991Y-14853031D02*
X14509468Y-14843508D01*
X14509468Y-14843508D02*
X14490420Y-14833984D01*
X14490420Y-14833984D02*
X14452325Y-14833984D01*
X14452325Y-14833984D02*
X14433277Y-14843508D01*
X14433277Y-14843508D02*
X14423753Y-14853031D01*
X14423753Y-14853031D02*
X14414229Y-14872079D01*
X14414229Y-14872079D02*
X14414229Y-14919698D01*
X14414229Y-14919698D02*
X14423753Y-14938746D01*
X14423753Y-14938746D02*
X14433277Y-14948269D01*
X14433277Y-14948269D02*
X14452325Y-14957793D01*
X14452325Y-14957793D02*
X14490420Y-14957793D01*
X14490420Y-14957793D02*
X14509468Y-14948269D01*
X14509468Y-14948269D02*
X14518991Y-14938746D01*
X14518991Y-14938746D02*
X14528515Y-14919698D01*
X14766610Y-15033984D02*
X14766610Y-14833984D01*
X14852325Y-15033984D02*
X14852325Y-14929222D01*
X14852325Y-14929222D02*
X14842801Y-14910174D01*
X14842801Y-14910174D02*
X14823753Y-14900650D01*
X14823753Y-14900650D02*
X14795182Y-14900650D01*
X14795182Y-14900650D02*
X14776134Y-14910174D01*
X14776134Y-14910174D02*
X14766610Y-14919698D01*
X14976134Y-15033984D02*
X14957087Y-15024460D01*
X14957087Y-15024460D02*
X14947563Y-15014936D01*
X14947563Y-15014936D02*
X14938039Y-14995888D01*
X14938039Y-14995888D02*
X14938039Y-14938746D01*
X14938039Y-14938746D02*
X14947563Y-14919698D01*
X14947563Y-14919698D02*
X14957087Y-14910174D01*
X14957087Y-14910174D02*
X14976134Y-14900650D01*
X14976134Y-14900650D02*
X15004706Y-14900650D01*
X15004706Y-14900650D02*
X15023753Y-14910174D01*
X15023753Y-14910174D02*
X15033277Y-14919698D01*
X15033277Y-14919698D02*
X15042801Y-14938746D01*
X15042801Y-14938746D02*
X15042801Y-14995888D01*
X15042801Y-14995888D02*
X15033277Y-15014936D01*
X15033277Y-15014936D02*
X15023753Y-15024460D01*
X15023753Y-15024460D02*
X15004706Y-15033984D01*
X15004706Y-15033984D02*
X14976134Y-15033984D01*
X15157087Y-15033984D02*
X15138039Y-15024460D01*
X15138039Y-15024460D02*
X15128515Y-15005412D01*
X15128515Y-15005412D02*
X15128515Y-14833984D01*
X15309468Y-15024460D02*
X15290420Y-15033984D01*
X15290420Y-15033984D02*
X15252325Y-15033984D01*
X15252325Y-15033984D02*
X15233277Y-15024460D01*
X15233277Y-15024460D02*
X15223753Y-15005412D01*
X15223753Y-15005412D02*
X15223753Y-14929222D01*
X15223753Y-14929222D02*
X15233277Y-14910174D01*
X15233277Y-14910174D02*
X15252325Y-14900650D01*
X15252325Y-14900650D02*
X15290420Y-14900650D01*
X15290420Y-14900650D02*
X15309468Y-14910174D01*
X15309468Y-14910174D02*
X15318991Y-14929222D01*
X15318991Y-14929222D02*
X15318991Y-14948269D01*
X15318991Y-14948269D02*
X15223753Y-14967317D01*
X15395182Y-15024460D02*
X15414230Y-15033984D01*
X15414230Y-15033984D02*
X15452325Y-15033984D01*
X15452325Y-15033984D02*
X15471372Y-15024460D01*
X15471372Y-15024460D02*
X15480896Y-15005412D01*
X15480896Y-15005412D02*
X15480896Y-14995888D01*
X15480896Y-14995888D02*
X15471372Y-14976841D01*
X15471372Y-14976841D02*
X15452325Y-14967317D01*
X15452325Y-14967317D02*
X15423753Y-14967317D01*
X15423753Y-14967317D02*
X15404706Y-14957793D01*
X15404706Y-14957793D02*
X15395182Y-14938746D01*
X15395182Y-14938746D02*
X15395182Y-14929222D01*
X15395182Y-14929222D02*
X15404706Y-14910174D01*
X15404706Y-14910174D02*
X15423753Y-14900650D01*
X15423753Y-14900650D02*
X15452325Y-14900650D01*
X15452325Y-14900650D02*
X15471372Y-14910174D01*
X15547563Y-15110174D02*
X15557087Y-15100650D01*
X15557087Y-15100650D02*
X15576134Y-15072079D01*
X15576134Y-15072079D02*
X15585658Y-15053031D01*
X15585658Y-15053031D02*
X15595182Y-15024460D01*
X15595182Y-15024460D02*
X15604706Y-14976841D01*
X15604706Y-14976841D02*
X15604706Y-14938746D01*
X15604706Y-14938746D02*
X15595182Y-14891127D01*
X15595182Y-14891127D02*
X15585658Y-14862555D01*
X15585658Y-14862555D02*
X15576134Y-14843508D01*
X15576134Y-14843508D02*
X15557087Y-14814936D01*
X15557087Y-14814936D02*
X15547563Y-14805412D01*
D13*
X10772500Y-15206500D02*
G75*
G02*
X10683600Y-15206500I-44450J0D01*
G01*
X10683600Y-15206500D02*
G75*
G02*
X10772500Y-15206500I44450J0D01*
G01*
D12*
X11071372Y-15097984D02*
X11090420Y-15097984D01*
X11090420Y-15097984D02*
X11109467Y-15107508D01*
X11109467Y-15107508D02*
X11118991Y-15117031D01*
X11118991Y-15117031D02*
X11128515Y-15136079D01*
X11128515Y-15136079D02*
X11138039Y-15174174D01*
X11138039Y-15174174D02*
X11138039Y-15221793D01*
X11138039Y-15221793D02*
X11128515Y-15259888D01*
X11128515Y-15259888D02*
X11118991Y-15278936D01*
X11118991Y-15278936D02*
X11109467Y-15288460D01*
X11109467Y-15288460D02*
X11090420Y-15297984D01*
X11090420Y-15297984D02*
X11071372Y-15297984D01*
X11071372Y-15297984D02*
X11052324Y-15288460D01*
X11052324Y-15288460D02*
X11042801Y-15278936D01*
X11042801Y-15278936D02*
X11033277Y-15259888D01*
X11033277Y-15259888D02*
X11023753Y-15221793D01*
X11023753Y-15221793D02*
X11023753Y-15174174D01*
X11023753Y-15174174D02*
X11033277Y-15136079D01*
X11033277Y-15136079D02*
X11042801Y-15117031D01*
X11042801Y-15117031D02*
X11052324Y-15107508D01*
X11052324Y-15107508D02*
X11071372Y-15097984D01*
X11223753Y-15278936D02*
X11233277Y-15288460D01*
X11233277Y-15288460D02*
X11223753Y-15297984D01*
X11223753Y-15297984D02*
X11214229Y-15288460D01*
X11214229Y-15288460D02*
X11223753Y-15278936D01*
X11223753Y-15278936D02*
X11223753Y-15297984D01*
X11347562Y-15183698D02*
X11328515Y-15174174D01*
X11328515Y-15174174D02*
X11318991Y-15164650D01*
X11318991Y-15164650D02*
X11309467Y-15145603D01*
X11309467Y-15145603D02*
X11309467Y-15136079D01*
X11309467Y-15136079D02*
X11318991Y-15117031D01*
X11318991Y-15117031D02*
X11328515Y-15107508D01*
X11328515Y-15107508D02*
X11347562Y-15097984D01*
X11347562Y-15097984D02*
X11385658Y-15097984D01*
X11385658Y-15097984D02*
X11404705Y-15107508D01*
X11404705Y-15107508D02*
X11414229Y-15117031D01*
X11414229Y-15117031D02*
X11423753Y-15136079D01*
X11423753Y-15136079D02*
X11423753Y-15145603D01*
X11423753Y-15145603D02*
X11414229Y-15164650D01*
X11414229Y-15164650D02*
X11404705Y-15174174D01*
X11404705Y-15174174D02*
X11385658Y-15183698D01*
X11385658Y-15183698D02*
X11347562Y-15183698D01*
X11347562Y-15183698D02*
X11328515Y-15193222D01*
X11328515Y-15193222D02*
X11318991Y-15202746D01*
X11318991Y-15202746D02*
X11309467Y-15221793D01*
X11309467Y-15221793D02*
X11309467Y-15259888D01*
X11309467Y-15259888D02*
X11318991Y-15278936D01*
X11318991Y-15278936D02*
X11328515Y-15288460D01*
X11328515Y-15288460D02*
X11347562Y-15297984D01*
X11347562Y-15297984D02*
X11385658Y-15297984D01*
X11385658Y-15297984D02*
X11404705Y-15288460D01*
X11404705Y-15288460D02*
X11414229Y-15278936D01*
X11414229Y-15278936D02*
X11423753Y-15259888D01*
X11423753Y-15259888D02*
X11423753Y-15221793D01*
X11423753Y-15221793D02*
X11414229Y-15202746D01*
X11414229Y-15202746D02*
X11404705Y-15193222D01*
X11404705Y-15193222D02*
X11385658Y-15183698D01*
X11538039Y-15183698D02*
X11518991Y-15174174D01*
X11518991Y-15174174D02*
X11509467Y-15164650D01*
X11509467Y-15164650D02*
X11499943Y-15145603D01*
X11499943Y-15145603D02*
X11499943Y-15136079D01*
X11499943Y-15136079D02*
X11509467Y-15117031D01*
X11509467Y-15117031D02*
X11518991Y-15107508D01*
X11518991Y-15107508D02*
X11538039Y-15097984D01*
X11538039Y-15097984D02*
X11576134Y-15097984D01*
X11576134Y-15097984D02*
X11595182Y-15107508D01*
X11595182Y-15107508D02*
X11604705Y-15117031D01*
X11604705Y-15117031D02*
X11614229Y-15136079D01*
X11614229Y-15136079D02*
X11614229Y-15145603D01*
X11614229Y-15145603D02*
X11604705Y-15164650D01*
X11604705Y-15164650D02*
X11595182Y-15174174D01*
X11595182Y-15174174D02*
X11576134Y-15183698D01*
X11576134Y-15183698D02*
X11538039Y-15183698D01*
X11538039Y-15183698D02*
X11518991Y-15193222D01*
X11518991Y-15193222D02*
X11509467Y-15202746D01*
X11509467Y-15202746D02*
X11499943Y-15221793D01*
X11499943Y-15221793D02*
X11499943Y-15259888D01*
X11499943Y-15259888D02*
X11509467Y-15278936D01*
X11509467Y-15278936D02*
X11518991Y-15288460D01*
X11518991Y-15288460D02*
X11538039Y-15297984D01*
X11538039Y-15297984D02*
X11576134Y-15297984D01*
X11576134Y-15297984D02*
X11595182Y-15288460D01*
X11595182Y-15288460D02*
X11604705Y-15278936D01*
X11604705Y-15278936D02*
X11614229Y-15259888D01*
X11614229Y-15259888D02*
X11614229Y-15221793D01*
X11614229Y-15221793D02*
X11604705Y-15202746D01*
X11604705Y-15202746D02*
X11595182Y-15193222D01*
X11595182Y-15193222D02*
X11576134Y-15183698D01*
X11709467Y-15297984D02*
X11747562Y-15297984D01*
X11747562Y-15297984D02*
X11766610Y-15288460D01*
X11766610Y-15288460D02*
X11776134Y-15278936D01*
X11776134Y-15278936D02*
X11795182Y-15250365D01*
X11795182Y-15250365D02*
X11804705Y-15212269D01*
X11804705Y-15212269D02*
X11804705Y-15136079D01*
X11804705Y-15136079D02*
X11795182Y-15117031D01*
X11795182Y-15117031D02*
X11785658Y-15107508D01*
X11785658Y-15107508D02*
X11766610Y-15097984D01*
X11766610Y-15097984D02*
X11728515Y-15097984D01*
X11728515Y-15097984D02*
X11709467Y-15107508D01*
X11709467Y-15107508D02*
X11699943Y-15117031D01*
X11699943Y-15117031D02*
X11690420Y-15136079D01*
X11690420Y-15136079D02*
X11690420Y-15183698D01*
X11690420Y-15183698D02*
X11699943Y-15202746D01*
X11699943Y-15202746D02*
X11709467Y-15212269D01*
X11709467Y-15212269D02*
X11728515Y-15221793D01*
X11728515Y-15221793D02*
X11766610Y-15221793D01*
X11766610Y-15221793D02*
X11785658Y-15212269D01*
X11785658Y-15212269D02*
X11795182Y-15202746D01*
X11795182Y-15202746D02*
X11804705Y-15183698D01*
X11890420Y-15297984D02*
X11890420Y-15164650D01*
X11890420Y-15183698D02*
X11899943Y-15174174D01*
X11899943Y-15174174D02*
X11918991Y-15164650D01*
X11918991Y-15164650D02*
X11947563Y-15164650D01*
X11947563Y-15164650D02*
X11966610Y-15174174D01*
X11966610Y-15174174D02*
X11976134Y-15193222D01*
X11976134Y-15193222D02*
X11976134Y-15297984D01*
X11976134Y-15193222D02*
X11985658Y-15174174D01*
X11985658Y-15174174D02*
X12004705Y-15164650D01*
X12004705Y-15164650D02*
X12033277Y-15164650D01*
X12033277Y-15164650D02*
X12052324Y-15174174D01*
X12052324Y-15174174D02*
X12061848Y-15193222D01*
X12061848Y-15193222D02*
X12061848Y-15297984D01*
X12157086Y-15297984D02*
X12157086Y-15164650D01*
X12157086Y-15183698D02*
X12166610Y-15174174D01*
X12166610Y-15174174D02*
X12185658Y-15164650D01*
X12185658Y-15164650D02*
X12214229Y-15164650D01*
X12214229Y-15164650D02*
X12233277Y-15174174D01*
X12233277Y-15174174D02*
X12242801Y-15193222D01*
X12242801Y-15193222D02*
X12242801Y-15297984D01*
X12242801Y-15193222D02*
X12252324Y-15174174D01*
X12252324Y-15174174D02*
X12271372Y-15164650D01*
X12271372Y-15164650D02*
X12299943Y-15164650D01*
X12299943Y-15164650D02*
X12318991Y-15174174D01*
X12318991Y-15174174D02*
X12328515Y-15193222D01*
X12328515Y-15193222D02*
X12328515Y-15297984D01*
X12718991Y-15088460D02*
X12547563Y-15345603D01*
X12976134Y-15097984D02*
X12995182Y-15097984D01*
X12995182Y-15097984D02*
X13014229Y-15107508D01*
X13014229Y-15107508D02*
X13023753Y-15117031D01*
X13023753Y-15117031D02*
X13033277Y-15136079D01*
X13033277Y-15136079D02*
X13042801Y-15174174D01*
X13042801Y-15174174D02*
X13042801Y-15221793D01*
X13042801Y-15221793D02*
X13033277Y-15259888D01*
X13033277Y-15259888D02*
X13023753Y-15278936D01*
X13023753Y-15278936D02*
X13014229Y-15288460D01*
X13014229Y-15288460D02*
X12995182Y-15297984D01*
X12995182Y-15297984D02*
X12976134Y-15297984D01*
X12976134Y-15297984D02*
X12957086Y-15288460D01*
X12957086Y-15288460D02*
X12947563Y-15278936D01*
X12947563Y-15278936D02*
X12938039Y-15259888D01*
X12938039Y-15259888D02*
X12928515Y-15221793D01*
X12928515Y-15221793D02*
X12928515Y-15174174D01*
X12928515Y-15174174D02*
X12938039Y-15136079D01*
X12938039Y-15136079D02*
X12947563Y-15117031D01*
X12947563Y-15117031D02*
X12957086Y-15107508D01*
X12957086Y-15107508D02*
X12976134Y-15097984D01*
X13128515Y-15278936D02*
X13138039Y-15288460D01*
X13138039Y-15288460D02*
X13128515Y-15297984D01*
X13128515Y-15297984D02*
X13118991Y-15288460D01*
X13118991Y-15288460D02*
X13128515Y-15278936D01*
X13128515Y-15278936D02*
X13128515Y-15297984D01*
X13261848Y-15097984D02*
X13280896Y-15097984D01*
X13280896Y-15097984D02*
X13299944Y-15107508D01*
X13299944Y-15107508D02*
X13309467Y-15117031D01*
X13309467Y-15117031D02*
X13318991Y-15136079D01*
X13318991Y-15136079D02*
X13328515Y-15174174D01*
X13328515Y-15174174D02*
X13328515Y-15221793D01*
X13328515Y-15221793D02*
X13318991Y-15259888D01*
X13318991Y-15259888D02*
X13309467Y-15278936D01*
X13309467Y-15278936D02*
X13299944Y-15288460D01*
X13299944Y-15288460D02*
X13280896Y-15297984D01*
X13280896Y-15297984D02*
X13261848Y-15297984D01*
X13261848Y-15297984D02*
X13242801Y-15288460D01*
X13242801Y-15288460D02*
X13233277Y-15278936D01*
X13233277Y-15278936D02*
X13223753Y-15259888D01*
X13223753Y-15259888D02*
X13214229Y-15221793D01*
X13214229Y-15221793D02*
X13214229Y-15174174D01*
X13214229Y-15174174D02*
X13223753Y-15136079D01*
X13223753Y-15136079D02*
X13233277Y-15117031D01*
X13233277Y-15117031D02*
X13242801Y-15107508D01*
X13242801Y-15107508D02*
X13261848Y-15097984D01*
X13395182Y-15097984D02*
X13518991Y-15097984D01*
X13518991Y-15097984D02*
X13452325Y-15174174D01*
X13452325Y-15174174D02*
X13480896Y-15174174D01*
X13480896Y-15174174D02*
X13499944Y-15183698D01*
X13499944Y-15183698D02*
X13509467Y-15193222D01*
X13509467Y-15193222D02*
X13518991Y-15212269D01*
X13518991Y-15212269D02*
X13518991Y-15259888D01*
X13518991Y-15259888D02*
X13509467Y-15278936D01*
X13509467Y-15278936D02*
X13499944Y-15288460D01*
X13499944Y-15288460D02*
X13480896Y-15297984D01*
X13480896Y-15297984D02*
X13423753Y-15297984D01*
X13423753Y-15297984D02*
X13404706Y-15288460D01*
X13404706Y-15288460D02*
X13395182Y-15278936D01*
X13699944Y-15097984D02*
X13604706Y-15097984D01*
X13604706Y-15097984D02*
X13595182Y-15193222D01*
X13595182Y-15193222D02*
X13604706Y-15183698D01*
X13604706Y-15183698D02*
X13623753Y-15174174D01*
X13623753Y-15174174D02*
X13671372Y-15174174D01*
X13671372Y-15174174D02*
X13690420Y-15183698D01*
X13690420Y-15183698D02*
X13699944Y-15193222D01*
X13699944Y-15193222D02*
X13709467Y-15212269D01*
X13709467Y-15212269D02*
X13709467Y-15259888D01*
X13709467Y-15259888D02*
X13699944Y-15278936D01*
X13699944Y-15278936D02*
X13690420Y-15288460D01*
X13690420Y-15288460D02*
X13671372Y-15297984D01*
X13671372Y-15297984D02*
X13623753Y-15297984D01*
X13623753Y-15297984D02*
X13604706Y-15288460D01*
X13604706Y-15288460D02*
X13595182Y-15278936D01*
X13833277Y-15097984D02*
X13852325Y-15097984D01*
X13852325Y-15097984D02*
X13871372Y-15107508D01*
X13871372Y-15107508D02*
X13880896Y-15117031D01*
X13880896Y-15117031D02*
X13890420Y-15136079D01*
X13890420Y-15136079D02*
X13899944Y-15174174D01*
X13899944Y-15174174D02*
X13899944Y-15221793D01*
X13899944Y-15221793D02*
X13890420Y-15259888D01*
X13890420Y-15259888D02*
X13880896Y-15278936D01*
X13880896Y-15278936D02*
X13871372Y-15288460D01*
X13871372Y-15288460D02*
X13852325Y-15297984D01*
X13852325Y-15297984D02*
X13833277Y-15297984D01*
X13833277Y-15297984D02*
X13814229Y-15288460D01*
X13814229Y-15288460D02*
X13804706Y-15278936D01*
X13804706Y-15278936D02*
X13795182Y-15259888D01*
X13795182Y-15259888D02*
X13785658Y-15221793D01*
X13785658Y-15221793D02*
X13785658Y-15174174D01*
X13785658Y-15174174D02*
X13795182Y-15136079D01*
X13795182Y-15136079D02*
X13804706Y-15117031D01*
X13804706Y-15117031D02*
X13814229Y-15107508D01*
X13814229Y-15107508D02*
X13833277Y-15097984D01*
X13976134Y-15097984D02*
X13976134Y-15136079D01*
X14052325Y-15097984D02*
X14052325Y-15136079D01*
X14347563Y-15374174D02*
X14338039Y-15364650D01*
X14338039Y-15364650D02*
X14318991Y-15336079D01*
X14318991Y-15336079D02*
X14309468Y-15317031D01*
X14309468Y-15317031D02*
X14299944Y-15288460D01*
X14299944Y-15288460D02*
X14290420Y-15240841D01*
X14290420Y-15240841D02*
X14290420Y-15202746D01*
X14290420Y-15202746D02*
X14299944Y-15155127D01*
X14299944Y-15155127D02*
X14309468Y-15126555D01*
X14309468Y-15126555D02*
X14318991Y-15107508D01*
X14318991Y-15107508D02*
X14338039Y-15078936D01*
X14338039Y-15078936D02*
X14347563Y-15069412D01*
X14528515Y-15297984D02*
X14414229Y-15297984D01*
X14471372Y-15297984D02*
X14471372Y-15097984D01*
X14471372Y-15097984D02*
X14452325Y-15126555D01*
X14452325Y-15126555D02*
X14433277Y-15145603D01*
X14433277Y-15145603D02*
X14414229Y-15155127D01*
X14699944Y-15164650D02*
X14699944Y-15297984D01*
X14652325Y-15088460D02*
X14604706Y-15231317D01*
X14604706Y-15231317D02*
X14728515Y-15231317D01*
X14957087Y-15297984D02*
X14957087Y-15097984D01*
X15042801Y-15297984D02*
X15042801Y-15193222D01*
X15042801Y-15193222D02*
X15033277Y-15174174D01*
X15033277Y-15174174D02*
X15014230Y-15164650D01*
X15014230Y-15164650D02*
X14985658Y-15164650D01*
X14985658Y-15164650D02*
X14966610Y-15174174D01*
X14966610Y-15174174D02*
X14957087Y-15183698D01*
X15166610Y-15297984D02*
X15147563Y-15288460D01*
X15147563Y-15288460D02*
X15138039Y-15278936D01*
X15138039Y-15278936D02*
X15128515Y-15259888D01*
X15128515Y-15259888D02*
X15128515Y-15202746D01*
X15128515Y-15202746D02*
X15138039Y-15183698D01*
X15138039Y-15183698D02*
X15147563Y-15174174D01*
X15147563Y-15174174D02*
X15166610Y-15164650D01*
X15166610Y-15164650D02*
X15195182Y-15164650D01*
X15195182Y-15164650D02*
X15214230Y-15174174D01*
X15214230Y-15174174D02*
X15223753Y-15183698D01*
X15223753Y-15183698D02*
X15233277Y-15202746D01*
X15233277Y-15202746D02*
X15233277Y-15259888D01*
X15233277Y-15259888D02*
X15223753Y-15278936D01*
X15223753Y-15278936D02*
X15214230Y-15288460D01*
X15214230Y-15288460D02*
X15195182Y-15297984D01*
X15195182Y-15297984D02*
X15166610Y-15297984D01*
X15347563Y-15297984D02*
X15328515Y-15288460D01*
X15328515Y-15288460D02*
X15318991Y-15269412D01*
X15318991Y-15269412D02*
X15318991Y-15097984D01*
X15499944Y-15288460D02*
X15480896Y-15297984D01*
X15480896Y-15297984D02*
X15442801Y-15297984D01*
X15442801Y-15297984D02*
X15423753Y-15288460D01*
X15423753Y-15288460D02*
X15414230Y-15269412D01*
X15414230Y-15269412D02*
X15414230Y-15193222D01*
X15414230Y-15193222D02*
X15423753Y-15174174D01*
X15423753Y-15174174D02*
X15442801Y-15164650D01*
X15442801Y-15164650D02*
X15480896Y-15164650D01*
X15480896Y-15164650D02*
X15499944Y-15174174D01*
X15499944Y-15174174D02*
X15509468Y-15193222D01*
X15509468Y-15193222D02*
X15509468Y-15212269D01*
X15509468Y-15212269D02*
X15414230Y-15231317D01*
X15585658Y-15288460D02*
X15604706Y-15297984D01*
X15604706Y-15297984D02*
X15642801Y-15297984D01*
X15642801Y-15297984D02*
X15661849Y-15288460D01*
X15661849Y-15288460D02*
X15671372Y-15269412D01*
X15671372Y-15269412D02*
X15671372Y-15259888D01*
X15671372Y-15259888D02*
X15661849Y-15240841D01*
X15661849Y-15240841D02*
X15642801Y-15231317D01*
X15642801Y-15231317D02*
X15614230Y-15231317D01*
X15614230Y-15231317D02*
X15595182Y-15221793D01*
X15595182Y-15221793D02*
X15585658Y-15202746D01*
X15585658Y-15202746D02*
X15585658Y-15193222D01*
X15585658Y-15193222D02*
X15595182Y-15174174D01*
X15595182Y-15174174D02*
X15614230Y-15164650D01*
X15614230Y-15164650D02*
X15642801Y-15164650D01*
X15642801Y-15164650D02*
X15661849Y-15174174D01*
X15738039Y-15374174D02*
X15747563Y-15364650D01*
X15747563Y-15364650D02*
X15766611Y-15336079D01*
X15766611Y-15336079D02*
X15776134Y-15317031D01*
X15776134Y-15317031D02*
X15785658Y-15288460D01*
X15785658Y-15288460D02*
X15795182Y-15240841D01*
X15795182Y-15240841D02*
X15795182Y-15202746D01*
X15795182Y-15202746D02*
X15785658Y-15155127D01*
X15785658Y-15155127D02*
X15776134Y-15126555D01*
X15776134Y-15126555D02*
X15766611Y-15107508D01*
X15766611Y-15107508D02*
X15747563Y-15078936D01*
X15747563Y-15078936D02*
X15738039Y-15069412D01*
D13*
X10722500Y-15420500D02*
X10722500Y-15520500D01*
X10672500Y-15470500D02*
X10772500Y-15470500D01*
D12*
X11138039Y-15561984D02*
X11023753Y-15561984D01*
X11080896Y-15561984D02*
X11080896Y-15361984D01*
X11080896Y-15361984D02*
X11061848Y-15390555D01*
X11061848Y-15390555D02*
X11042801Y-15409603D01*
X11042801Y-15409603D02*
X11023753Y-15419127D01*
X11223753Y-15542936D02*
X11233277Y-15552460D01*
X11233277Y-15552460D02*
X11223753Y-15561984D01*
X11223753Y-15561984D02*
X11214229Y-15552460D01*
X11214229Y-15552460D02*
X11223753Y-15542936D01*
X11223753Y-15542936D02*
X11223753Y-15561984D01*
X11357086Y-15361984D02*
X11376134Y-15361984D01*
X11376134Y-15361984D02*
X11395182Y-15371508D01*
X11395182Y-15371508D02*
X11404705Y-15381031D01*
X11404705Y-15381031D02*
X11414229Y-15400079D01*
X11414229Y-15400079D02*
X11423753Y-15438174D01*
X11423753Y-15438174D02*
X11423753Y-15485793D01*
X11423753Y-15485793D02*
X11414229Y-15523888D01*
X11414229Y-15523888D02*
X11404705Y-15542936D01*
X11404705Y-15542936D02*
X11395182Y-15552460D01*
X11395182Y-15552460D02*
X11376134Y-15561984D01*
X11376134Y-15561984D02*
X11357086Y-15561984D01*
X11357086Y-15561984D02*
X11338039Y-15552460D01*
X11338039Y-15552460D02*
X11328515Y-15542936D01*
X11328515Y-15542936D02*
X11318991Y-15523888D01*
X11318991Y-15523888D02*
X11309467Y-15485793D01*
X11309467Y-15485793D02*
X11309467Y-15438174D01*
X11309467Y-15438174D02*
X11318991Y-15400079D01*
X11318991Y-15400079D02*
X11328515Y-15381031D01*
X11328515Y-15381031D02*
X11338039Y-15371508D01*
X11338039Y-15371508D02*
X11357086Y-15361984D01*
X11547562Y-15361984D02*
X11566610Y-15361984D01*
X11566610Y-15361984D02*
X11585658Y-15371508D01*
X11585658Y-15371508D02*
X11595182Y-15381031D01*
X11595182Y-15381031D02*
X11604705Y-15400079D01*
X11604705Y-15400079D02*
X11614229Y-15438174D01*
X11614229Y-15438174D02*
X11614229Y-15485793D01*
X11614229Y-15485793D02*
X11604705Y-15523888D01*
X11604705Y-15523888D02*
X11595182Y-15542936D01*
X11595182Y-15542936D02*
X11585658Y-15552460D01*
X11585658Y-15552460D02*
X11566610Y-15561984D01*
X11566610Y-15561984D02*
X11547562Y-15561984D01*
X11547562Y-15561984D02*
X11528515Y-15552460D01*
X11528515Y-15552460D02*
X11518991Y-15542936D01*
X11518991Y-15542936D02*
X11509467Y-15523888D01*
X11509467Y-15523888D02*
X11499943Y-15485793D01*
X11499943Y-15485793D02*
X11499943Y-15438174D01*
X11499943Y-15438174D02*
X11509467Y-15400079D01*
X11509467Y-15400079D02*
X11518991Y-15381031D01*
X11518991Y-15381031D02*
X11528515Y-15371508D01*
X11528515Y-15371508D02*
X11547562Y-15361984D01*
X11738039Y-15361984D02*
X11757086Y-15361984D01*
X11757086Y-15361984D02*
X11776134Y-15371508D01*
X11776134Y-15371508D02*
X11785658Y-15381031D01*
X11785658Y-15381031D02*
X11795182Y-15400079D01*
X11795182Y-15400079D02*
X11804705Y-15438174D01*
X11804705Y-15438174D02*
X11804705Y-15485793D01*
X11804705Y-15485793D02*
X11795182Y-15523888D01*
X11795182Y-15523888D02*
X11785658Y-15542936D01*
X11785658Y-15542936D02*
X11776134Y-15552460D01*
X11776134Y-15552460D02*
X11757086Y-15561984D01*
X11757086Y-15561984D02*
X11738039Y-15561984D01*
X11738039Y-15561984D02*
X11718991Y-15552460D01*
X11718991Y-15552460D02*
X11709467Y-15542936D01*
X11709467Y-15542936D02*
X11699943Y-15523888D01*
X11699943Y-15523888D02*
X11690420Y-15485793D01*
X11690420Y-15485793D02*
X11690420Y-15438174D01*
X11690420Y-15438174D02*
X11699943Y-15400079D01*
X11699943Y-15400079D02*
X11709467Y-15381031D01*
X11709467Y-15381031D02*
X11718991Y-15371508D01*
X11718991Y-15371508D02*
X11738039Y-15361984D01*
X11890420Y-15561984D02*
X11890420Y-15428650D01*
X11890420Y-15447698D02*
X11899943Y-15438174D01*
X11899943Y-15438174D02*
X11918991Y-15428650D01*
X11918991Y-15428650D02*
X11947563Y-15428650D01*
X11947563Y-15428650D02*
X11966610Y-15438174D01*
X11966610Y-15438174D02*
X11976134Y-15457222D01*
X11976134Y-15457222D02*
X11976134Y-15561984D01*
X11976134Y-15457222D02*
X11985658Y-15438174D01*
X11985658Y-15438174D02*
X12004705Y-15428650D01*
X12004705Y-15428650D02*
X12033277Y-15428650D01*
X12033277Y-15428650D02*
X12052324Y-15438174D01*
X12052324Y-15438174D02*
X12061848Y-15457222D01*
X12061848Y-15457222D02*
X12061848Y-15561984D01*
X12157086Y-15561984D02*
X12157086Y-15428650D01*
X12157086Y-15447698D02*
X12166610Y-15438174D01*
X12166610Y-15438174D02*
X12185658Y-15428650D01*
X12185658Y-15428650D02*
X12214229Y-15428650D01*
X12214229Y-15428650D02*
X12233277Y-15438174D01*
X12233277Y-15438174D02*
X12242801Y-15457222D01*
X12242801Y-15457222D02*
X12242801Y-15561984D01*
X12242801Y-15457222D02*
X12252324Y-15438174D01*
X12252324Y-15438174D02*
X12271372Y-15428650D01*
X12271372Y-15428650D02*
X12299943Y-15428650D01*
X12299943Y-15428650D02*
X12318991Y-15438174D01*
X12318991Y-15438174D02*
X12328515Y-15457222D01*
X12328515Y-15457222D02*
X12328515Y-15561984D01*
X12718991Y-15352460D02*
X12547563Y-15609603D01*
X12976134Y-15361984D02*
X12995182Y-15361984D01*
X12995182Y-15361984D02*
X13014229Y-15371508D01*
X13014229Y-15371508D02*
X13023753Y-15381031D01*
X13023753Y-15381031D02*
X13033277Y-15400079D01*
X13033277Y-15400079D02*
X13042801Y-15438174D01*
X13042801Y-15438174D02*
X13042801Y-15485793D01*
X13042801Y-15485793D02*
X13033277Y-15523888D01*
X13033277Y-15523888D02*
X13023753Y-15542936D01*
X13023753Y-15542936D02*
X13014229Y-15552460D01*
X13014229Y-15552460D02*
X12995182Y-15561984D01*
X12995182Y-15561984D02*
X12976134Y-15561984D01*
X12976134Y-15561984D02*
X12957086Y-15552460D01*
X12957086Y-15552460D02*
X12947563Y-15542936D01*
X12947563Y-15542936D02*
X12938039Y-15523888D01*
X12938039Y-15523888D02*
X12928515Y-15485793D01*
X12928515Y-15485793D02*
X12928515Y-15438174D01*
X12928515Y-15438174D02*
X12938039Y-15400079D01*
X12938039Y-15400079D02*
X12947563Y-15381031D01*
X12947563Y-15381031D02*
X12957086Y-15371508D01*
X12957086Y-15371508D02*
X12976134Y-15361984D01*
X13128515Y-15542936D02*
X13138039Y-15552460D01*
X13138039Y-15552460D02*
X13128515Y-15561984D01*
X13128515Y-15561984D02*
X13118991Y-15552460D01*
X13118991Y-15552460D02*
X13128515Y-15542936D01*
X13128515Y-15542936D02*
X13128515Y-15561984D01*
X13261848Y-15361984D02*
X13280896Y-15361984D01*
X13280896Y-15361984D02*
X13299944Y-15371508D01*
X13299944Y-15371508D02*
X13309467Y-15381031D01*
X13309467Y-15381031D02*
X13318991Y-15400079D01*
X13318991Y-15400079D02*
X13328515Y-15438174D01*
X13328515Y-15438174D02*
X13328515Y-15485793D01*
X13328515Y-15485793D02*
X13318991Y-15523888D01*
X13318991Y-15523888D02*
X13309467Y-15542936D01*
X13309467Y-15542936D02*
X13299944Y-15552460D01*
X13299944Y-15552460D02*
X13280896Y-15561984D01*
X13280896Y-15561984D02*
X13261848Y-15561984D01*
X13261848Y-15561984D02*
X13242801Y-15552460D01*
X13242801Y-15552460D02*
X13233277Y-15542936D01*
X13233277Y-15542936D02*
X13223753Y-15523888D01*
X13223753Y-15523888D02*
X13214229Y-15485793D01*
X13214229Y-15485793D02*
X13214229Y-15438174D01*
X13214229Y-15438174D02*
X13223753Y-15400079D01*
X13223753Y-15400079D02*
X13233277Y-15381031D01*
X13233277Y-15381031D02*
X13242801Y-15371508D01*
X13242801Y-15371508D02*
X13261848Y-15361984D01*
X13395182Y-15361984D02*
X13518991Y-15361984D01*
X13518991Y-15361984D02*
X13452325Y-15438174D01*
X13452325Y-15438174D02*
X13480896Y-15438174D01*
X13480896Y-15438174D02*
X13499944Y-15447698D01*
X13499944Y-15447698D02*
X13509467Y-15457222D01*
X13509467Y-15457222D02*
X13518991Y-15476269D01*
X13518991Y-15476269D02*
X13518991Y-15523888D01*
X13518991Y-15523888D02*
X13509467Y-15542936D01*
X13509467Y-15542936D02*
X13499944Y-15552460D01*
X13499944Y-15552460D02*
X13480896Y-15561984D01*
X13480896Y-15561984D02*
X13423753Y-15561984D01*
X13423753Y-15561984D02*
X13404706Y-15552460D01*
X13404706Y-15552460D02*
X13395182Y-15542936D01*
X13614229Y-15561984D02*
X13652325Y-15561984D01*
X13652325Y-15561984D02*
X13671372Y-15552460D01*
X13671372Y-15552460D02*
X13680896Y-15542936D01*
X13680896Y-15542936D02*
X13699944Y-15514365D01*
X13699944Y-15514365D02*
X13709467Y-15476269D01*
X13709467Y-15476269D02*
X13709467Y-15400079D01*
X13709467Y-15400079D02*
X13699944Y-15381031D01*
X13699944Y-15381031D02*
X13690420Y-15371508D01*
X13690420Y-15371508D02*
X13671372Y-15361984D01*
X13671372Y-15361984D02*
X13633277Y-15361984D01*
X13633277Y-15361984D02*
X13614229Y-15371508D01*
X13614229Y-15371508D02*
X13604706Y-15381031D01*
X13604706Y-15381031D02*
X13595182Y-15400079D01*
X13595182Y-15400079D02*
X13595182Y-15447698D01*
X13595182Y-15447698D02*
X13604706Y-15466746D01*
X13604706Y-15466746D02*
X13614229Y-15476269D01*
X13614229Y-15476269D02*
X13633277Y-15485793D01*
X13633277Y-15485793D02*
X13671372Y-15485793D01*
X13671372Y-15485793D02*
X13690420Y-15476269D01*
X13690420Y-15476269D02*
X13699944Y-15466746D01*
X13699944Y-15466746D02*
X13709467Y-15447698D01*
X13880896Y-15428650D02*
X13880896Y-15561984D01*
X13833277Y-15352460D02*
X13785658Y-15495317D01*
X13785658Y-15495317D02*
X13909467Y-15495317D01*
X13976134Y-15361984D02*
X13976134Y-15400079D01*
X14052325Y-15361984D02*
X14052325Y-15400079D01*
X14347563Y-15638174D02*
X14338039Y-15628650D01*
X14338039Y-15628650D02*
X14318991Y-15600079D01*
X14318991Y-15600079D02*
X14309468Y-15581031D01*
X14309468Y-15581031D02*
X14299944Y-15552460D01*
X14299944Y-15552460D02*
X14290420Y-15504841D01*
X14290420Y-15504841D02*
X14290420Y-15466746D01*
X14290420Y-15466746D02*
X14299944Y-15419127D01*
X14299944Y-15419127D02*
X14309468Y-15390555D01*
X14309468Y-15390555D02*
X14318991Y-15371508D01*
X14318991Y-15371508D02*
X14338039Y-15342936D01*
X14338039Y-15342936D02*
X14347563Y-15333412D01*
X14433277Y-15561984D02*
X14471372Y-15561984D01*
X14471372Y-15561984D02*
X14490420Y-15552460D01*
X14490420Y-15552460D02*
X14499944Y-15542936D01*
X14499944Y-15542936D02*
X14518991Y-15514365D01*
X14518991Y-15514365D02*
X14528515Y-15476269D01*
X14528515Y-15476269D02*
X14528515Y-15400079D01*
X14528515Y-15400079D02*
X14518991Y-15381031D01*
X14518991Y-15381031D02*
X14509468Y-15371508D01*
X14509468Y-15371508D02*
X14490420Y-15361984D01*
X14490420Y-15361984D02*
X14452325Y-15361984D01*
X14452325Y-15361984D02*
X14433277Y-15371508D01*
X14433277Y-15371508D02*
X14423753Y-15381031D01*
X14423753Y-15381031D02*
X14414229Y-15400079D01*
X14414229Y-15400079D02*
X14414229Y-15447698D01*
X14414229Y-15447698D02*
X14423753Y-15466746D01*
X14423753Y-15466746D02*
X14433277Y-15476269D01*
X14433277Y-15476269D02*
X14452325Y-15485793D01*
X14452325Y-15485793D02*
X14490420Y-15485793D01*
X14490420Y-15485793D02*
X14509468Y-15476269D01*
X14509468Y-15476269D02*
X14518991Y-15466746D01*
X14518991Y-15466746D02*
X14528515Y-15447698D01*
X14766610Y-15561984D02*
X14766610Y-15361984D01*
X14852325Y-15561984D02*
X14852325Y-15457222D01*
X14852325Y-15457222D02*
X14842801Y-15438174D01*
X14842801Y-15438174D02*
X14823753Y-15428650D01*
X14823753Y-15428650D02*
X14795182Y-15428650D01*
X14795182Y-15428650D02*
X14776134Y-15438174D01*
X14776134Y-15438174D02*
X14766610Y-15447698D01*
X14976134Y-15561984D02*
X14957087Y-15552460D01*
X14957087Y-15552460D02*
X14947563Y-15542936D01*
X14947563Y-15542936D02*
X14938039Y-15523888D01*
X14938039Y-15523888D02*
X14938039Y-15466746D01*
X14938039Y-15466746D02*
X14947563Y-15447698D01*
X14947563Y-15447698D02*
X14957087Y-15438174D01*
X14957087Y-15438174D02*
X14976134Y-15428650D01*
X14976134Y-15428650D02*
X15004706Y-15428650D01*
X15004706Y-15428650D02*
X15023753Y-15438174D01*
X15023753Y-15438174D02*
X15033277Y-15447698D01*
X15033277Y-15447698D02*
X15042801Y-15466746D01*
X15042801Y-15466746D02*
X15042801Y-15523888D01*
X15042801Y-15523888D02*
X15033277Y-15542936D01*
X15033277Y-15542936D02*
X15023753Y-15552460D01*
X15023753Y-15552460D02*
X15004706Y-15561984D01*
X15004706Y-15561984D02*
X14976134Y-15561984D01*
X15157087Y-15561984D02*
X15138039Y-15552460D01*
X15138039Y-15552460D02*
X15128515Y-15533412D01*
X15128515Y-15533412D02*
X15128515Y-15361984D01*
X15309468Y-15552460D02*
X15290420Y-15561984D01*
X15290420Y-15561984D02*
X15252325Y-15561984D01*
X15252325Y-15561984D02*
X15233277Y-15552460D01*
X15233277Y-15552460D02*
X15223753Y-15533412D01*
X15223753Y-15533412D02*
X15223753Y-15457222D01*
X15223753Y-15457222D02*
X15233277Y-15438174D01*
X15233277Y-15438174D02*
X15252325Y-15428650D01*
X15252325Y-15428650D02*
X15290420Y-15428650D01*
X15290420Y-15428650D02*
X15309468Y-15438174D01*
X15309468Y-15438174D02*
X15318991Y-15457222D01*
X15318991Y-15457222D02*
X15318991Y-15476269D01*
X15318991Y-15476269D02*
X15223753Y-15495317D01*
X15395182Y-15552460D02*
X15414230Y-15561984D01*
X15414230Y-15561984D02*
X15452325Y-15561984D01*
X15452325Y-15561984D02*
X15471372Y-15552460D01*
X15471372Y-15552460D02*
X15480896Y-15533412D01*
X15480896Y-15533412D02*
X15480896Y-15523888D01*
X15480896Y-15523888D02*
X15471372Y-15504841D01*
X15471372Y-15504841D02*
X15452325Y-15495317D01*
X15452325Y-15495317D02*
X15423753Y-15495317D01*
X15423753Y-15495317D02*
X15404706Y-15485793D01*
X15404706Y-15485793D02*
X15395182Y-15466746D01*
X15395182Y-15466746D02*
X15395182Y-15457222D01*
X15395182Y-15457222D02*
X15404706Y-15438174D01*
X15404706Y-15438174D02*
X15423753Y-15428650D01*
X15423753Y-15428650D02*
X15452325Y-15428650D01*
X15452325Y-15428650D02*
X15471372Y-15438174D01*
X15547563Y-15638174D02*
X15557087Y-15628650D01*
X15557087Y-15628650D02*
X15576134Y-15600079D01*
X15576134Y-15600079D02*
X15585658Y-15581031D01*
X15585658Y-15581031D02*
X15595182Y-15552460D01*
X15595182Y-15552460D02*
X15604706Y-15504841D01*
X15604706Y-15504841D02*
X15604706Y-15466746D01*
X15604706Y-15466746D02*
X15595182Y-15419127D01*
X15595182Y-15419127D02*
X15585658Y-15390555D01*
X15585658Y-15390555D02*
X15576134Y-15371508D01*
X15576134Y-15371508D02*
X15557087Y-15342936D01*
X15557087Y-15342936D02*
X15547563Y-15333412D01*
D14*
X10751998Y-15783998D02*
X10751998Y-15685002D01*
X10653002Y-15685002D01*
X10653002Y-15783998D01*
X10751998Y-15783998D01*
D12*
X11138039Y-15825984D02*
X11023753Y-15825984D01*
X11080896Y-15825984D02*
X11080896Y-15625984D01*
X11080896Y-15625984D02*
X11061848Y-15654555D01*
X11061848Y-15654555D02*
X11042801Y-15673603D01*
X11042801Y-15673603D02*
X11023753Y-15683127D01*
X11223753Y-15806936D02*
X11233277Y-15816460D01*
X11233277Y-15816460D02*
X11223753Y-15825984D01*
X11223753Y-15825984D02*
X11214229Y-15816460D01*
X11214229Y-15816460D02*
X11223753Y-15806936D01*
X11223753Y-15806936D02*
X11223753Y-15825984D01*
X11404705Y-15692650D02*
X11404705Y-15825984D01*
X11357086Y-15616460D02*
X11309467Y-15759317D01*
X11309467Y-15759317D02*
X11433277Y-15759317D01*
X11547562Y-15625984D02*
X11566610Y-15625984D01*
X11566610Y-15625984D02*
X11585658Y-15635508D01*
X11585658Y-15635508D02*
X11595182Y-15645031D01*
X11595182Y-15645031D02*
X11604705Y-15664079D01*
X11604705Y-15664079D02*
X11614229Y-15702174D01*
X11614229Y-15702174D02*
X11614229Y-15749793D01*
X11614229Y-15749793D02*
X11604705Y-15787888D01*
X11604705Y-15787888D02*
X11595182Y-15806936D01*
X11595182Y-15806936D02*
X11585658Y-15816460D01*
X11585658Y-15816460D02*
X11566610Y-15825984D01*
X11566610Y-15825984D02*
X11547562Y-15825984D01*
X11547562Y-15825984D02*
X11528515Y-15816460D01*
X11528515Y-15816460D02*
X11518991Y-15806936D01*
X11518991Y-15806936D02*
X11509467Y-15787888D01*
X11509467Y-15787888D02*
X11499943Y-15749793D01*
X11499943Y-15749793D02*
X11499943Y-15702174D01*
X11499943Y-15702174D02*
X11509467Y-15664079D01*
X11509467Y-15664079D02*
X11518991Y-15645031D01*
X11518991Y-15645031D02*
X11528515Y-15635508D01*
X11528515Y-15635508D02*
X11547562Y-15625984D01*
X11738039Y-15625984D02*
X11757086Y-15625984D01*
X11757086Y-15625984D02*
X11776134Y-15635508D01*
X11776134Y-15635508D02*
X11785658Y-15645031D01*
X11785658Y-15645031D02*
X11795182Y-15664079D01*
X11795182Y-15664079D02*
X11804705Y-15702174D01*
X11804705Y-15702174D02*
X11804705Y-15749793D01*
X11804705Y-15749793D02*
X11795182Y-15787888D01*
X11795182Y-15787888D02*
X11785658Y-15806936D01*
X11785658Y-15806936D02*
X11776134Y-15816460D01*
X11776134Y-15816460D02*
X11757086Y-15825984D01*
X11757086Y-15825984D02*
X11738039Y-15825984D01*
X11738039Y-15825984D02*
X11718991Y-15816460D01*
X11718991Y-15816460D02*
X11709467Y-15806936D01*
X11709467Y-15806936D02*
X11699943Y-15787888D01*
X11699943Y-15787888D02*
X11690420Y-15749793D01*
X11690420Y-15749793D02*
X11690420Y-15702174D01*
X11690420Y-15702174D02*
X11699943Y-15664079D01*
X11699943Y-15664079D02*
X11709467Y-15645031D01*
X11709467Y-15645031D02*
X11718991Y-15635508D01*
X11718991Y-15635508D02*
X11738039Y-15625984D01*
X11890420Y-15825984D02*
X11890420Y-15692650D01*
X11890420Y-15711698D02*
X11899943Y-15702174D01*
X11899943Y-15702174D02*
X11918991Y-15692650D01*
X11918991Y-15692650D02*
X11947563Y-15692650D01*
X11947563Y-15692650D02*
X11966610Y-15702174D01*
X11966610Y-15702174D02*
X11976134Y-15721222D01*
X11976134Y-15721222D02*
X11976134Y-15825984D01*
X11976134Y-15721222D02*
X11985658Y-15702174D01*
X11985658Y-15702174D02*
X12004705Y-15692650D01*
X12004705Y-15692650D02*
X12033277Y-15692650D01*
X12033277Y-15692650D02*
X12052324Y-15702174D01*
X12052324Y-15702174D02*
X12061848Y-15721222D01*
X12061848Y-15721222D02*
X12061848Y-15825984D01*
X12157086Y-15825984D02*
X12157086Y-15692650D01*
X12157086Y-15711698D02*
X12166610Y-15702174D01*
X12166610Y-15702174D02*
X12185658Y-15692650D01*
X12185658Y-15692650D02*
X12214229Y-15692650D01*
X12214229Y-15692650D02*
X12233277Y-15702174D01*
X12233277Y-15702174D02*
X12242801Y-15721222D01*
X12242801Y-15721222D02*
X12242801Y-15825984D01*
X12242801Y-15721222D02*
X12252324Y-15702174D01*
X12252324Y-15702174D02*
X12271372Y-15692650D01*
X12271372Y-15692650D02*
X12299943Y-15692650D01*
X12299943Y-15692650D02*
X12318991Y-15702174D01*
X12318991Y-15702174D02*
X12328515Y-15721222D01*
X12328515Y-15721222D02*
X12328515Y-15825984D01*
X12718991Y-15616460D02*
X12547563Y-15873603D01*
X12976134Y-15625984D02*
X12995182Y-15625984D01*
X12995182Y-15625984D02*
X13014229Y-15635508D01*
X13014229Y-15635508D02*
X13023753Y-15645031D01*
X13023753Y-15645031D02*
X13033277Y-15664079D01*
X13033277Y-15664079D02*
X13042801Y-15702174D01*
X13042801Y-15702174D02*
X13042801Y-15749793D01*
X13042801Y-15749793D02*
X13033277Y-15787888D01*
X13033277Y-15787888D02*
X13023753Y-15806936D01*
X13023753Y-15806936D02*
X13014229Y-15816460D01*
X13014229Y-15816460D02*
X12995182Y-15825984D01*
X12995182Y-15825984D02*
X12976134Y-15825984D01*
X12976134Y-15825984D02*
X12957086Y-15816460D01*
X12957086Y-15816460D02*
X12947563Y-15806936D01*
X12947563Y-15806936D02*
X12938039Y-15787888D01*
X12938039Y-15787888D02*
X12928515Y-15749793D01*
X12928515Y-15749793D02*
X12928515Y-15702174D01*
X12928515Y-15702174D02*
X12938039Y-15664079D01*
X12938039Y-15664079D02*
X12947563Y-15645031D01*
X12947563Y-15645031D02*
X12957086Y-15635508D01*
X12957086Y-15635508D02*
X12976134Y-15625984D01*
X13128515Y-15806936D02*
X13138039Y-15816460D01*
X13138039Y-15816460D02*
X13128515Y-15825984D01*
X13128515Y-15825984D02*
X13118991Y-15816460D01*
X13118991Y-15816460D02*
X13128515Y-15806936D01*
X13128515Y-15806936D02*
X13128515Y-15825984D01*
X13261848Y-15625984D02*
X13280896Y-15625984D01*
X13280896Y-15625984D02*
X13299944Y-15635508D01*
X13299944Y-15635508D02*
X13309467Y-15645031D01*
X13309467Y-15645031D02*
X13318991Y-15664079D01*
X13318991Y-15664079D02*
X13328515Y-15702174D01*
X13328515Y-15702174D02*
X13328515Y-15749793D01*
X13328515Y-15749793D02*
X13318991Y-15787888D01*
X13318991Y-15787888D02*
X13309467Y-15806936D01*
X13309467Y-15806936D02*
X13299944Y-15816460D01*
X13299944Y-15816460D02*
X13280896Y-15825984D01*
X13280896Y-15825984D02*
X13261848Y-15825984D01*
X13261848Y-15825984D02*
X13242801Y-15816460D01*
X13242801Y-15816460D02*
X13233277Y-15806936D01*
X13233277Y-15806936D02*
X13223753Y-15787888D01*
X13223753Y-15787888D02*
X13214229Y-15749793D01*
X13214229Y-15749793D02*
X13214229Y-15702174D01*
X13214229Y-15702174D02*
X13223753Y-15664079D01*
X13223753Y-15664079D02*
X13233277Y-15645031D01*
X13233277Y-15645031D02*
X13242801Y-15635508D01*
X13242801Y-15635508D02*
X13261848Y-15625984D01*
X13509467Y-15625984D02*
X13414229Y-15625984D01*
X13414229Y-15625984D02*
X13404706Y-15721222D01*
X13404706Y-15721222D02*
X13414229Y-15711698D01*
X13414229Y-15711698D02*
X13433277Y-15702174D01*
X13433277Y-15702174D02*
X13480896Y-15702174D01*
X13480896Y-15702174D02*
X13499944Y-15711698D01*
X13499944Y-15711698D02*
X13509467Y-15721222D01*
X13509467Y-15721222D02*
X13518991Y-15740269D01*
X13518991Y-15740269D02*
X13518991Y-15787888D01*
X13518991Y-15787888D02*
X13509467Y-15806936D01*
X13509467Y-15806936D02*
X13499944Y-15816460D01*
X13499944Y-15816460D02*
X13480896Y-15825984D01*
X13480896Y-15825984D02*
X13433277Y-15825984D01*
X13433277Y-15825984D02*
X13414229Y-15816460D01*
X13414229Y-15816460D02*
X13404706Y-15806936D01*
X13699944Y-15625984D02*
X13604706Y-15625984D01*
X13604706Y-15625984D02*
X13595182Y-15721222D01*
X13595182Y-15721222D02*
X13604706Y-15711698D01*
X13604706Y-15711698D02*
X13623753Y-15702174D01*
X13623753Y-15702174D02*
X13671372Y-15702174D01*
X13671372Y-15702174D02*
X13690420Y-15711698D01*
X13690420Y-15711698D02*
X13699944Y-15721222D01*
X13699944Y-15721222D02*
X13709467Y-15740269D01*
X13709467Y-15740269D02*
X13709467Y-15787888D01*
X13709467Y-15787888D02*
X13699944Y-15806936D01*
X13699944Y-15806936D02*
X13690420Y-15816460D01*
X13690420Y-15816460D02*
X13671372Y-15825984D01*
X13671372Y-15825984D02*
X13623753Y-15825984D01*
X13623753Y-15825984D02*
X13604706Y-15816460D01*
X13604706Y-15816460D02*
X13595182Y-15806936D01*
X13899944Y-15825984D02*
X13785658Y-15825984D01*
X13842801Y-15825984D02*
X13842801Y-15625984D01*
X13842801Y-15625984D02*
X13823753Y-15654555D01*
X13823753Y-15654555D02*
X13804706Y-15673603D01*
X13804706Y-15673603D02*
X13785658Y-15683127D01*
X13976134Y-15625984D02*
X13976134Y-15664079D01*
X14052325Y-15625984D02*
X14052325Y-15664079D01*
X14347563Y-15902174D02*
X14338039Y-15892650D01*
X14338039Y-15892650D02*
X14318991Y-15864079D01*
X14318991Y-15864079D02*
X14309468Y-15845031D01*
X14309468Y-15845031D02*
X14299944Y-15816460D01*
X14299944Y-15816460D02*
X14290420Y-15768841D01*
X14290420Y-15768841D02*
X14290420Y-15730746D01*
X14290420Y-15730746D02*
X14299944Y-15683127D01*
X14299944Y-15683127D02*
X14309468Y-15654555D01*
X14309468Y-15654555D02*
X14318991Y-15635508D01*
X14318991Y-15635508D02*
X14338039Y-15606936D01*
X14338039Y-15606936D02*
X14347563Y-15597412D01*
X14528515Y-15825984D02*
X14414229Y-15825984D01*
X14471372Y-15825984D02*
X14471372Y-15625984D01*
X14471372Y-15625984D02*
X14452325Y-15654555D01*
X14452325Y-15654555D02*
X14433277Y-15673603D01*
X14433277Y-15673603D02*
X14414229Y-15683127D01*
X14642801Y-15711698D02*
X14623753Y-15702174D01*
X14623753Y-15702174D02*
X14614229Y-15692650D01*
X14614229Y-15692650D02*
X14604706Y-15673603D01*
X14604706Y-15673603D02*
X14604706Y-15664079D01*
X14604706Y-15664079D02*
X14614229Y-15645031D01*
X14614229Y-15645031D02*
X14623753Y-15635508D01*
X14623753Y-15635508D02*
X14642801Y-15625984D01*
X14642801Y-15625984D02*
X14680896Y-15625984D01*
X14680896Y-15625984D02*
X14699944Y-15635508D01*
X14699944Y-15635508D02*
X14709468Y-15645031D01*
X14709468Y-15645031D02*
X14718991Y-15664079D01*
X14718991Y-15664079D02*
X14718991Y-15673603D01*
X14718991Y-15673603D02*
X14709468Y-15692650D01*
X14709468Y-15692650D02*
X14699944Y-15702174D01*
X14699944Y-15702174D02*
X14680896Y-15711698D01*
X14680896Y-15711698D02*
X14642801Y-15711698D01*
X14642801Y-15711698D02*
X14623753Y-15721222D01*
X14623753Y-15721222D02*
X14614229Y-15730746D01*
X14614229Y-15730746D02*
X14604706Y-15749793D01*
X14604706Y-15749793D02*
X14604706Y-15787888D01*
X14604706Y-15787888D02*
X14614229Y-15806936D01*
X14614229Y-15806936D02*
X14623753Y-15816460D01*
X14623753Y-15816460D02*
X14642801Y-15825984D01*
X14642801Y-15825984D02*
X14680896Y-15825984D01*
X14680896Y-15825984D02*
X14699944Y-15816460D01*
X14699944Y-15816460D02*
X14709468Y-15806936D01*
X14709468Y-15806936D02*
X14718991Y-15787888D01*
X14718991Y-15787888D02*
X14718991Y-15749793D01*
X14718991Y-15749793D02*
X14709468Y-15730746D01*
X14709468Y-15730746D02*
X14699944Y-15721222D01*
X14699944Y-15721222D02*
X14680896Y-15711698D01*
X14957087Y-15825984D02*
X14957087Y-15625984D01*
X15042801Y-15825984D02*
X15042801Y-15721222D01*
X15042801Y-15721222D02*
X15033277Y-15702174D01*
X15033277Y-15702174D02*
X15014230Y-15692650D01*
X15014230Y-15692650D02*
X14985658Y-15692650D01*
X14985658Y-15692650D02*
X14966610Y-15702174D01*
X14966610Y-15702174D02*
X14957087Y-15711698D01*
X15166610Y-15825984D02*
X15147563Y-15816460D01*
X15147563Y-15816460D02*
X15138039Y-15806936D01*
X15138039Y-15806936D02*
X15128515Y-15787888D01*
X15128515Y-15787888D02*
X15128515Y-15730746D01*
X15128515Y-15730746D02*
X15138039Y-15711698D01*
X15138039Y-15711698D02*
X15147563Y-15702174D01*
X15147563Y-15702174D02*
X15166610Y-15692650D01*
X15166610Y-15692650D02*
X15195182Y-15692650D01*
X15195182Y-15692650D02*
X15214230Y-15702174D01*
X15214230Y-15702174D02*
X15223753Y-15711698D01*
X15223753Y-15711698D02*
X15233277Y-15730746D01*
X15233277Y-15730746D02*
X15233277Y-15787888D01*
X15233277Y-15787888D02*
X15223753Y-15806936D01*
X15223753Y-15806936D02*
X15214230Y-15816460D01*
X15214230Y-15816460D02*
X15195182Y-15825984D01*
X15195182Y-15825984D02*
X15166610Y-15825984D01*
X15347563Y-15825984D02*
X15328515Y-15816460D01*
X15328515Y-15816460D02*
X15318991Y-15797412D01*
X15318991Y-15797412D02*
X15318991Y-15625984D01*
X15499944Y-15816460D02*
X15480896Y-15825984D01*
X15480896Y-15825984D02*
X15442801Y-15825984D01*
X15442801Y-15825984D02*
X15423753Y-15816460D01*
X15423753Y-15816460D02*
X15414230Y-15797412D01*
X15414230Y-15797412D02*
X15414230Y-15721222D01*
X15414230Y-15721222D02*
X15423753Y-15702174D01*
X15423753Y-15702174D02*
X15442801Y-15692650D01*
X15442801Y-15692650D02*
X15480896Y-15692650D01*
X15480896Y-15692650D02*
X15499944Y-15702174D01*
X15499944Y-15702174D02*
X15509468Y-15721222D01*
X15509468Y-15721222D02*
X15509468Y-15740269D01*
X15509468Y-15740269D02*
X15414230Y-15759317D01*
X15585658Y-15816460D02*
X15604706Y-15825984D01*
X15604706Y-15825984D02*
X15642801Y-15825984D01*
X15642801Y-15825984D02*
X15661849Y-15816460D01*
X15661849Y-15816460D02*
X15671372Y-15797412D01*
X15671372Y-15797412D02*
X15671372Y-15787888D01*
X15671372Y-15787888D02*
X15661849Y-15768841D01*
X15661849Y-15768841D02*
X15642801Y-15759317D01*
X15642801Y-15759317D02*
X15614230Y-15759317D01*
X15614230Y-15759317D02*
X15595182Y-15749793D01*
X15595182Y-15749793D02*
X15585658Y-15730746D01*
X15585658Y-15730746D02*
X15585658Y-15721222D01*
X15585658Y-15721222D02*
X15595182Y-15702174D01*
X15595182Y-15702174D02*
X15614230Y-15692650D01*
X15614230Y-15692650D02*
X15642801Y-15692650D01*
X15642801Y-15692650D02*
X15661849Y-15702174D01*
X15738039Y-15902174D02*
X15747563Y-15892650D01*
X15747563Y-15892650D02*
X15766611Y-15864079D01*
X15766611Y-15864079D02*
X15776134Y-15845031D01*
X15776134Y-15845031D02*
X15785658Y-15816460D01*
X15785658Y-15816460D02*
X15795182Y-15768841D01*
X15795182Y-15768841D02*
X15795182Y-15730746D01*
X15795182Y-15730746D02*
X15785658Y-15683127D01*
X15785658Y-15683127D02*
X15776134Y-15654555D01*
X15776134Y-15654555D02*
X15766611Y-15635508D01*
X15766611Y-15635508D02*
X15747563Y-15606936D01*
X15747563Y-15606936D02*
X15738039Y-15597412D01*
D15*
X10697500Y-16073500D02*
X10772500Y-15998500D01*
X10697500Y-15923500D01*
X10622500Y-15998500D01*
X10697500Y-16073500D01*
D12*
X11138039Y-16089984D02*
X11023753Y-16089984D01*
X11080896Y-16089984D02*
X11080896Y-15889984D01*
X11080896Y-15889984D02*
X11061848Y-15918555D01*
X11061848Y-15918555D02*
X11042801Y-15937603D01*
X11042801Y-15937603D02*
X11023753Y-15947127D01*
X11223753Y-16070936D02*
X11233277Y-16080460D01*
X11233277Y-16080460D02*
X11223753Y-16089984D01*
X11223753Y-16089984D02*
X11214229Y-16080460D01*
X11214229Y-16080460D02*
X11223753Y-16070936D01*
X11223753Y-16070936D02*
X11223753Y-16089984D01*
X11414229Y-15889984D02*
X11318991Y-15889984D01*
X11318991Y-15889984D02*
X11309467Y-15985222D01*
X11309467Y-15985222D02*
X11318991Y-15975698D01*
X11318991Y-15975698D02*
X11338039Y-15966174D01*
X11338039Y-15966174D02*
X11385658Y-15966174D01*
X11385658Y-15966174D02*
X11404705Y-15975698D01*
X11404705Y-15975698D02*
X11414229Y-15985222D01*
X11414229Y-15985222D02*
X11423753Y-16004269D01*
X11423753Y-16004269D02*
X11423753Y-16051888D01*
X11423753Y-16051888D02*
X11414229Y-16070936D01*
X11414229Y-16070936D02*
X11404705Y-16080460D01*
X11404705Y-16080460D02*
X11385658Y-16089984D01*
X11385658Y-16089984D02*
X11338039Y-16089984D01*
X11338039Y-16089984D02*
X11318991Y-16080460D01*
X11318991Y-16080460D02*
X11309467Y-16070936D01*
X11547562Y-15889984D02*
X11566610Y-15889984D01*
X11566610Y-15889984D02*
X11585658Y-15899508D01*
X11585658Y-15899508D02*
X11595182Y-15909031D01*
X11595182Y-15909031D02*
X11604705Y-15928079D01*
X11604705Y-15928079D02*
X11614229Y-15966174D01*
X11614229Y-15966174D02*
X11614229Y-16013793D01*
X11614229Y-16013793D02*
X11604705Y-16051888D01*
X11604705Y-16051888D02*
X11595182Y-16070936D01*
X11595182Y-16070936D02*
X11585658Y-16080460D01*
X11585658Y-16080460D02*
X11566610Y-16089984D01*
X11566610Y-16089984D02*
X11547562Y-16089984D01*
X11547562Y-16089984D02*
X11528515Y-16080460D01*
X11528515Y-16080460D02*
X11518991Y-16070936D01*
X11518991Y-16070936D02*
X11509467Y-16051888D01*
X11509467Y-16051888D02*
X11499943Y-16013793D01*
X11499943Y-16013793D02*
X11499943Y-15966174D01*
X11499943Y-15966174D02*
X11509467Y-15928079D01*
X11509467Y-15928079D02*
X11518991Y-15909031D01*
X11518991Y-15909031D02*
X11528515Y-15899508D01*
X11528515Y-15899508D02*
X11547562Y-15889984D01*
X11738039Y-15889984D02*
X11757086Y-15889984D01*
X11757086Y-15889984D02*
X11776134Y-15899508D01*
X11776134Y-15899508D02*
X11785658Y-15909031D01*
X11785658Y-15909031D02*
X11795182Y-15928079D01*
X11795182Y-15928079D02*
X11804705Y-15966174D01*
X11804705Y-15966174D02*
X11804705Y-16013793D01*
X11804705Y-16013793D02*
X11795182Y-16051888D01*
X11795182Y-16051888D02*
X11785658Y-16070936D01*
X11785658Y-16070936D02*
X11776134Y-16080460D01*
X11776134Y-16080460D02*
X11757086Y-16089984D01*
X11757086Y-16089984D02*
X11738039Y-16089984D01*
X11738039Y-16089984D02*
X11718991Y-16080460D01*
X11718991Y-16080460D02*
X11709467Y-16070936D01*
X11709467Y-16070936D02*
X11699943Y-16051888D01*
X11699943Y-16051888D02*
X11690420Y-16013793D01*
X11690420Y-16013793D02*
X11690420Y-15966174D01*
X11690420Y-15966174D02*
X11699943Y-15928079D01*
X11699943Y-15928079D02*
X11709467Y-15909031D01*
X11709467Y-15909031D02*
X11718991Y-15899508D01*
X11718991Y-15899508D02*
X11738039Y-15889984D01*
X11890420Y-16089984D02*
X11890420Y-15956650D01*
X11890420Y-15975698D02*
X11899943Y-15966174D01*
X11899943Y-15966174D02*
X11918991Y-15956650D01*
X11918991Y-15956650D02*
X11947563Y-15956650D01*
X11947563Y-15956650D02*
X11966610Y-15966174D01*
X11966610Y-15966174D02*
X11976134Y-15985222D01*
X11976134Y-15985222D02*
X11976134Y-16089984D01*
X11976134Y-15985222D02*
X11985658Y-15966174D01*
X11985658Y-15966174D02*
X12004705Y-15956650D01*
X12004705Y-15956650D02*
X12033277Y-15956650D01*
X12033277Y-15956650D02*
X12052324Y-15966174D01*
X12052324Y-15966174D02*
X12061848Y-15985222D01*
X12061848Y-15985222D02*
X12061848Y-16089984D01*
X12157086Y-16089984D02*
X12157086Y-15956650D01*
X12157086Y-15975698D02*
X12166610Y-15966174D01*
X12166610Y-15966174D02*
X12185658Y-15956650D01*
X12185658Y-15956650D02*
X12214229Y-15956650D01*
X12214229Y-15956650D02*
X12233277Y-15966174D01*
X12233277Y-15966174D02*
X12242801Y-15985222D01*
X12242801Y-15985222D02*
X12242801Y-16089984D01*
X12242801Y-15985222D02*
X12252324Y-15966174D01*
X12252324Y-15966174D02*
X12271372Y-15956650D01*
X12271372Y-15956650D02*
X12299943Y-15956650D01*
X12299943Y-15956650D02*
X12318991Y-15966174D01*
X12318991Y-15966174D02*
X12328515Y-15985222D01*
X12328515Y-15985222D02*
X12328515Y-16089984D01*
X12718991Y-15880460D02*
X12547563Y-16137603D01*
X12976134Y-15889984D02*
X12995182Y-15889984D01*
X12995182Y-15889984D02*
X13014229Y-15899508D01*
X13014229Y-15899508D02*
X13023753Y-15909031D01*
X13023753Y-15909031D02*
X13033277Y-15928079D01*
X13033277Y-15928079D02*
X13042801Y-15966174D01*
X13042801Y-15966174D02*
X13042801Y-16013793D01*
X13042801Y-16013793D02*
X13033277Y-16051888D01*
X13033277Y-16051888D02*
X13023753Y-16070936D01*
X13023753Y-16070936D02*
X13014229Y-16080460D01*
X13014229Y-16080460D02*
X12995182Y-16089984D01*
X12995182Y-16089984D02*
X12976134Y-16089984D01*
X12976134Y-16089984D02*
X12957086Y-16080460D01*
X12957086Y-16080460D02*
X12947563Y-16070936D01*
X12947563Y-16070936D02*
X12938039Y-16051888D01*
X12938039Y-16051888D02*
X12928515Y-16013793D01*
X12928515Y-16013793D02*
X12928515Y-15966174D01*
X12928515Y-15966174D02*
X12938039Y-15928079D01*
X12938039Y-15928079D02*
X12947563Y-15909031D01*
X12947563Y-15909031D02*
X12957086Y-15899508D01*
X12957086Y-15899508D02*
X12976134Y-15889984D01*
X13128515Y-16070936D02*
X13138039Y-16080460D01*
X13138039Y-16080460D02*
X13128515Y-16089984D01*
X13128515Y-16089984D02*
X13118991Y-16080460D01*
X13118991Y-16080460D02*
X13128515Y-16070936D01*
X13128515Y-16070936D02*
X13128515Y-16089984D01*
X13261848Y-15889984D02*
X13280896Y-15889984D01*
X13280896Y-15889984D02*
X13299944Y-15899508D01*
X13299944Y-15899508D02*
X13309467Y-15909031D01*
X13309467Y-15909031D02*
X13318991Y-15928079D01*
X13318991Y-15928079D02*
X13328515Y-15966174D01*
X13328515Y-15966174D02*
X13328515Y-16013793D01*
X13328515Y-16013793D02*
X13318991Y-16051888D01*
X13318991Y-16051888D02*
X13309467Y-16070936D01*
X13309467Y-16070936D02*
X13299944Y-16080460D01*
X13299944Y-16080460D02*
X13280896Y-16089984D01*
X13280896Y-16089984D02*
X13261848Y-16089984D01*
X13261848Y-16089984D02*
X13242801Y-16080460D01*
X13242801Y-16080460D02*
X13233277Y-16070936D01*
X13233277Y-16070936D02*
X13223753Y-16051888D01*
X13223753Y-16051888D02*
X13214229Y-16013793D01*
X13214229Y-16013793D02*
X13214229Y-15966174D01*
X13214229Y-15966174D02*
X13223753Y-15928079D01*
X13223753Y-15928079D02*
X13233277Y-15909031D01*
X13233277Y-15909031D02*
X13242801Y-15899508D01*
X13242801Y-15899508D02*
X13261848Y-15889984D01*
X13509467Y-15889984D02*
X13414229Y-15889984D01*
X13414229Y-15889984D02*
X13404706Y-15985222D01*
X13404706Y-15985222D02*
X13414229Y-15975698D01*
X13414229Y-15975698D02*
X13433277Y-15966174D01*
X13433277Y-15966174D02*
X13480896Y-15966174D01*
X13480896Y-15966174D02*
X13499944Y-15975698D01*
X13499944Y-15975698D02*
X13509467Y-15985222D01*
X13509467Y-15985222D02*
X13518991Y-16004269D01*
X13518991Y-16004269D02*
X13518991Y-16051888D01*
X13518991Y-16051888D02*
X13509467Y-16070936D01*
X13509467Y-16070936D02*
X13499944Y-16080460D01*
X13499944Y-16080460D02*
X13480896Y-16089984D01*
X13480896Y-16089984D02*
X13433277Y-16089984D01*
X13433277Y-16089984D02*
X13414229Y-16080460D01*
X13414229Y-16080460D02*
X13404706Y-16070936D01*
X13614229Y-16089984D02*
X13652325Y-16089984D01*
X13652325Y-16089984D02*
X13671372Y-16080460D01*
X13671372Y-16080460D02*
X13680896Y-16070936D01*
X13680896Y-16070936D02*
X13699944Y-16042365D01*
X13699944Y-16042365D02*
X13709467Y-16004269D01*
X13709467Y-16004269D02*
X13709467Y-15928079D01*
X13709467Y-15928079D02*
X13699944Y-15909031D01*
X13699944Y-15909031D02*
X13690420Y-15899508D01*
X13690420Y-15899508D02*
X13671372Y-15889984D01*
X13671372Y-15889984D02*
X13633277Y-15889984D01*
X13633277Y-15889984D02*
X13614229Y-15899508D01*
X13614229Y-15899508D02*
X13604706Y-15909031D01*
X13604706Y-15909031D02*
X13595182Y-15928079D01*
X13595182Y-15928079D02*
X13595182Y-15975698D01*
X13595182Y-15975698D02*
X13604706Y-15994746D01*
X13604706Y-15994746D02*
X13614229Y-16004269D01*
X13614229Y-16004269D02*
X13633277Y-16013793D01*
X13633277Y-16013793D02*
X13671372Y-16013793D01*
X13671372Y-16013793D02*
X13690420Y-16004269D01*
X13690420Y-16004269D02*
X13699944Y-15994746D01*
X13699944Y-15994746D02*
X13709467Y-15975698D01*
X13899944Y-16089984D02*
X13785658Y-16089984D01*
X13842801Y-16089984D02*
X13842801Y-15889984D01*
X13842801Y-15889984D02*
X13823753Y-15918555D01*
X13823753Y-15918555D02*
X13804706Y-15937603D01*
X13804706Y-15937603D02*
X13785658Y-15947127D01*
X13976134Y-15889984D02*
X13976134Y-15928079D01*
X14052325Y-15889984D02*
X14052325Y-15928079D01*
X14347563Y-16166174D02*
X14338039Y-16156650D01*
X14338039Y-16156650D02*
X14318991Y-16128079D01*
X14318991Y-16128079D02*
X14309468Y-16109031D01*
X14309468Y-16109031D02*
X14299944Y-16080460D01*
X14299944Y-16080460D02*
X14290420Y-16032841D01*
X14290420Y-16032841D02*
X14290420Y-15994746D01*
X14290420Y-15994746D02*
X14299944Y-15947127D01*
X14299944Y-15947127D02*
X14309468Y-15918555D01*
X14309468Y-15918555D02*
X14318991Y-15899508D01*
X14318991Y-15899508D02*
X14338039Y-15870936D01*
X14338039Y-15870936D02*
X14347563Y-15861412D01*
X14528515Y-16089984D02*
X14414229Y-16089984D01*
X14471372Y-16089984D02*
X14471372Y-15889984D01*
X14471372Y-15889984D02*
X14452325Y-15918555D01*
X14452325Y-15918555D02*
X14433277Y-15937603D01*
X14433277Y-15937603D02*
X14414229Y-15947127D01*
X14642801Y-15975698D02*
X14623753Y-15966174D01*
X14623753Y-15966174D02*
X14614229Y-15956650D01*
X14614229Y-15956650D02*
X14604706Y-15937603D01*
X14604706Y-15937603D02*
X14604706Y-15928079D01*
X14604706Y-15928079D02*
X14614229Y-15909031D01*
X14614229Y-15909031D02*
X14623753Y-15899508D01*
X14623753Y-15899508D02*
X14642801Y-15889984D01*
X14642801Y-15889984D02*
X14680896Y-15889984D01*
X14680896Y-15889984D02*
X14699944Y-15899508D01*
X14699944Y-15899508D02*
X14709468Y-15909031D01*
X14709468Y-15909031D02*
X14718991Y-15928079D01*
X14718991Y-15928079D02*
X14718991Y-15937603D01*
X14718991Y-15937603D02*
X14709468Y-15956650D01*
X14709468Y-15956650D02*
X14699944Y-15966174D01*
X14699944Y-15966174D02*
X14680896Y-15975698D01*
X14680896Y-15975698D02*
X14642801Y-15975698D01*
X14642801Y-15975698D02*
X14623753Y-15985222D01*
X14623753Y-15985222D02*
X14614229Y-15994746D01*
X14614229Y-15994746D02*
X14604706Y-16013793D01*
X14604706Y-16013793D02*
X14604706Y-16051888D01*
X14604706Y-16051888D02*
X14614229Y-16070936D01*
X14614229Y-16070936D02*
X14623753Y-16080460D01*
X14623753Y-16080460D02*
X14642801Y-16089984D01*
X14642801Y-16089984D02*
X14680896Y-16089984D01*
X14680896Y-16089984D02*
X14699944Y-16080460D01*
X14699944Y-16080460D02*
X14709468Y-16070936D01*
X14709468Y-16070936D02*
X14718991Y-16051888D01*
X14718991Y-16051888D02*
X14718991Y-16013793D01*
X14718991Y-16013793D02*
X14709468Y-15994746D01*
X14709468Y-15994746D02*
X14699944Y-15985222D01*
X14699944Y-15985222D02*
X14680896Y-15975698D01*
X14957087Y-16089984D02*
X14957087Y-15889984D01*
X15042801Y-16089984D02*
X15042801Y-15985222D01*
X15042801Y-15985222D02*
X15033277Y-15966174D01*
X15033277Y-15966174D02*
X15014230Y-15956650D01*
X15014230Y-15956650D02*
X14985658Y-15956650D01*
X14985658Y-15956650D02*
X14966610Y-15966174D01*
X14966610Y-15966174D02*
X14957087Y-15975698D01*
X15166610Y-16089984D02*
X15147563Y-16080460D01*
X15147563Y-16080460D02*
X15138039Y-16070936D01*
X15138039Y-16070936D02*
X15128515Y-16051888D01*
X15128515Y-16051888D02*
X15128515Y-15994746D01*
X15128515Y-15994746D02*
X15138039Y-15975698D01*
X15138039Y-15975698D02*
X15147563Y-15966174D01*
X15147563Y-15966174D02*
X15166610Y-15956650D01*
X15166610Y-15956650D02*
X15195182Y-15956650D01*
X15195182Y-15956650D02*
X15214230Y-15966174D01*
X15214230Y-15966174D02*
X15223753Y-15975698D01*
X15223753Y-15975698D02*
X15233277Y-15994746D01*
X15233277Y-15994746D02*
X15233277Y-16051888D01*
X15233277Y-16051888D02*
X15223753Y-16070936D01*
X15223753Y-16070936D02*
X15214230Y-16080460D01*
X15214230Y-16080460D02*
X15195182Y-16089984D01*
X15195182Y-16089984D02*
X15166610Y-16089984D01*
X15347563Y-16089984D02*
X15328515Y-16080460D01*
X15328515Y-16080460D02*
X15318991Y-16061412D01*
X15318991Y-16061412D02*
X15318991Y-15889984D01*
X15499944Y-16080460D02*
X15480896Y-16089984D01*
X15480896Y-16089984D02*
X15442801Y-16089984D01*
X15442801Y-16089984D02*
X15423753Y-16080460D01*
X15423753Y-16080460D02*
X15414230Y-16061412D01*
X15414230Y-16061412D02*
X15414230Y-15985222D01*
X15414230Y-15985222D02*
X15423753Y-15966174D01*
X15423753Y-15966174D02*
X15442801Y-15956650D01*
X15442801Y-15956650D02*
X15480896Y-15956650D01*
X15480896Y-15956650D02*
X15499944Y-15966174D01*
X15499944Y-15966174D02*
X15509468Y-15985222D01*
X15509468Y-15985222D02*
X15509468Y-16004269D01*
X15509468Y-16004269D02*
X15414230Y-16023317D01*
X15585658Y-16080460D02*
X15604706Y-16089984D01*
X15604706Y-16089984D02*
X15642801Y-16089984D01*
X15642801Y-16089984D02*
X15661849Y-16080460D01*
X15661849Y-16080460D02*
X15671372Y-16061412D01*
X15671372Y-16061412D02*
X15671372Y-16051888D01*
X15671372Y-16051888D02*
X15661849Y-16032841D01*
X15661849Y-16032841D02*
X15642801Y-16023317D01*
X15642801Y-16023317D02*
X15614230Y-16023317D01*
X15614230Y-16023317D02*
X15595182Y-16013793D01*
X15595182Y-16013793D02*
X15585658Y-15994746D01*
X15585658Y-15994746D02*
X15585658Y-15985222D01*
X15585658Y-15985222D02*
X15595182Y-15966174D01*
X15595182Y-15966174D02*
X15614230Y-15956650D01*
X15614230Y-15956650D02*
X15642801Y-15956650D01*
X15642801Y-15956650D02*
X15661849Y-15966174D01*
X15909468Y-16013793D02*
X16061849Y-16013793D01*
X15985658Y-16089984D02*
X15985658Y-15937603D01*
X16299944Y-15909031D02*
X16309468Y-15899508D01*
X16309468Y-15899508D02*
X16328515Y-15889984D01*
X16328515Y-15889984D02*
X16376134Y-15889984D01*
X16376134Y-15889984D02*
X16395182Y-15899508D01*
X16395182Y-15899508D02*
X16404706Y-15909031D01*
X16404706Y-15909031D02*
X16414230Y-15928079D01*
X16414230Y-15928079D02*
X16414230Y-15947127D01*
X16414230Y-15947127D02*
X16404706Y-15975698D01*
X16404706Y-15975698D02*
X16290420Y-16089984D01*
X16290420Y-16089984D02*
X16414230Y-16089984D01*
X16642801Y-16080460D02*
X16661849Y-16089984D01*
X16661849Y-16089984D02*
X16699944Y-16089984D01*
X16699944Y-16089984D02*
X16718992Y-16080460D01*
X16718992Y-16080460D02*
X16728515Y-16061412D01*
X16728515Y-16061412D02*
X16728515Y-16051888D01*
X16728515Y-16051888D02*
X16718992Y-16032841D01*
X16718992Y-16032841D02*
X16699944Y-16023317D01*
X16699944Y-16023317D02*
X16671373Y-16023317D01*
X16671373Y-16023317D02*
X16652325Y-16013793D01*
X16652325Y-16013793D02*
X16642801Y-15994746D01*
X16642801Y-15994746D02*
X16642801Y-15985222D01*
X16642801Y-15985222D02*
X16652325Y-15966174D01*
X16652325Y-15966174D02*
X16671373Y-15956650D01*
X16671373Y-15956650D02*
X16699944Y-15956650D01*
X16699944Y-15956650D02*
X16718992Y-15966174D01*
X16842801Y-16089984D02*
X16823754Y-16080460D01*
X16823754Y-16080460D02*
X16814230Y-16061412D01*
X16814230Y-16061412D02*
X16814230Y-15889984D01*
X16947563Y-16089984D02*
X16928516Y-16080460D01*
X16928516Y-16080460D02*
X16918992Y-16070936D01*
X16918992Y-16070936D02*
X16909468Y-16051888D01*
X16909468Y-16051888D02*
X16909468Y-15994746D01*
X16909468Y-15994746D02*
X16918992Y-15975698D01*
X16918992Y-15975698D02*
X16928516Y-15966174D01*
X16928516Y-15966174D02*
X16947563Y-15956650D01*
X16947563Y-15956650D02*
X16976135Y-15956650D01*
X16976135Y-15956650D02*
X16995182Y-15966174D01*
X16995182Y-15966174D02*
X17004706Y-15975698D01*
X17004706Y-15975698D02*
X17014230Y-15994746D01*
X17014230Y-15994746D02*
X17014230Y-16051888D01*
X17014230Y-16051888D02*
X17004706Y-16070936D01*
X17004706Y-16070936D02*
X16995182Y-16080460D01*
X16995182Y-16080460D02*
X16976135Y-16089984D01*
X16976135Y-16089984D02*
X16947563Y-16089984D01*
X17071373Y-15956650D02*
X17147563Y-15956650D01*
X17099944Y-15889984D02*
X17099944Y-16061412D01*
X17099944Y-16061412D02*
X17109468Y-16080460D01*
X17109468Y-16080460D02*
X17128516Y-16089984D01*
X17128516Y-16089984D02*
X17147563Y-16089984D01*
X17204706Y-16080460D02*
X17223754Y-16089984D01*
X17223754Y-16089984D02*
X17261849Y-16089984D01*
X17261849Y-16089984D02*
X17280897Y-16080460D01*
X17280897Y-16080460D02*
X17290420Y-16061412D01*
X17290420Y-16061412D02*
X17290420Y-16051888D01*
X17290420Y-16051888D02*
X17280897Y-16032841D01*
X17280897Y-16032841D02*
X17261849Y-16023317D01*
X17261849Y-16023317D02*
X17233277Y-16023317D01*
X17233277Y-16023317D02*
X17214230Y-16013793D01*
X17214230Y-16013793D02*
X17204706Y-15994746D01*
X17204706Y-15994746D02*
X17204706Y-15985222D01*
X17204706Y-15985222D02*
X17214230Y-15966174D01*
X17214230Y-15966174D02*
X17233277Y-15956650D01*
X17233277Y-15956650D02*
X17261849Y-15956650D01*
X17261849Y-15956650D02*
X17280897Y-15966174D01*
X17357087Y-16166174D02*
X17366611Y-16156650D01*
X17366611Y-16156650D02*
X17385658Y-16128079D01*
X17385658Y-16128079D02*
X17395182Y-16109031D01*
X17395182Y-16109031D02*
X17404706Y-16080460D01*
X17404706Y-16080460D02*
X17414230Y-16032841D01*
X17414230Y-16032841D02*
X17414230Y-15994746D01*
X17414230Y-15994746D02*
X17404706Y-15947127D01*
X17404706Y-15947127D02*
X17395182Y-15918555D01*
X17395182Y-15918555D02*
X17385658Y-15899508D01*
X17385658Y-15899508D02*
X17366611Y-15870936D01*
X17366611Y-15870936D02*
X17357087Y-15861412D01*
M02*
