%TF.GenerationSoftware,KiCad,Pcbnew,9.0.2*%
%TF.CreationDate,2025-06-22T22:22:16+03:00*%
%TF.ProjectId,macropad,6d616372-6f70-4616-942e-6b696361645f,rev?*%
%TF.SameCoordinates,Original*%
%TF.FileFunction,Soldermask,Top*%
%TF.FilePolarity,Negative*%
%FSLAX46Y46*%
G04 Gerber Fmt 4.6, Leading zero omitted, Abs format (unit mm)*
G04 Created by KiCad (PCBNEW 9.0.2) date 2025-06-22 22:22:16*
%MOMM*%
%LPD*%
G01*
G04 APERTURE LIST*
G04 Aperture macros list*
%AMRoundRect*
0 Rectangle with rounded corners*
0 $1 Rounding radius*
0 $2 $3 $4 $5 $6 $7 $8 $9 X,Y pos of 4 corners*
0 Add a 4 corners polygon primitive as box body*
4,1,4,$2,$3,$4,$5,$6,$7,$8,$9,$2,$3,0*
0 Add four circle primitives for the rounded corners*
1,1,$1+$1,$2,$3*
1,1,$1+$1,$4,$5*
1,1,$1+$1,$6,$7*
1,1,$1+$1,$8,$9*
0 Add four rect primitives between the rounded corners*
20,1,$1+$1,$2,$3,$4,$5,0*
20,1,$1+$1,$4,$5,$6,$7,0*
20,1,$1+$1,$6,$7,$8,$9,0*
20,1,$1+$1,$8,$9,$2,$3,0*%
G04 Aperture macros list end*
%ADD10R,1.450000X0.820000*%
%ADD11RoundRect,0.205000X-0.520000X-0.205000X0.520000X-0.205000X0.520000X0.205000X-0.520000X0.205000X0*%
%ADD12C,1.700000*%
%ADD13C,4.000000*%
%ADD14C,2.200000*%
%ADD15RoundRect,0.205000X0.520000X0.205000X-0.520000X0.205000X-0.520000X-0.205000X0.520000X-0.205000X0*%
%ADD16R,0.820000X1.450000*%
%ADD17RoundRect,0.205000X0.205000X-0.520000X0.205000X0.520000X-0.205000X0.520000X-0.205000X-0.520000X0*%
%ADD18R,1.700000X1.700000*%
%ADD19O,1.700000X1.700000*%
%ADD20C,1.500000*%
%ADD21R,2.000000X2.000000*%
%ADD22C,2.000000*%
%ADD23R,3.200000X2.000000*%
%ADD24RoundRect,0.250001X1.149999X1.149999X-1.149999X1.149999X-1.149999X-1.149999X1.149999X-1.149999X0*%
%ADD25C,2.800000*%
%ADD26C,1.524000*%
G04 APERTURE END LIST*
D10*
%TO.C,D24*%
X158658333Y-140000000D03*
X158658333Y-138500000D03*
D11*
X164008333Y-138500000D03*
D10*
X164008333Y-140000000D03*
%TD*%
%TO.C,D15*%
X176991667Y-102750000D03*
X176991667Y-101250000D03*
D11*
X182341667Y-101250000D03*
D10*
X182341667Y-102750000D03*
%TD*%
D12*
%TO.C,SW4*%
X164500000Y-92400000D03*
D13*
X169580000Y-92400000D03*
D12*
X174660000Y-92400000D03*
D14*
X172120000Y-87320000D03*
X165770000Y-89860000D03*
%TD*%
D10*
%TO.C,D11*%
X164008333Y-83000000D03*
X164008333Y-84500000D03*
D15*
X158658333Y-84500000D03*
D10*
X158658333Y-83000000D03*
%TD*%
%TO.C,D25*%
X140325000Y-140000000D03*
X140325000Y-138500000D03*
D11*
X145675000Y-138500000D03*
D10*
X145675000Y-140000000D03*
%TD*%
D12*
%TO.C,SW1*%
X145450000Y-92400000D03*
D13*
X150530000Y-92400000D03*
D12*
X155610000Y-92400000D03*
D14*
X153070000Y-87320000D03*
X146720000Y-89860000D03*
%TD*%
D10*
%TO.C,D19*%
X164008333Y-120000000D03*
X164008333Y-121500000D03*
D15*
X158658333Y-121500000D03*
D10*
X158658333Y-120000000D03*
%TD*%
%TO.C,D22*%
X195325000Y-140000000D03*
X195325000Y-138500000D03*
D11*
X200675000Y-138500000D03*
D10*
X200675000Y-140000000D03*
%TD*%
%TO.C,D20*%
X182341667Y-120000000D03*
X182341667Y-121500000D03*
D15*
X176991667Y-121500000D03*
D10*
X176991667Y-120000000D03*
%TD*%
D12*
%TO.C,SW6*%
X164500000Y-130500000D03*
D13*
X169580000Y-130500000D03*
D12*
X174660000Y-130500000D03*
D14*
X172120000Y-125420000D03*
X165770000Y-127960000D03*
%TD*%
D10*
%TO.C,D18*%
X146675000Y-120000000D03*
X146675000Y-121500000D03*
D15*
X141325000Y-121500000D03*
D10*
X141325000Y-120000000D03*
%TD*%
%TO.C,D12*%
X182341667Y-83000000D03*
X182341667Y-84500000D03*
D15*
X176991667Y-84500000D03*
D10*
X176991667Y-83000000D03*
%TD*%
D16*
%TO.C,D10*%
X142000000Y-86425000D03*
X140500000Y-86425000D03*
D17*
X140500000Y-81075000D03*
D16*
X142000000Y-81075000D03*
%TD*%
D12*
%TO.C,SW5*%
X164500000Y-111450000D03*
D13*
X169580000Y-111450000D03*
D12*
X174660000Y-111450000D03*
D14*
X172120000Y-106370000D03*
X165770000Y-108910000D03*
%TD*%
D12*
%TO.C,SW2*%
X145450000Y-111450000D03*
D13*
X150530000Y-111450000D03*
D12*
X155610000Y-111450000D03*
D14*
X153070000Y-106370000D03*
X146720000Y-108910000D03*
%TD*%
D10*
%TO.C,D23*%
X176991667Y-140000000D03*
X176991667Y-138500000D03*
D11*
X182341667Y-138500000D03*
D10*
X182341667Y-140000000D03*
%TD*%
D12*
%TO.C,SW3*%
X145450000Y-130500000D03*
D13*
X150530000Y-130500000D03*
D12*
X155610000Y-130500000D03*
D14*
X153070000Y-125420000D03*
X146720000Y-127960000D03*
%TD*%
D12*
%TO.C,SW8*%
X183550000Y-111450000D03*
D13*
X188630000Y-111450000D03*
D12*
X193710000Y-111450000D03*
D14*
X191170000Y-106370000D03*
X184820000Y-108910000D03*
%TD*%
D12*
%TO.C,SW7*%
X183550000Y-92400000D03*
D13*
X188630000Y-92400000D03*
D12*
X193710000Y-92400000D03*
D14*
X191170000Y-87320000D03*
X184820000Y-89860000D03*
%TD*%
D16*
%TO.C,D21*%
X198750000Y-123425000D03*
X197250000Y-123425000D03*
D17*
X197250000Y-118075000D03*
D16*
X198750000Y-118075000D03*
%TD*%
D10*
%TO.C,D14*%
X195325000Y-102750000D03*
X195325000Y-101250000D03*
D11*
X200675000Y-101250000D03*
D10*
X200675000Y-102750000D03*
%TD*%
D12*
%TO.C,SW9*%
X183550000Y-130500000D03*
D13*
X188630000Y-130500000D03*
D12*
X193710000Y-130500000D03*
D14*
X191170000Y-125420000D03*
X184820000Y-127960000D03*
%TD*%
D18*
%TO.C,OLED1*%
X137885000Y-76945000D03*
D19*
X137885000Y-74405000D03*
X137885000Y-71865000D03*
X137885000Y-69325000D03*
%TD*%
D10*
%TO.C,D17*%
X140325000Y-102750000D03*
X140325000Y-101250000D03*
D11*
X145675000Y-101250000D03*
D10*
X145675000Y-102750000D03*
%TD*%
%TO.C,D16*%
X158658333Y-102750000D03*
X158658333Y-101250000D03*
D11*
X164008333Y-101250000D03*
D10*
X164008333Y-102750000D03*
%TD*%
D16*
%TO.C,D13*%
X198750000Y-86425000D03*
X197250000Y-86425000D03*
D17*
X197250000Y-81075000D03*
D16*
X198750000Y-81075000D03*
%TD*%
D20*
%TO.C,SW10*%
X195000000Y-69750000D03*
X195000000Y-74750000D03*
D21*
X180500000Y-69750000D03*
D22*
X180500000Y-74750000D03*
X180500000Y-72250000D03*
D23*
X188000000Y-66650000D03*
X188000000Y-77850000D03*
%TD*%
D24*
%TO.C,D1*%
X117000000Y-105500000D03*
D25*
X111920000Y-105500000D03*
%TD*%
D24*
%TO.C,D8*%
X137000000Y-113000000D03*
D25*
X131920000Y-113000000D03*
%TD*%
D24*
%TO.C,D9*%
X136920000Y-120500000D03*
D25*
X131840000Y-120500000D03*
%TD*%
D24*
%TO.C,D7*%
X137000000Y-105500000D03*
D25*
X131920000Y-105500000D03*
%TD*%
D24*
%TO.C,D5*%
X126920000Y-113000000D03*
D25*
X121840000Y-113000000D03*
%TD*%
D24*
%TO.C,D6*%
X126920000Y-120500000D03*
D25*
X121840000Y-120500000D03*
%TD*%
D26*
%TO.C,U1*%
X127620000Y-55880000D03*
X127620000Y-58420000D03*
X127620000Y-60960000D03*
X127620000Y-63500000D03*
X127620000Y-66040000D03*
X127620000Y-68580000D03*
X127620000Y-71120000D03*
X112380000Y-71120000D03*
X112380000Y-68580000D03*
X112380000Y-66040000D03*
X112380000Y-63500000D03*
X112380000Y-60960000D03*
X112380000Y-58420000D03*
X112380000Y-55880000D03*
%TD*%
D24*
%TO.C,D3*%
X116920000Y-120500000D03*
D25*
X111840000Y-120500000D03*
%TD*%
D24*
%TO.C,D2*%
X116920000Y-113000000D03*
D25*
X111840000Y-113000000D03*
%TD*%
D24*
%TO.C,D4*%
X127080000Y-105500000D03*
D25*
X122000000Y-105500000D03*
%TD*%
M02*
