%TF.GenerationSoftware,KiCad,Pcbnew,9.0.2*%
%TF.CreationDate,2025-06-22T22:22:16+03:00*%
%TF.ProjectId,macropad,6d616372-6f70-4616-942e-6b696361645f,rev?*%
%TF.SameCoordinates,Original*%
%TF.FileFunction,Copper,L2,Bot*%
%TF.FilePolarity,Positive*%
%FSLAX46Y46*%
G04 Gerber Fmt 4.6, Leading zero omitted, Abs format (unit mm)*
G04 Created by KiCad (PCBNEW 9.0.2) date 2025-06-22 22:22:16*
%MOMM*%
%LPD*%
G01*
G04 APERTURE LIST*
G04 Aperture macros list*
%AMRoundRect*
0 Rectangle with rounded corners*
0 $1 Rounding radius*
0 $2 $3 $4 $5 $6 $7 $8 $9 X,Y pos of 4 corners*
0 Add a 4 corners polygon primitive as box body*
4,1,4,$2,$3,$4,$5,$6,$7,$8,$9,$2,$3,0*
0 Add four circle primitives for the rounded corners*
1,1,$1+$1,$2,$3*
1,1,$1+$1,$4,$5*
1,1,$1+$1,$6,$7*
1,1,$1+$1,$8,$9*
0 Add four rect primitives between the rounded corners*
20,1,$1+$1,$2,$3,$4,$5,0*
20,1,$1+$1,$4,$5,$6,$7,0*
20,1,$1+$1,$6,$7,$8,$9,0*
20,1,$1+$1,$8,$9,$2,$3,0*%
G04 Aperture macros list end*
%TA.AperFunction,ComponentPad*%
%ADD10C,2.200000*%
%TD*%
%TA.AperFunction,ComponentPad*%
%ADD11R,1.700000X1.700000*%
%TD*%
%TA.AperFunction,ComponentPad*%
%ADD12O,1.700000X1.700000*%
%TD*%
%TA.AperFunction,ComponentPad*%
%ADD13C,1.500000*%
%TD*%
%TA.AperFunction,ComponentPad*%
%ADD14R,2.000000X2.000000*%
%TD*%
%TA.AperFunction,ComponentPad*%
%ADD15C,2.000000*%
%TD*%
%TA.AperFunction,ComponentPad*%
%ADD16R,3.200000X2.000000*%
%TD*%
%TA.AperFunction,ComponentPad*%
%ADD17RoundRect,0.250001X1.149999X1.149999X-1.149999X1.149999X-1.149999X-1.149999X1.149999X-1.149999X0*%
%TD*%
%TA.AperFunction,ComponentPad*%
%ADD18C,2.800000*%
%TD*%
%TA.AperFunction,SMDPad,CuDef*%
%ADD19RoundRect,0.152400X-1.063600X-0.609600X1.063600X-0.609600X1.063600X0.609600X-1.063600X0.609600X0*%
%TD*%
%TA.AperFunction,ComponentPad*%
%ADD20C,1.524000*%
%TD*%
%TA.AperFunction,SMDPad,CuDef*%
%ADD21RoundRect,0.152400X1.063600X0.609600X-1.063600X0.609600X-1.063600X-0.609600X1.063600X-0.609600X0*%
%TD*%
%TA.AperFunction,ViaPad*%
%ADD22C,0.600000*%
%TD*%
%TA.AperFunction,Conductor*%
%ADD23C,0.200000*%
%TD*%
G04 APERTURE END LIST*
D10*
%TO.P,SW4,1,1*%
%TO.N,Net-(D4-A)*%
X172120000Y-87320000D03*
%TO.P,SW4,2,2*%
%TO.N,COL2*%
X165770000Y-89860000D03*
%TD*%
%TO.P,SW1,1,1*%
%TO.N,Net-(D1-A)*%
X153070000Y-87320000D03*
%TO.P,SW1,2,2*%
%TO.N,COL2*%
X146720000Y-89860000D03*
%TD*%
%TO.P,SW6,1,1*%
%TO.N,Net-(D6-A)*%
X172120000Y-125420000D03*
%TO.P,SW6,2,2*%
%TO.N,COL0*%
X165770000Y-127960000D03*
%TD*%
%TO.P,SW5,1,1*%
%TO.N,Net-(D5-A)*%
X172120000Y-106370000D03*
%TO.P,SW5,2,2*%
%TO.N,COL1*%
X165770000Y-108910000D03*
%TD*%
%TO.P,SW2,1,1*%
%TO.N,Net-(D2-A)*%
X153070000Y-106370000D03*
%TO.P,SW2,2,2*%
%TO.N,COL1*%
X146720000Y-108910000D03*
%TD*%
%TO.P,SW3,1,1*%
%TO.N,Net-(D3-A)*%
X153070000Y-125420000D03*
%TO.P,SW3,2,2*%
%TO.N,COL0*%
X146720000Y-127960000D03*
%TD*%
%TO.P,SW8,1,1*%
%TO.N,Net-(D8-A)*%
X191170000Y-106370000D03*
%TO.P,SW8,2,2*%
%TO.N,COL1*%
X184820000Y-108910000D03*
%TD*%
%TO.P,SW7,1,1*%
%TO.N,Net-(D7-A)*%
X191170000Y-87320000D03*
%TO.P,SW7,2,2*%
%TO.N,COL2*%
X184820000Y-89860000D03*
%TD*%
%TO.P,SW9,1,1*%
%TO.N,Net-(D9-A)*%
X191170000Y-125420000D03*
%TO.P,SW9,2,2*%
%TO.N,COL0*%
X184820000Y-127960000D03*
%TD*%
D11*
%TO.P,OLED1,1,GND*%
%TO.N,GND*%
X137885000Y-76945000D03*
D12*
%TO.P,OLED1,2,VCC*%
%TO.N,VCCQ*%
X137885000Y-74405000D03*
%TO.P,OLED1,3,SCL*%
%TO.N,OLED_SCL*%
X137885000Y-71865000D03*
%TO.P,OLED1,4,SDA*%
%TO.N,OLED_SDA*%
X137885000Y-69325000D03*
%TD*%
D13*
%TO.P,SW10,*%
%TO.N,*%
X195000000Y-69750000D03*
X195000000Y-74750000D03*
D14*
%TO.P,SW10,A,A*%
%TO.N,EC11_A*%
X180500000Y-69750000D03*
D15*
%TO.P,SW10,B,B*%
%TO.N,EC11_B*%
X180500000Y-74750000D03*
%TO.P,SW10,C,C*%
%TO.N,GND*%
X180500000Y-72250000D03*
D16*
%TO.P,SW10,MP*%
%TO.N,N/C*%
X188000000Y-66650000D03*
X188000000Y-77850000D03*
%TD*%
D17*
%TO.P,D1,1,K*%
%TO.N,ROW0*%
X117000000Y-105500000D03*
D18*
%TO.P,D1,2,A*%
%TO.N,Net-(D1-A)*%
X111920000Y-105500000D03*
%TD*%
D17*
%TO.P,D8,1,K*%
%TO.N,ROW2*%
X137000000Y-113000000D03*
D18*
%TO.P,D8,2,A*%
%TO.N,Net-(D8-A)*%
X131920000Y-113000000D03*
%TD*%
D17*
%TO.P,D9,1,K*%
%TO.N,ROW2*%
X136920000Y-120500000D03*
D18*
%TO.P,D9,2,A*%
%TO.N,Net-(D9-A)*%
X131840000Y-120500000D03*
%TD*%
D17*
%TO.P,D7,1,K*%
%TO.N,ROW2*%
X137000000Y-105500000D03*
D18*
%TO.P,D7,2,A*%
%TO.N,Net-(D7-A)*%
X131920000Y-105500000D03*
%TD*%
D17*
%TO.P,D5,1,K*%
%TO.N,ROW1*%
X126920000Y-113000000D03*
D18*
%TO.P,D5,2,A*%
%TO.N,Net-(D5-A)*%
X121840000Y-113000000D03*
%TD*%
D17*
%TO.P,D6,1,K*%
%TO.N,ROW1*%
X126920000Y-120500000D03*
D18*
%TO.P,D6,2,A*%
%TO.N,Net-(D6-A)*%
X121840000Y-120500000D03*
%TD*%
D19*
%TO.P,U1,1,GPIO26/ADC0/A0*%
%TO.N,ROW0*%
X128455000Y-55880000D03*
D20*
X127620000Y-55880000D03*
D19*
%TO.P,U1,2,GPIO27/ADC1/A1*%
%TO.N,ROW1*%
X128455000Y-58420000D03*
D20*
X127620000Y-58420000D03*
D19*
%TO.P,U1,3,GPIO28/ADC2/A2*%
%TO.N,ROW2*%
X128455000Y-60960000D03*
D20*
X127620000Y-60960000D03*
D19*
%TO.P,U1,4,GPIO29/ADC3/A3*%
%TO.N,EC11_A*%
X128455000Y-63500000D03*
D20*
X127620000Y-63500000D03*
D19*
%TO.P,U1,5,GPIO6/SDA*%
%TO.N,OLED_SDA*%
X128455000Y-66040000D03*
D20*
X127620000Y-66040000D03*
D19*
%TO.P,U1,6,GPIO7/SCL*%
%TO.N,OLED_SCL*%
X128455000Y-68580000D03*
D20*
X127620000Y-68580000D03*
D19*
%TO.P,U1,7,GPIO0/TX*%
%TO.N,EC11_B*%
X128455000Y-71120000D03*
D20*
X127620000Y-71120000D03*
%TO.P,U1,8,GPIO1/RX*%
%TO.N,LED_CNTRL*%
X112380000Y-71120000D03*
D21*
X111545000Y-71120000D03*
D20*
%TO.P,U1,9,GPIO2/SCK*%
%TO.N,COL2*%
X112380000Y-68580000D03*
D21*
X111545000Y-68580000D03*
D20*
%TO.P,U1,10,GPIO4/MISO*%
%TO.N,COL1*%
X112380000Y-66040000D03*
D21*
X111545000Y-66040000D03*
D20*
%TO.P,U1,11,GPIO3/MOSI*%
%TO.N,COL0*%
X112380000Y-63500000D03*
D21*
X111545000Y-63500000D03*
D20*
%TO.P,U1,12,3V3*%
%TO.N,VCCQ*%
X112380000Y-60960000D03*
D21*
X111545000Y-60960000D03*
D20*
%TO.P,U1,13,GND*%
%TO.N,GND*%
X112380000Y-58420000D03*
D21*
X111545000Y-58420000D03*
D20*
%TO.P,U1,14,VBUS*%
%TO.N,VCC*%
X112380000Y-55880000D03*
D21*
X111545000Y-55880000D03*
%TD*%
D17*
%TO.P,D3,1,K*%
%TO.N,ROW0*%
X116920000Y-120500000D03*
D18*
%TO.P,D3,2,A*%
%TO.N,Net-(D3-A)*%
X111840000Y-120500000D03*
%TD*%
D17*
%TO.P,D2,1,K*%
%TO.N,ROW0*%
X116920000Y-113000000D03*
D18*
%TO.P,D2,2,A*%
%TO.N,Net-(D2-A)*%
X111840000Y-113000000D03*
%TD*%
D17*
%TO.P,D4,1,K*%
%TO.N,ROW1*%
X127080000Y-105500000D03*
D18*
%TO.P,D4,2,A*%
%TO.N,Net-(D4-A)*%
X122000000Y-105500000D03*
%TD*%
D22*
%TO.N,GND*%
X138000000Y-85250000D03*
%TO.N,VCC*%
X161250000Y-107250000D03*
X169500000Y-101850000D03*
X174250000Y-120000000D03*
X158658333Y-112500000D03*
X174750000Y-83900000D03*
X185000000Y-139100000D03*
%TO.N,Net-(D17-DOUT)*%
X140325000Y-104500000D03*
X139500000Y-119000000D03*
%TD*%
D23*
%TO.N,GND*%
X138000000Y-85250000D02*
X137885000Y-85135000D01*
X137885000Y-85135000D02*
X137885000Y-76945000D01*
%TO.N,VCC*%
X158658333Y-112500000D02*
X160250000Y-110908333D01*
X169500000Y-95861530D02*
X174250000Y-91111530D01*
X169500000Y-101850000D02*
X169500000Y-95861530D01*
X174250000Y-84400000D02*
X174750000Y-83900000D01*
X174250000Y-128350000D02*
X174250000Y-120000000D01*
X185000000Y-139100000D02*
X174250000Y-128350000D01*
X174250000Y-91111530D02*
X174250000Y-84400000D01*
X160250000Y-108250000D02*
X161250000Y-107250000D01*
X160250000Y-110908333D02*
X160250000Y-108250000D01*
%TO.N,ROW0*%
X116920000Y-120500000D02*
X116920000Y-113000000D01*
X117000000Y-105500000D02*
X125698000Y-96802000D01*
X125698000Y-96802000D02*
X125698000Y-57802000D01*
X116920000Y-113000000D02*
X116920000Y-105580000D01*
X125698000Y-57802000D02*
X127620000Y-55880000D01*
%TO.N,COL1*%
X147809119Y-122690881D02*
X146750000Y-123750000D01*
X146651000Y-111947470D02*
X147809119Y-113105589D01*
X109879169Y-123750000D02*
X109401000Y-123271831D01*
X146651000Y-108979000D02*
X146651000Y-111947470D01*
X109401000Y-123271831D02*
X109401000Y-68405374D01*
X109401000Y-68405374D02*
X111766374Y-66040000D01*
X146750000Y-123750000D02*
X109879169Y-123750000D01*
X147809119Y-113105589D02*
X147809119Y-122690881D01*
%TO.N,ROW2*%
X126500000Y-62080000D02*
X127620000Y-60960000D01*
X137000000Y-105500000D02*
X135250000Y-105500000D01*
X126500000Y-96750000D02*
X126500000Y-62080000D01*
X135250000Y-105500000D02*
X126500000Y-96750000D01*
X137000000Y-113000000D02*
X137000000Y-105500000D01*
X136920000Y-120500000D02*
X136920000Y-113080000D01*
%TO.N,COL2*%
X146291530Y-89860000D02*
X144216450Y-91935080D01*
X109802000Y-123105731D02*
X109802000Y-70544374D01*
X148250000Y-102500000D02*
X148250000Y-104500000D01*
X148216450Y-104500000D02*
X144216450Y-108500000D01*
X144216450Y-91935080D02*
X144216450Y-98466450D01*
X110045269Y-123349000D02*
X109802000Y-123105731D01*
X144216450Y-108500000D02*
X144216450Y-116716450D01*
X147408119Y-119908119D02*
X147408119Y-122500000D01*
X144216450Y-116716450D02*
X147408119Y-119908119D01*
X146559119Y-123349000D02*
X110045269Y-123349000D01*
X147408119Y-122500000D02*
X146559119Y-123349000D01*
X144216450Y-98466450D02*
X148250000Y-102500000D01*
X109802000Y-70544374D02*
X111766374Y-68580000D01*
X148250000Y-104500000D02*
X148216450Y-104500000D01*
%TO.N,COL0*%
X109000000Y-65802370D02*
X111302370Y-63500000D01*
X109713069Y-124151000D02*
X109000000Y-123437931D01*
X146720000Y-127220000D02*
X143651000Y-124151000D01*
X109000000Y-123437931D02*
X109000000Y-65802370D01*
X143651000Y-124151000D02*
X109713069Y-124151000D01*
%TO.N,ROW1*%
X126099000Y-104519000D02*
X126099000Y-59941000D01*
X126099000Y-59941000D02*
X127620000Y-58420000D01*
X126920000Y-120500000D02*
X126920000Y-113000000D01*
X126920000Y-113000000D02*
X126920000Y-105660000D01*
%TO.N,Net-(D17-DOUT)*%
X140325000Y-104500000D02*
X139500000Y-105325000D01*
X139500000Y-105325000D02*
X139500000Y-119000000D01*
%TD*%
M02*
