%TF.GenerationSoftware,KiCad,Pcbnew,9.0.2*%
%TF.CreationDate,2025-06-22T22:22:17+03:00*%
%TF.ProjectId,macropad,6d616372-6f70-4616-942e-6b696361645f,rev?*%
%TF.SameCoordinates,Original*%
%TF.FileFunction,OtherDrawing,Comment*%
%FSLAX46Y46*%
G04 Gerber Fmt 4.6, Leading zero omitted, Abs format (unit mm)*
G04 Created by KiCad (PCBNEW 9.0.2) date 2025-06-22 22:22:17*
%MOMM*%
%LPD*%
G01*
G04 APERTURE LIST*
%ADD10C,0.150000*%
G04 APERTURE END LIST*
D10*
%TO.C,SW4*%
X160055000Y-82875000D02*
X179105000Y-82875000D01*
X160055000Y-101925000D02*
X160055000Y-82875000D01*
X179105000Y-82875000D02*
X179105000Y-101925000D01*
X179105000Y-101925000D02*
X160055000Y-101925000D01*
%TO.C,SW1*%
X141005000Y-82875000D02*
X160055000Y-82875000D01*
X141005000Y-101925000D02*
X141005000Y-82875000D01*
X160055000Y-82875000D02*
X160055000Y-101925000D01*
X160055000Y-101925000D02*
X141005000Y-101925000D01*
%TO.C,SW6*%
X160055000Y-120975000D02*
X179105000Y-120975000D01*
X160055000Y-140025000D02*
X160055000Y-120975000D01*
X179105000Y-120975000D02*
X179105000Y-140025000D01*
X179105000Y-140025000D02*
X160055000Y-140025000D01*
%TO.C,SW5*%
X160055000Y-101925000D02*
X179105000Y-101925000D01*
X160055000Y-120975000D02*
X160055000Y-101925000D01*
X179105000Y-101925000D02*
X179105000Y-120975000D01*
X179105000Y-120975000D02*
X160055000Y-120975000D01*
%TO.C,SW2*%
X141005000Y-101925000D02*
X160055000Y-101925000D01*
X141005000Y-120975000D02*
X141005000Y-101925000D01*
X160055000Y-101925000D02*
X160055000Y-120975000D01*
X160055000Y-120975000D02*
X141005000Y-120975000D01*
%TO.C,SW3*%
X141005000Y-120975000D02*
X160055000Y-120975000D01*
X141005000Y-140025000D02*
X141005000Y-120975000D01*
X160055000Y-120975000D02*
X160055000Y-140025000D01*
X160055000Y-140025000D02*
X141005000Y-140025000D01*
%TO.C,SW8*%
X179105000Y-101925000D02*
X198155000Y-101925000D01*
X179105000Y-120975000D02*
X179105000Y-101925000D01*
X198155000Y-101925000D02*
X198155000Y-120975000D01*
X198155000Y-120975000D02*
X179105000Y-120975000D01*
%TO.C,SW7*%
X179105000Y-82875000D02*
X198155000Y-82875000D01*
X179105000Y-101925000D02*
X179105000Y-82875000D01*
X198155000Y-82875000D02*
X198155000Y-101925000D01*
X198155000Y-101925000D02*
X179105000Y-101925000D01*
%TO.C,SW9*%
X179105000Y-120975000D02*
X198155000Y-120975000D01*
X179105000Y-140025000D02*
X179105000Y-120975000D01*
X198155000Y-120975000D02*
X198155000Y-140025000D01*
X198155000Y-140025000D02*
X179105000Y-140025000D01*
%TD*%
M02*
