%TF.GenerationSoftware,KiCad,Pcbnew,9.0.2*%
%TF.CreationDate,2025-06-22T22:22:17+03:00*%
%TF.ProjectId,macropad,6d616372-6f70-4616-942e-6b696361645f,rev?*%
%TF.SameCoordinates,Original*%
%TF.FileFunction,Profile,NP*%
%FSLAX46Y46*%
G04 Gerber Fmt 4.6, Leading zero omitted, Abs format (unit mm)*
G04 Created by KiCad (PCBNEW 9.0.2) date 2025-06-22 22:22:17*
%MOMM*%
%LPD*%
G01*
G04 APERTURE LIST*
%TA.AperFunction,Profile*%
%ADD10C,0.050000*%
%TD*%
%TA.AperFunction,Profile*%
%ADD11C,0.120000*%
%TD*%
G04 APERTURE END LIST*
D10*
X107750000Y-53000000D02*
X202000000Y-53000000D01*
X202000000Y-143000000D01*
X107750000Y-143000000D01*
X107750000Y-53000000D01*
D11*
%TO.C,D24*%
X159433333Y-140550000D02*
X159433333Y-137950000D01*
X159633333Y-137750000D02*
X163033333Y-137750000D01*
X163033333Y-140750000D02*
X159633333Y-140750000D01*
X163233333Y-137950000D02*
X163233333Y-140550000D01*
X159433333Y-137950000D02*
G75*
G02*
X159633333Y-137750000I200001J-1D01*
G01*
X159633333Y-140750000D02*
G75*
G02*
X159433333Y-140550000I1J200001D01*
G01*
X163033333Y-137750000D02*
G75*
G02*
X163233333Y-137950000I0J-200000D01*
G01*
X163233333Y-140550000D02*
G75*
G02*
X163033333Y-140750000I-200000J0D01*
G01*
%TO.C,D15*%
X177766667Y-103300000D02*
X177766667Y-100700000D01*
X177966667Y-100500000D02*
X181366667Y-100500000D01*
X181366667Y-103500000D02*
X177966667Y-103500000D01*
X181566667Y-100700000D02*
X181566667Y-103300000D01*
X177766667Y-100700000D02*
G75*
G02*
X177966667Y-100500000I200001J-1D01*
G01*
X177966667Y-103500000D02*
G75*
G02*
X177766667Y-103300000I1J200001D01*
G01*
X181366667Y-100500000D02*
G75*
G02*
X181566667Y-100700000I0J-200000D01*
G01*
X181566667Y-103300000D02*
G75*
G02*
X181366667Y-103500000I-200000J0D01*
G01*
%TO.C,D11*%
X159433333Y-85050000D02*
X159433333Y-82450000D01*
X159633333Y-82250000D02*
X163033333Y-82250000D01*
X163033333Y-85250000D02*
X159633333Y-85250000D01*
X163233333Y-82450000D02*
X163233333Y-85050000D01*
X159433333Y-82450000D02*
G75*
G02*
X159633333Y-82250000I200000J0D01*
G01*
X159633333Y-85250000D02*
G75*
G02*
X159433333Y-85050000I0J200000D01*
G01*
X163033333Y-82250000D02*
G75*
G02*
X163233333Y-82450000I-1J-200001D01*
G01*
X163233333Y-85050000D02*
G75*
G02*
X163033333Y-85250000I-200001J1D01*
G01*
%TO.C,D25*%
X141100000Y-140550000D02*
X141100000Y-137950000D01*
X141300000Y-137750000D02*
X144700000Y-137750000D01*
X144700000Y-140750000D02*
X141300000Y-140750000D01*
X144900000Y-137950000D02*
X144900000Y-140550000D01*
X141100000Y-137950000D02*
G75*
G02*
X141300000Y-137750000I200001J-1D01*
G01*
X141300000Y-140750000D02*
G75*
G02*
X141100000Y-140550000I1J200001D01*
G01*
X144700000Y-137750000D02*
G75*
G02*
X144900000Y-137950000I0J-200000D01*
G01*
X144900000Y-140550000D02*
G75*
G02*
X144700000Y-140750000I-200000J0D01*
G01*
%TO.C,D19*%
X159433333Y-122050000D02*
X159433333Y-119450000D01*
X159633333Y-119250000D02*
X163033333Y-119250000D01*
X163033333Y-122250000D02*
X159633333Y-122250000D01*
X163233333Y-119450000D02*
X163233333Y-122050000D01*
X159433333Y-119450000D02*
G75*
G02*
X159633333Y-119250000I200000J0D01*
G01*
X159633333Y-122250000D02*
G75*
G02*
X159433333Y-122050000I0J200000D01*
G01*
X163033333Y-119250000D02*
G75*
G02*
X163233333Y-119450000I-1J-200001D01*
G01*
X163233333Y-122050000D02*
G75*
G02*
X163033333Y-122250000I-200001J1D01*
G01*
%TO.C,D22*%
X196100000Y-140550000D02*
X196100000Y-137950000D01*
X196300000Y-137750000D02*
X199700000Y-137750000D01*
X199700000Y-140750000D02*
X196300000Y-140750000D01*
X199900000Y-137950000D02*
X199900000Y-140550000D01*
X196100000Y-137950000D02*
G75*
G02*
X196300000Y-137750000I200001J-1D01*
G01*
X196300000Y-140750000D02*
G75*
G02*
X196100000Y-140550000I1J200001D01*
G01*
X199700000Y-137750000D02*
G75*
G02*
X199900000Y-137950000I0J-200000D01*
G01*
X199900000Y-140550000D02*
G75*
G02*
X199700000Y-140750000I-200000J0D01*
G01*
%TO.C,D20*%
X177766667Y-122050000D02*
X177766667Y-119450000D01*
X177966667Y-119250000D02*
X181366667Y-119250000D01*
X181366667Y-122250000D02*
X177966667Y-122250000D01*
X181566667Y-119450000D02*
X181566667Y-122050000D01*
X177766667Y-119450000D02*
G75*
G02*
X177966667Y-119250000I200000J0D01*
G01*
X177966667Y-122250000D02*
G75*
G02*
X177766667Y-122050000I0J200000D01*
G01*
X181366667Y-119250000D02*
G75*
G02*
X181566667Y-119450000I-1J-200001D01*
G01*
X181566667Y-122050000D02*
G75*
G02*
X181366667Y-122250000I-200001J1D01*
G01*
%TO.C,D18*%
X142100000Y-122050000D02*
X142100000Y-119450000D01*
X142300000Y-119250000D02*
X145700000Y-119250000D01*
X145700000Y-122250000D02*
X142300000Y-122250000D01*
X145900000Y-119450000D02*
X145900000Y-122050000D01*
X142100000Y-119450000D02*
G75*
G02*
X142300000Y-119250000I200000J0D01*
G01*
X142300000Y-122250000D02*
G75*
G02*
X142100000Y-122050000I0J200000D01*
G01*
X145700000Y-119250000D02*
G75*
G02*
X145900000Y-119450000I-1J-200001D01*
G01*
X145900000Y-122050000D02*
G75*
G02*
X145700000Y-122250000I-200001J1D01*
G01*
%TO.C,D12*%
X177766667Y-85050000D02*
X177766667Y-82450000D01*
X177966667Y-82250000D02*
X181366667Y-82250000D01*
X181366667Y-85250000D02*
X177966667Y-85250000D01*
X181566667Y-82450000D02*
X181566667Y-85050000D01*
X177766667Y-82450000D02*
G75*
G02*
X177966667Y-82250000I200000J0D01*
G01*
X177966667Y-85250000D02*
G75*
G02*
X177766667Y-85050000I0J200000D01*
G01*
X181366667Y-82250000D02*
G75*
G02*
X181566667Y-82450000I-1J-200001D01*
G01*
X181566667Y-85050000D02*
G75*
G02*
X181366667Y-85250000I-200001J1D01*
G01*
%TO.C,D10*%
X139750000Y-85450000D02*
X139750000Y-82050000D01*
X139950000Y-81850000D02*
X142550000Y-81850000D01*
X142550000Y-85650000D02*
X139950000Y-85650000D01*
X142750000Y-82050000D02*
X142750000Y-85450000D01*
X139750000Y-82050000D02*
G75*
G02*
X139950000Y-81850000I200000J0D01*
G01*
X139950000Y-85650000D02*
G75*
G02*
X139750000Y-85450000I1J200001D01*
G01*
X142550000Y-81850000D02*
G75*
G02*
X142750000Y-82050000I0J-200000D01*
G01*
X142750000Y-85450000D02*
G75*
G02*
X142550000Y-85650000I-200001J1D01*
G01*
%TO.C,D23*%
X177766667Y-140550000D02*
X177766667Y-137950000D01*
X177966667Y-137750000D02*
X181366667Y-137750000D01*
X181366667Y-140750000D02*
X177966667Y-140750000D01*
X181566667Y-137950000D02*
X181566667Y-140550000D01*
X177766667Y-137950000D02*
G75*
G02*
X177966667Y-137750000I200001J-1D01*
G01*
X177966667Y-140750000D02*
G75*
G02*
X177766667Y-140550000I1J200001D01*
G01*
X181366667Y-137750000D02*
G75*
G02*
X181566667Y-137950000I0J-200000D01*
G01*
X181566667Y-140550000D02*
G75*
G02*
X181366667Y-140750000I-200000J0D01*
G01*
%TO.C,D21*%
X196500000Y-122450000D02*
X196500000Y-119050000D01*
X196700000Y-118850000D02*
X199300000Y-118850000D01*
X199300000Y-122650000D02*
X196700000Y-122650000D01*
X199500000Y-119050000D02*
X199500000Y-122450000D01*
X196500000Y-119050000D02*
G75*
G02*
X196700000Y-118850000I200000J0D01*
G01*
X196700000Y-122650000D02*
G75*
G02*
X196500000Y-122450000I1J200001D01*
G01*
X199300000Y-118850000D02*
G75*
G02*
X199500000Y-119050000I0J-200000D01*
G01*
X199500000Y-122450000D02*
G75*
G02*
X199300000Y-122650000I-200001J1D01*
G01*
%TO.C,D14*%
X196100000Y-103300000D02*
X196100000Y-100700000D01*
X196300000Y-100500000D02*
X199700000Y-100500000D01*
X199700000Y-103500000D02*
X196300000Y-103500000D01*
X199900000Y-100700000D02*
X199900000Y-103300000D01*
X196100000Y-100700000D02*
G75*
G02*
X196300000Y-100500000I200001J-1D01*
G01*
X196300000Y-103500000D02*
G75*
G02*
X196100000Y-103300000I1J200001D01*
G01*
X199700000Y-100500000D02*
G75*
G02*
X199900000Y-100700000I0J-200000D01*
G01*
X199900000Y-103300000D02*
G75*
G02*
X199700000Y-103500000I-200000J0D01*
G01*
%TO.C,D17*%
X141100000Y-103300000D02*
X141100000Y-100700000D01*
X141300000Y-100500000D02*
X144700000Y-100500000D01*
X144700000Y-103500000D02*
X141300000Y-103500000D01*
X144900000Y-100700000D02*
X144900000Y-103300000D01*
X141100000Y-100700000D02*
G75*
G02*
X141300000Y-100500000I200001J-1D01*
G01*
X141300000Y-103500000D02*
G75*
G02*
X141100000Y-103300000I1J200001D01*
G01*
X144700000Y-100500000D02*
G75*
G02*
X144900000Y-100700000I0J-200000D01*
G01*
X144900000Y-103300000D02*
G75*
G02*
X144700000Y-103500000I-200000J0D01*
G01*
%TO.C,D16*%
X159433333Y-103300000D02*
X159433333Y-100700000D01*
X159633333Y-100500000D02*
X163033333Y-100500000D01*
X163033333Y-103500000D02*
X159633333Y-103500000D01*
X163233333Y-100700000D02*
X163233333Y-103300000D01*
X159433333Y-100700000D02*
G75*
G02*
X159633333Y-100500000I200001J-1D01*
G01*
X159633333Y-103500000D02*
G75*
G02*
X159433333Y-103300000I1J200001D01*
G01*
X163033333Y-100500000D02*
G75*
G02*
X163233333Y-100700000I0J-200000D01*
G01*
X163233333Y-103300000D02*
G75*
G02*
X163033333Y-103500000I-200000J0D01*
G01*
%TO.C,D13*%
X196500000Y-85450000D02*
X196500000Y-82050000D01*
X196700000Y-81850000D02*
X199300000Y-81850000D01*
X199300000Y-85650000D02*
X196700000Y-85650000D01*
X199500000Y-82050000D02*
X199500000Y-85450000D01*
X196500000Y-82050000D02*
G75*
G02*
X196700000Y-81850000I200000J0D01*
G01*
X196700000Y-85650000D02*
G75*
G02*
X196500000Y-85450000I1J200001D01*
G01*
X199300000Y-81850000D02*
G75*
G02*
X199500000Y-82050000I0J-200000D01*
G01*
X199500000Y-85450000D02*
G75*
G02*
X199300000Y-85650000I-200001J1D01*
G01*
%TD*%
M02*
