%TF.GenerationSoftware,KiCad,Pcbnew,9.0.2*%
%TF.CreationDate,2025-06-22T22:22:16+03:00*%
%TF.ProjectId,macropad,6d616372-6f70-4616-942e-6b696361645f,rev?*%
%TF.SameCoordinates,Original*%
%TF.FileFunction,Legend,Top*%
%TF.FilePolarity,Positive*%
%FSLAX46Y46*%
G04 Gerber Fmt 4.6, Leading zero omitted, Abs format (unit mm)*
G04 Created by KiCad (PCBNEW 9.0.2) date 2025-06-22 22:22:16*
%MOMM*%
%LPD*%
G01*
G04 APERTURE LIST*
%ADD10C,0.150000*%
%ADD11C,0.100000*%
%ADD12C,0.120000*%
%ADD13C,0.040000*%
G04 APERTURE END LIST*
D10*
X160483332Y-141666033D02*
X160483332Y-140966033D01*
X160483332Y-140966033D02*
X160649999Y-140966033D01*
X160649999Y-140966033D02*
X160749999Y-140999366D01*
X160749999Y-140999366D02*
X160816666Y-141066033D01*
X160816666Y-141066033D02*
X160849999Y-141132700D01*
X160849999Y-141132700D02*
X160883332Y-141266033D01*
X160883332Y-141266033D02*
X160883332Y-141366033D01*
X160883332Y-141366033D02*
X160849999Y-141499366D01*
X160849999Y-141499366D02*
X160816666Y-141566033D01*
X160816666Y-141566033D02*
X160749999Y-141632700D01*
X160749999Y-141632700D02*
X160649999Y-141666033D01*
X160649999Y-141666033D02*
X160483332Y-141666033D01*
X161149999Y-141032700D02*
X161183332Y-140999366D01*
X161183332Y-140999366D02*
X161249999Y-140966033D01*
X161249999Y-140966033D02*
X161416666Y-140966033D01*
X161416666Y-140966033D02*
X161483332Y-140999366D01*
X161483332Y-140999366D02*
X161516666Y-141032700D01*
X161516666Y-141032700D02*
X161549999Y-141099366D01*
X161549999Y-141099366D02*
X161549999Y-141166033D01*
X161549999Y-141166033D02*
X161516666Y-141266033D01*
X161516666Y-141266033D02*
X161116666Y-141666033D01*
X161116666Y-141666033D02*
X161549999Y-141666033D01*
X162149999Y-141199366D02*
X162149999Y-141666033D01*
X161983333Y-140932700D02*
X161816666Y-141432700D01*
X161816666Y-141432700D02*
X162249999Y-141432700D01*
X178816666Y-104416033D02*
X178816666Y-103716033D01*
X178816666Y-103716033D02*
X178983333Y-103716033D01*
X178983333Y-103716033D02*
X179083333Y-103749366D01*
X179083333Y-103749366D02*
X179150000Y-103816033D01*
X179150000Y-103816033D02*
X179183333Y-103882700D01*
X179183333Y-103882700D02*
X179216666Y-104016033D01*
X179216666Y-104016033D02*
X179216666Y-104116033D01*
X179216666Y-104116033D02*
X179183333Y-104249366D01*
X179183333Y-104249366D02*
X179150000Y-104316033D01*
X179150000Y-104316033D02*
X179083333Y-104382700D01*
X179083333Y-104382700D02*
X178983333Y-104416033D01*
X178983333Y-104416033D02*
X178816666Y-104416033D01*
X179883333Y-104416033D02*
X179483333Y-104416033D01*
X179683333Y-104416033D02*
X179683333Y-103716033D01*
X179683333Y-103716033D02*
X179616666Y-103816033D01*
X179616666Y-103816033D02*
X179550000Y-103882700D01*
X179550000Y-103882700D02*
X179483333Y-103916033D01*
X180516667Y-103716033D02*
X180183333Y-103716033D01*
X180183333Y-103716033D02*
X180150000Y-104049366D01*
X180150000Y-104049366D02*
X180183333Y-104016033D01*
X180183333Y-104016033D02*
X180250000Y-103982700D01*
X180250000Y-103982700D02*
X180416667Y-103982700D01*
X180416667Y-103982700D02*
X180483333Y-104016033D01*
X180483333Y-104016033D02*
X180516667Y-104049366D01*
X180516667Y-104049366D02*
X180550000Y-104116033D01*
X180550000Y-104116033D02*
X180550000Y-104282700D01*
X180550000Y-104282700D02*
X180516667Y-104349366D01*
X180516667Y-104349366D02*
X180483333Y-104382700D01*
X180483333Y-104382700D02*
X180416667Y-104416033D01*
X180416667Y-104416033D02*
X180250000Y-104416033D01*
X180250000Y-104416033D02*
X180183333Y-104382700D01*
X180183333Y-104382700D02*
X180150000Y-104349366D01*
X168246667Y-84933200D02*
X168389524Y-84980819D01*
X168389524Y-84980819D02*
X168627619Y-84980819D01*
X168627619Y-84980819D02*
X168722857Y-84933200D01*
X168722857Y-84933200D02*
X168770476Y-84885580D01*
X168770476Y-84885580D02*
X168818095Y-84790342D01*
X168818095Y-84790342D02*
X168818095Y-84695104D01*
X168818095Y-84695104D02*
X168770476Y-84599866D01*
X168770476Y-84599866D02*
X168722857Y-84552247D01*
X168722857Y-84552247D02*
X168627619Y-84504628D01*
X168627619Y-84504628D02*
X168437143Y-84457009D01*
X168437143Y-84457009D02*
X168341905Y-84409390D01*
X168341905Y-84409390D02*
X168294286Y-84361771D01*
X168294286Y-84361771D02*
X168246667Y-84266533D01*
X168246667Y-84266533D02*
X168246667Y-84171295D01*
X168246667Y-84171295D02*
X168294286Y-84076057D01*
X168294286Y-84076057D02*
X168341905Y-84028438D01*
X168341905Y-84028438D02*
X168437143Y-83980819D01*
X168437143Y-83980819D02*
X168675238Y-83980819D01*
X168675238Y-83980819D02*
X168818095Y-84028438D01*
X169151429Y-83980819D02*
X169389524Y-84980819D01*
X169389524Y-84980819D02*
X169580000Y-84266533D01*
X169580000Y-84266533D02*
X169770476Y-84980819D01*
X169770476Y-84980819D02*
X170008572Y-83980819D01*
X170818095Y-84314152D02*
X170818095Y-84980819D01*
X170580000Y-83933200D02*
X170341905Y-84647485D01*
X170341905Y-84647485D02*
X170960952Y-84647485D01*
X162183333Y-81333966D02*
X162183333Y-82033966D01*
X162183333Y-82033966D02*
X162016666Y-82033966D01*
X162016666Y-82033966D02*
X161916666Y-82000633D01*
X161916666Y-82000633D02*
X161850000Y-81933966D01*
X161850000Y-81933966D02*
X161816666Y-81867300D01*
X161816666Y-81867300D02*
X161783333Y-81733966D01*
X161783333Y-81733966D02*
X161783333Y-81633966D01*
X161783333Y-81633966D02*
X161816666Y-81500633D01*
X161816666Y-81500633D02*
X161850000Y-81433966D01*
X161850000Y-81433966D02*
X161916666Y-81367300D01*
X161916666Y-81367300D02*
X162016666Y-81333966D01*
X162016666Y-81333966D02*
X162183333Y-81333966D01*
X161116666Y-81333966D02*
X161516666Y-81333966D01*
X161316666Y-81333966D02*
X161316666Y-82033966D01*
X161316666Y-82033966D02*
X161383333Y-81933966D01*
X161383333Y-81933966D02*
X161450000Y-81867300D01*
X161450000Y-81867300D02*
X161516666Y-81833966D01*
X160449999Y-81333966D02*
X160849999Y-81333966D01*
X160649999Y-81333966D02*
X160649999Y-82033966D01*
X160649999Y-82033966D02*
X160716666Y-81933966D01*
X160716666Y-81933966D02*
X160783333Y-81867300D01*
X160783333Y-81867300D02*
X160849999Y-81833966D01*
X142149999Y-141666033D02*
X142149999Y-140966033D01*
X142149999Y-140966033D02*
X142316666Y-140966033D01*
X142316666Y-140966033D02*
X142416666Y-140999366D01*
X142416666Y-140999366D02*
X142483333Y-141066033D01*
X142483333Y-141066033D02*
X142516666Y-141132700D01*
X142516666Y-141132700D02*
X142549999Y-141266033D01*
X142549999Y-141266033D02*
X142549999Y-141366033D01*
X142549999Y-141366033D02*
X142516666Y-141499366D01*
X142516666Y-141499366D02*
X142483333Y-141566033D01*
X142483333Y-141566033D02*
X142416666Y-141632700D01*
X142416666Y-141632700D02*
X142316666Y-141666033D01*
X142316666Y-141666033D02*
X142149999Y-141666033D01*
X142816666Y-141032700D02*
X142849999Y-140999366D01*
X142849999Y-140999366D02*
X142916666Y-140966033D01*
X142916666Y-140966033D02*
X143083333Y-140966033D01*
X143083333Y-140966033D02*
X143149999Y-140999366D01*
X143149999Y-140999366D02*
X143183333Y-141032700D01*
X143183333Y-141032700D02*
X143216666Y-141099366D01*
X143216666Y-141099366D02*
X143216666Y-141166033D01*
X143216666Y-141166033D02*
X143183333Y-141266033D01*
X143183333Y-141266033D02*
X142783333Y-141666033D01*
X142783333Y-141666033D02*
X143216666Y-141666033D01*
X143850000Y-140966033D02*
X143516666Y-140966033D01*
X143516666Y-140966033D02*
X143483333Y-141299366D01*
X143483333Y-141299366D02*
X143516666Y-141266033D01*
X143516666Y-141266033D02*
X143583333Y-141232700D01*
X143583333Y-141232700D02*
X143750000Y-141232700D01*
X143750000Y-141232700D02*
X143816666Y-141266033D01*
X143816666Y-141266033D02*
X143850000Y-141299366D01*
X143850000Y-141299366D02*
X143883333Y-141366033D01*
X143883333Y-141366033D02*
X143883333Y-141532700D01*
X143883333Y-141532700D02*
X143850000Y-141599366D01*
X143850000Y-141599366D02*
X143816666Y-141632700D01*
X143816666Y-141632700D02*
X143750000Y-141666033D01*
X143750000Y-141666033D02*
X143583333Y-141666033D01*
X143583333Y-141666033D02*
X143516666Y-141632700D01*
X143516666Y-141632700D02*
X143483333Y-141599366D01*
X149196667Y-84933200D02*
X149339524Y-84980819D01*
X149339524Y-84980819D02*
X149577619Y-84980819D01*
X149577619Y-84980819D02*
X149672857Y-84933200D01*
X149672857Y-84933200D02*
X149720476Y-84885580D01*
X149720476Y-84885580D02*
X149768095Y-84790342D01*
X149768095Y-84790342D02*
X149768095Y-84695104D01*
X149768095Y-84695104D02*
X149720476Y-84599866D01*
X149720476Y-84599866D02*
X149672857Y-84552247D01*
X149672857Y-84552247D02*
X149577619Y-84504628D01*
X149577619Y-84504628D02*
X149387143Y-84457009D01*
X149387143Y-84457009D02*
X149291905Y-84409390D01*
X149291905Y-84409390D02*
X149244286Y-84361771D01*
X149244286Y-84361771D02*
X149196667Y-84266533D01*
X149196667Y-84266533D02*
X149196667Y-84171295D01*
X149196667Y-84171295D02*
X149244286Y-84076057D01*
X149244286Y-84076057D02*
X149291905Y-84028438D01*
X149291905Y-84028438D02*
X149387143Y-83980819D01*
X149387143Y-83980819D02*
X149625238Y-83980819D01*
X149625238Y-83980819D02*
X149768095Y-84028438D01*
X150101429Y-83980819D02*
X150339524Y-84980819D01*
X150339524Y-84980819D02*
X150530000Y-84266533D01*
X150530000Y-84266533D02*
X150720476Y-84980819D01*
X150720476Y-84980819D02*
X150958572Y-83980819D01*
X151863333Y-84980819D02*
X151291905Y-84980819D01*
X151577619Y-84980819D02*
X151577619Y-83980819D01*
X151577619Y-83980819D02*
X151482381Y-84123676D01*
X151482381Y-84123676D02*
X151387143Y-84218914D01*
X151387143Y-84218914D02*
X151291905Y-84266533D01*
X162183333Y-118333966D02*
X162183333Y-119033966D01*
X162183333Y-119033966D02*
X162016666Y-119033966D01*
X162016666Y-119033966D02*
X161916666Y-119000633D01*
X161916666Y-119000633D02*
X161850000Y-118933966D01*
X161850000Y-118933966D02*
X161816666Y-118867300D01*
X161816666Y-118867300D02*
X161783333Y-118733966D01*
X161783333Y-118733966D02*
X161783333Y-118633966D01*
X161783333Y-118633966D02*
X161816666Y-118500633D01*
X161816666Y-118500633D02*
X161850000Y-118433966D01*
X161850000Y-118433966D02*
X161916666Y-118367300D01*
X161916666Y-118367300D02*
X162016666Y-118333966D01*
X162016666Y-118333966D02*
X162183333Y-118333966D01*
X161116666Y-118333966D02*
X161516666Y-118333966D01*
X161316666Y-118333966D02*
X161316666Y-119033966D01*
X161316666Y-119033966D02*
X161383333Y-118933966D01*
X161383333Y-118933966D02*
X161450000Y-118867300D01*
X161450000Y-118867300D02*
X161516666Y-118833966D01*
X160783333Y-118333966D02*
X160649999Y-118333966D01*
X160649999Y-118333966D02*
X160583333Y-118367300D01*
X160583333Y-118367300D02*
X160549999Y-118400633D01*
X160549999Y-118400633D02*
X160483333Y-118500633D01*
X160483333Y-118500633D02*
X160449999Y-118633966D01*
X160449999Y-118633966D02*
X160449999Y-118900633D01*
X160449999Y-118900633D02*
X160483333Y-118967300D01*
X160483333Y-118967300D02*
X160516666Y-119000633D01*
X160516666Y-119000633D02*
X160583333Y-119033966D01*
X160583333Y-119033966D02*
X160716666Y-119033966D01*
X160716666Y-119033966D02*
X160783333Y-119000633D01*
X160783333Y-119000633D02*
X160816666Y-118967300D01*
X160816666Y-118967300D02*
X160849999Y-118900633D01*
X160849999Y-118900633D02*
X160849999Y-118733966D01*
X160849999Y-118733966D02*
X160816666Y-118667300D01*
X160816666Y-118667300D02*
X160783333Y-118633966D01*
X160783333Y-118633966D02*
X160716666Y-118600633D01*
X160716666Y-118600633D02*
X160583333Y-118600633D01*
X160583333Y-118600633D02*
X160516666Y-118633966D01*
X160516666Y-118633966D02*
X160483333Y-118667300D01*
X160483333Y-118667300D02*
X160449999Y-118733966D01*
X197149999Y-141666033D02*
X197149999Y-140966033D01*
X197149999Y-140966033D02*
X197316666Y-140966033D01*
X197316666Y-140966033D02*
X197416666Y-140999366D01*
X197416666Y-140999366D02*
X197483333Y-141066033D01*
X197483333Y-141066033D02*
X197516666Y-141132700D01*
X197516666Y-141132700D02*
X197549999Y-141266033D01*
X197549999Y-141266033D02*
X197549999Y-141366033D01*
X197549999Y-141366033D02*
X197516666Y-141499366D01*
X197516666Y-141499366D02*
X197483333Y-141566033D01*
X197483333Y-141566033D02*
X197416666Y-141632700D01*
X197416666Y-141632700D02*
X197316666Y-141666033D01*
X197316666Y-141666033D02*
X197149999Y-141666033D01*
X197816666Y-141032700D02*
X197849999Y-140999366D01*
X197849999Y-140999366D02*
X197916666Y-140966033D01*
X197916666Y-140966033D02*
X198083333Y-140966033D01*
X198083333Y-140966033D02*
X198149999Y-140999366D01*
X198149999Y-140999366D02*
X198183333Y-141032700D01*
X198183333Y-141032700D02*
X198216666Y-141099366D01*
X198216666Y-141099366D02*
X198216666Y-141166033D01*
X198216666Y-141166033D02*
X198183333Y-141266033D01*
X198183333Y-141266033D02*
X197783333Y-141666033D01*
X197783333Y-141666033D02*
X198216666Y-141666033D01*
X198483333Y-141032700D02*
X198516666Y-140999366D01*
X198516666Y-140999366D02*
X198583333Y-140966033D01*
X198583333Y-140966033D02*
X198750000Y-140966033D01*
X198750000Y-140966033D02*
X198816666Y-140999366D01*
X198816666Y-140999366D02*
X198850000Y-141032700D01*
X198850000Y-141032700D02*
X198883333Y-141099366D01*
X198883333Y-141099366D02*
X198883333Y-141166033D01*
X198883333Y-141166033D02*
X198850000Y-141266033D01*
X198850000Y-141266033D02*
X198450000Y-141666033D01*
X198450000Y-141666033D02*
X198883333Y-141666033D01*
X180516667Y-118333966D02*
X180516667Y-119033966D01*
X180516667Y-119033966D02*
X180350000Y-119033966D01*
X180350000Y-119033966D02*
X180250000Y-119000633D01*
X180250000Y-119000633D02*
X180183334Y-118933966D01*
X180183334Y-118933966D02*
X180150000Y-118867300D01*
X180150000Y-118867300D02*
X180116667Y-118733966D01*
X180116667Y-118733966D02*
X180116667Y-118633966D01*
X180116667Y-118633966D02*
X180150000Y-118500633D01*
X180150000Y-118500633D02*
X180183334Y-118433966D01*
X180183334Y-118433966D02*
X180250000Y-118367300D01*
X180250000Y-118367300D02*
X180350000Y-118333966D01*
X180350000Y-118333966D02*
X180516667Y-118333966D01*
X179850000Y-118967300D02*
X179816667Y-119000633D01*
X179816667Y-119000633D02*
X179750000Y-119033966D01*
X179750000Y-119033966D02*
X179583334Y-119033966D01*
X179583334Y-119033966D02*
X179516667Y-119000633D01*
X179516667Y-119000633D02*
X179483334Y-118967300D01*
X179483334Y-118967300D02*
X179450000Y-118900633D01*
X179450000Y-118900633D02*
X179450000Y-118833966D01*
X179450000Y-118833966D02*
X179483334Y-118733966D01*
X179483334Y-118733966D02*
X179883334Y-118333966D01*
X179883334Y-118333966D02*
X179450000Y-118333966D01*
X179016667Y-119033966D02*
X178950000Y-119033966D01*
X178950000Y-119033966D02*
X178883333Y-119000633D01*
X178883333Y-119000633D02*
X178850000Y-118967300D01*
X178850000Y-118967300D02*
X178816667Y-118900633D01*
X178816667Y-118900633D02*
X178783333Y-118767300D01*
X178783333Y-118767300D02*
X178783333Y-118600633D01*
X178783333Y-118600633D02*
X178816667Y-118467300D01*
X178816667Y-118467300D02*
X178850000Y-118400633D01*
X178850000Y-118400633D02*
X178883333Y-118367300D01*
X178883333Y-118367300D02*
X178950000Y-118333966D01*
X178950000Y-118333966D02*
X179016667Y-118333966D01*
X179016667Y-118333966D02*
X179083333Y-118367300D01*
X179083333Y-118367300D02*
X179116667Y-118400633D01*
X179116667Y-118400633D02*
X179150000Y-118467300D01*
X179150000Y-118467300D02*
X179183333Y-118600633D01*
X179183333Y-118600633D02*
X179183333Y-118767300D01*
X179183333Y-118767300D02*
X179150000Y-118900633D01*
X179150000Y-118900633D02*
X179116667Y-118967300D01*
X179116667Y-118967300D02*
X179083333Y-119000633D01*
X179083333Y-119000633D02*
X179016667Y-119033966D01*
X168246667Y-123033200D02*
X168389524Y-123080819D01*
X168389524Y-123080819D02*
X168627619Y-123080819D01*
X168627619Y-123080819D02*
X168722857Y-123033200D01*
X168722857Y-123033200D02*
X168770476Y-122985580D01*
X168770476Y-122985580D02*
X168818095Y-122890342D01*
X168818095Y-122890342D02*
X168818095Y-122795104D01*
X168818095Y-122795104D02*
X168770476Y-122699866D01*
X168770476Y-122699866D02*
X168722857Y-122652247D01*
X168722857Y-122652247D02*
X168627619Y-122604628D01*
X168627619Y-122604628D02*
X168437143Y-122557009D01*
X168437143Y-122557009D02*
X168341905Y-122509390D01*
X168341905Y-122509390D02*
X168294286Y-122461771D01*
X168294286Y-122461771D02*
X168246667Y-122366533D01*
X168246667Y-122366533D02*
X168246667Y-122271295D01*
X168246667Y-122271295D02*
X168294286Y-122176057D01*
X168294286Y-122176057D02*
X168341905Y-122128438D01*
X168341905Y-122128438D02*
X168437143Y-122080819D01*
X168437143Y-122080819D02*
X168675238Y-122080819D01*
X168675238Y-122080819D02*
X168818095Y-122128438D01*
X169151429Y-122080819D02*
X169389524Y-123080819D01*
X169389524Y-123080819D02*
X169580000Y-122366533D01*
X169580000Y-122366533D02*
X169770476Y-123080819D01*
X169770476Y-123080819D02*
X170008572Y-122080819D01*
X170818095Y-122080819D02*
X170627619Y-122080819D01*
X170627619Y-122080819D02*
X170532381Y-122128438D01*
X170532381Y-122128438D02*
X170484762Y-122176057D01*
X170484762Y-122176057D02*
X170389524Y-122318914D01*
X170389524Y-122318914D02*
X170341905Y-122509390D01*
X170341905Y-122509390D02*
X170341905Y-122890342D01*
X170341905Y-122890342D02*
X170389524Y-122985580D01*
X170389524Y-122985580D02*
X170437143Y-123033200D01*
X170437143Y-123033200D02*
X170532381Y-123080819D01*
X170532381Y-123080819D02*
X170722857Y-123080819D01*
X170722857Y-123080819D02*
X170818095Y-123033200D01*
X170818095Y-123033200D02*
X170865714Y-122985580D01*
X170865714Y-122985580D02*
X170913333Y-122890342D01*
X170913333Y-122890342D02*
X170913333Y-122652247D01*
X170913333Y-122652247D02*
X170865714Y-122557009D01*
X170865714Y-122557009D02*
X170818095Y-122509390D01*
X170818095Y-122509390D02*
X170722857Y-122461771D01*
X170722857Y-122461771D02*
X170532381Y-122461771D01*
X170532381Y-122461771D02*
X170437143Y-122509390D01*
X170437143Y-122509390D02*
X170389524Y-122557009D01*
X170389524Y-122557009D02*
X170341905Y-122652247D01*
X144850000Y-119933966D02*
X144850000Y-120633966D01*
X144850000Y-120633966D02*
X144683333Y-120633966D01*
X144683333Y-120633966D02*
X144583333Y-120600633D01*
X144583333Y-120600633D02*
X144516667Y-120533966D01*
X144516667Y-120533966D02*
X144483333Y-120467300D01*
X144483333Y-120467300D02*
X144450000Y-120333966D01*
X144450000Y-120333966D02*
X144450000Y-120233966D01*
X144450000Y-120233966D02*
X144483333Y-120100633D01*
X144483333Y-120100633D02*
X144516667Y-120033966D01*
X144516667Y-120033966D02*
X144583333Y-119967300D01*
X144583333Y-119967300D02*
X144683333Y-119933966D01*
X144683333Y-119933966D02*
X144850000Y-119933966D01*
X143783333Y-119933966D02*
X144183333Y-119933966D01*
X143983333Y-119933966D02*
X143983333Y-120633966D01*
X143983333Y-120633966D02*
X144050000Y-120533966D01*
X144050000Y-120533966D02*
X144116667Y-120467300D01*
X144116667Y-120467300D02*
X144183333Y-120433966D01*
X143383333Y-120333966D02*
X143450000Y-120367300D01*
X143450000Y-120367300D02*
X143483333Y-120400633D01*
X143483333Y-120400633D02*
X143516666Y-120467300D01*
X143516666Y-120467300D02*
X143516666Y-120500633D01*
X143516666Y-120500633D02*
X143483333Y-120567300D01*
X143483333Y-120567300D02*
X143450000Y-120600633D01*
X143450000Y-120600633D02*
X143383333Y-120633966D01*
X143383333Y-120633966D02*
X143250000Y-120633966D01*
X143250000Y-120633966D02*
X143183333Y-120600633D01*
X143183333Y-120600633D02*
X143150000Y-120567300D01*
X143150000Y-120567300D02*
X143116666Y-120500633D01*
X143116666Y-120500633D02*
X143116666Y-120467300D01*
X143116666Y-120467300D02*
X143150000Y-120400633D01*
X143150000Y-120400633D02*
X143183333Y-120367300D01*
X143183333Y-120367300D02*
X143250000Y-120333966D01*
X143250000Y-120333966D02*
X143383333Y-120333966D01*
X143383333Y-120333966D02*
X143450000Y-120300633D01*
X143450000Y-120300633D02*
X143483333Y-120267300D01*
X143483333Y-120267300D02*
X143516666Y-120200633D01*
X143516666Y-120200633D02*
X143516666Y-120067300D01*
X143516666Y-120067300D02*
X143483333Y-120000633D01*
X143483333Y-120000633D02*
X143450000Y-119967300D01*
X143450000Y-119967300D02*
X143383333Y-119933966D01*
X143383333Y-119933966D02*
X143250000Y-119933966D01*
X143250000Y-119933966D02*
X143183333Y-119967300D01*
X143183333Y-119967300D02*
X143150000Y-120000633D01*
X143150000Y-120000633D02*
X143116666Y-120067300D01*
X143116666Y-120067300D02*
X143116666Y-120200633D01*
X143116666Y-120200633D02*
X143150000Y-120267300D01*
X143150000Y-120267300D02*
X143183333Y-120300633D01*
X143183333Y-120300633D02*
X143250000Y-120333966D01*
X180516667Y-81333966D02*
X180516667Y-82033966D01*
X180516667Y-82033966D02*
X180350000Y-82033966D01*
X180350000Y-82033966D02*
X180250000Y-82000633D01*
X180250000Y-82000633D02*
X180183334Y-81933966D01*
X180183334Y-81933966D02*
X180150000Y-81867300D01*
X180150000Y-81867300D02*
X180116667Y-81733966D01*
X180116667Y-81733966D02*
X180116667Y-81633966D01*
X180116667Y-81633966D02*
X180150000Y-81500633D01*
X180150000Y-81500633D02*
X180183334Y-81433966D01*
X180183334Y-81433966D02*
X180250000Y-81367300D01*
X180250000Y-81367300D02*
X180350000Y-81333966D01*
X180350000Y-81333966D02*
X180516667Y-81333966D01*
X179450000Y-81333966D02*
X179850000Y-81333966D01*
X179650000Y-81333966D02*
X179650000Y-82033966D01*
X179650000Y-82033966D02*
X179716667Y-81933966D01*
X179716667Y-81933966D02*
X179783334Y-81867300D01*
X179783334Y-81867300D02*
X179850000Y-81833966D01*
X179183333Y-81967300D02*
X179150000Y-82000633D01*
X179150000Y-82000633D02*
X179083333Y-82033966D01*
X179083333Y-82033966D02*
X178916667Y-82033966D01*
X178916667Y-82033966D02*
X178850000Y-82000633D01*
X178850000Y-82000633D02*
X178816667Y-81967300D01*
X178816667Y-81967300D02*
X178783333Y-81900633D01*
X178783333Y-81900633D02*
X178783333Y-81833966D01*
X178783333Y-81833966D02*
X178816667Y-81733966D01*
X178816667Y-81733966D02*
X179216667Y-81333966D01*
X179216667Y-81333966D02*
X178783333Y-81333966D01*
X143666033Y-84600000D02*
X142966033Y-84600000D01*
X142966033Y-84600000D02*
X142966033Y-84433333D01*
X142966033Y-84433333D02*
X142999366Y-84333333D01*
X142999366Y-84333333D02*
X143066033Y-84266667D01*
X143066033Y-84266667D02*
X143132700Y-84233333D01*
X143132700Y-84233333D02*
X143266033Y-84200000D01*
X143266033Y-84200000D02*
X143366033Y-84200000D01*
X143366033Y-84200000D02*
X143499366Y-84233333D01*
X143499366Y-84233333D02*
X143566033Y-84266667D01*
X143566033Y-84266667D02*
X143632700Y-84333333D01*
X143632700Y-84333333D02*
X143666033Y-84433333D01*
X143666033Y-84433333D02*
X143666033Y-84600000D01*
X143666033Y-83533333D02*
X143666033Y-83933333D01*
X143666033Y-83733333D02*
X142966033Y-83733333D01*
X142966033Y-83733333D02*
X143066033Y-83800000D01*
X143066033Y-83800000D02*
X143132700Y-83866667D01*
X143132700Y-83866667D02*
X143166033Y-83933333D01*
X142966033Y-83100000D02*
X142966033Y-83033333D01*
X142966033Y-83033333D02*
X142999366Y-82966666D01*
X142999366Y-82966666D02*
X143032700Y-82933333D01*
X143032700Y-82933333D02*
X143099366Y-82900000D01*
X143099366Y-82900000D02*
X143232700Y-82866666D01*
X143232700Y-82866666D02*
X143399366Y-82866666D01*
X143399366Y-82866666D02*
X143532700Y-82900000D01*
X143532700Y-82900000D02*
X143599366Y-82933333D01*
X143599366Y-82933333D02*
X143632700Y-82966666D01*
X143632700Y-82966666D02*
X143666033Y-83033333D01*
X143666033Y-83033333D02*
X143666033Y-83100000D01*
X143666033Y-83100000D02*
X143632700Y-83166666D01*
X143632700Y-83166666D02*
X143599366Y-83200000D01*
X143599366Y-83200000D02*
X143532700Y-83233333D01*
X143532700Y-83233333D02*
X143399366Y-83266666D01*
X143399366Y-83266666D02*
X143232700Y-83266666D01*
X143232700Y-83266666D02*
X143099366Y-83233333D01*
X143099366Y-83233333D02*
X143032700Y-83200000D01*
X143032700Y-83200000D02*
X142999366Y-83166666D01*
X142999366Y-83166666D02*
X142966033Y-83100000D01*
X168246667Y-103983200D02*
X168389524Y-104030819D01*
X168389524Y-104030819D02*
X168627619Y-104030819D01*
X168627619Y-104030819D02*
X168722857Y-103983200D01*
X168722857Y-103983200D02*
X168770476Y-103935580D01*
X168770476Y-103935580D02*
X168818095Y-103840342D01*
X168818095Y-103840342D02*
X168818095Y-103745104D01*
X168818095Y-103745104D02*
X168770476Y-103649866D01*
X168770476Y-103649866D02*
X168722857Y-103602247D01*
X168722857Y-103602247D02*
X168627619Y-103554628D01*
X168627619Y-103554628D02*
X168437143Y-103507009D01*
X168437143Y-103507009D02*
X168341905Y-103459390D01*
X168341905Y-103459390D02*
X168294286Y-103411771D01*
X168294286Y-103411771D02*
X168246667Y-103316533D01*
X168246667Y-103316533D02*
X168246667Y-103221295D01*
X168246667Y-103221295D02*
X168294286Y-103126057D01*
X168294286Y-103126057D02*
X168341905Y-103078438D01*
X168341905Y-103078438D02*
X168437143Y-103030819D01*
X168437143Y-103030819D02*
X168675238Y-103030819D01*
X168675238Y-103030819D02*
X168818095Y-103078438D01*
X169151429Y-103030819D02*
X169389524Y-104030819D01*
X169389524Y-104030819D02*
X169580000Y-103316533D01*
X169580000Y-103316533D02*
X169770476Y-104030819D01*
X169770476Y-104030819D02*
X170008572Y-103030819D01*
X170865714Y-103030819D02*
X170389524Y-103030819D01*
X170389524Y-103030819D02*
X170341905Y-103507009D01*
X170341905Y-103507009D02*
X170389524Y-103459390D01*
X170389524Y-103459390D02*
X170484762Y-103411771D01*
X170484762Y-103411771D02*
X170722857Y-103411771D01*
X170722857Y-103411771D02*
X170818095Y-103459390D01*
X170818095Y-103459390D02*
X170865714Y-103507009D01*
X170865714Y-103507009D02*
X170913333Y-103602247D01*
X170913333Y-103602247D02*
X170913333Y-103840342D01*
X170913333Y-103840342D02*
X170865714Y-103935580D01*
X170865714Y-103935580D02*
X170818095Y-103983200D01*
X170818095Y-103983200D02*
X170722857Y-104030819D01*
X170722857Y-104030819D02*
X170484762Y-104030819D01*
X170484762Y-104030819D02*
X170389524Y-103983200D01*
X170389524Y-103983200D02*
X170341905Y-103935580D01*
X149196667Y-103983200D02*
X149339524Y-104030819D01*
X149339524Y-104030819D02*
X149577619Y-104030819D01*
X149577619Y-104030819D02*
X149672857Y-103983200D01*
X149672857Y-103983200D02*
X149720476Y-103935580D01*
X149720476Y-103935580D02*
X149768095Y-103840342D01*
X149768095Y-103840342D02*
X149768095Y-103745104D01*
X149768095Y-103745104D02*
X149720476Y-103649866D01*
X149720476Y-103649866D02*
X149672857Y-103602247D01*
X149672857Y-103602247D02*
X149577619Y-103554628D01*
X149577619Y-103554628D02*
X149387143Y-103507009D01*
X149387143Y-103507009D02*
X149291905Y-103459390D01*
X149291905Y-103459390D02*
X149244286Y-103411771D01*
X149244286Y-103411771D02*
X149196667Y-103316533D01*
X149196667Y-103316533D02*
X149196667Y-103221295D01*
X149196667Y-103221295D02*
X149244286Y-103126057D01*
X149244286Y-103126057D02*
X149291905Y-103078438D01*
X149291905Y-103078438D02*
X149387143Y-103030819D01*
X149387143Y-103030819D02*
X149625238Y-103030819D01*
X149625238Y-103030819D02*
X149768095Y-103078438D01*
X150101429Y-103030819D02*
X150339524Y-104030819D01*
X150339524Y-104030819D02*
X150530000Y-103316533D01*
X150530000Y-103316533D02*
X150720476Y-104030819D01*
X150720476Y-104030819D02*
X150958572Y-103030819D01*
X151291905Y-103126057D02*
X151339524Y-103078438D01*
X151339524Y-103078438D02*
X151434762Y-103030819D01*
X151434762Y-103030819D02*
X151672857Y-103030819D01*
X151672857Y-103030819D02*
X151768095Y-103078438D01*
X151768095Y-103078438D02*
X151815714Y-103126057D01*
X151815714Y-103126057D02*
X151863333Y-103221295D01*
X151863333Y-103221295D02*
X151863333Y-103316533D01*
X151863333Y-103316533D02*
X151815714Y-103459390D01*
X151815714Y-103459390D02*
X151244286Y-104030819D01*
X151244286Y-104030819D02*
X151863333Y-104030819D01*
X178816666Y-141666033D02*
X178816666Y-140966033D01*
X178816666Y-140966033D02*
X178983333Y-140966033D01*
X178983333Y-140966033D02*
X179083333Y-140999366D01*
X179083333Y-140999366D02*
X179150000Y-141066033D01*
X179150000Y-141066033D02*
X179183333Y-141132700D01*
X179183333Y-141132700D02*
X179216666Y-141266033D01*
X179216666Y-141266033D02*
X179216666Y-141366033D01*
X179216666Y-141366033D02*
X179183333Y-141499366D01*
X179183333Y-141499366D02*
X179150000Y-141566033D01*
X179150000Y-141566033D02*
X179083333Y-141632700D01*
X179083333Y-141632700D02*
X178983333Y-141666033D01*
X178983333Y-141666033D02*
X178816666Y-141666033D01*
X179483333Y-141032700D02*
X179516666Y-140999366D01*
X179516666Y-140999366D02*
X179583333Y-140966033D01*
X179583333Y-140966033D02*
X179750000Y-140966033D01*
X179750000Y-140966033D02*
X179816666Y-140999366D01*
X179816666Y-140999366D02*
X179850000Y-141032700D01*
X179850000Y-141032700D02*
X179883333Y-141099366D01*
X179883333Y-141099366D02*
X179883333Y-141166033D01*
X179883333Y-141166033D02*
X179850000Y-141266033D01*
X179850000Y-141266033D02*
X179450000Y-141666033D01*
X179450000Y-141666033D02*
X179883333Y-141666033D01*
X180116667Y-140966033D02*
X180550000Y-140966033D01*
X180550000Y-140966033D02*
X180316667Y-141232700D01*
X180316667Y-141232700D02*
X180416667Y-141232700D01*
X180416667Y-141232700D02*
X180483333Y-141266033D01*
X180483333Y-141266033D02*
X180516667Y-141299366D01*
X180516667Y-141299366D02*
X180550000Y-141366033D01*
X180550000Y-141366033D02*
X180550000Y-141532700D01*
X180550000Y-141532700D02*
X180516667Y-141599366D01*
X180516667Y-141599366D02*
X180483333Y-141632700D01*
X180483333Y-141632700D02*
X180416667Y-141666033D01*
X180416667Y-141666033D02*
X180216667Y-141666033D01*
X180216667Y-141666033D02*
X180150000Y-141632700D01*
X180150000Y-141632700D02*
X180116667Y-141599366D01*
X149196667Y-123033200D02*
X149339524Y-123080819D01*
X149339524Y-123080819D02*
X149577619Y-123080819D01*
X149577619Y-123080819D02*
X149672857Y-123033200D01*
X149672857Y-123033200D02*
X149720476Y-122985580D01*
X149720476Y-122985580D02*
X149768095Y-122890342D01*
X149768095Y-122890342D02*
X149768095Y-122795104D01*
X149768095Y-122795104D02*
X149720476Y-122699866D01*
X149720476Y-122699866D02*
X149672857Y-122652247D01*
X149672857Y-122652247D02*
X149577619Y-122604628D01*
X149577619Y-122604628D02*
X149387143Y-122557009D01*
X149387143Y-122557009D02*
X149291905Y-122509390D01*
X149291905Y-122509390D02*
X149244286Y-122461771D01*
X149244286Y-122461771D02*
X149196667Y-122366533D01*
X149196667Y-122366533D02*
X149196667Y-122271295D01*
X149196667Y-122271295D02*
X149244286Y-122176057D01*
X149244286Y-122176057D02*
X149291905Y-122128438D01*
X149291905Y-122128438D02*
X149387143Y-122080819D01*
X149387143Y-122080819D02*
X149625238Y-122080819D01*
X149625238Y-122080819D02*
X149768095Y-122128438D01*
X150101429Y-122080819D02*
X150339524Y-123080819D01*
X150339524Y-123080819D02*
X150530000Y-122366533D01*
X150530000Y-122366533D02*
X150720476Y-123080819D01*
X150720476Y-123080819D02*
X150958572Y-122080819D01*
X151244286Y-122080819D02*
X151863333Y-122080819D01*
X151863333Y-122080819D02*
X151530000Y-122461771D01*
X151530000Y-122461771D02*
X151672857Y-122461771D01*
X151672857Y-122461771D02*
X151768095Y-122509390D01*
X151768095Y-122509390D02*
X151815714Y-122557009D01*
X151815714Y-122557009D02*
X151863333Y-122652247D01*
X151863333Y-122652247D02*
X151863333Y-122890342D01*
X151863333Y-122890342D02*
X151815714Y-122985580D01*
X151815714Y-122985580D02*
X151768095Y-123033200D01*
X151768095Y-123033200D02*
X151672857Y-123080819D01*
X151672857Y-123080819D02*
X151387143Y-123080819D01*
X151387143Y-123080819D02*
X151291905Y-123033200D01*
X151291905Y-123033200D02*
X151244286Y-122985580D01*
X187296667Y-103983200D02*
X187439524Y-104030819D01*
X187439524Y-104030819D02*
X187677619Y-104030819D01*
X187677619Y-104030819D02*
X187772857Y-103983200D01*
X187772857Y-103983200D02*
X187820476Y-103935580D01*
X187820476Y-103935580D02*
X187868095Y-103840342D01*
X187868095Y-103840342D02*
X187868095Y-103745104D01*
X187868095Y-103745104D02*
X187820476Y-103649866D01*
X187820476Y-103649866D02*
X187772857Y-103602247D01*
X187772857Y-103602247D02*
X187677619Y-103554628D01*
X187677619Y-103554628D02*
X187487143Y-103507009D01*
X187487143Y-103507009D02*
X187391905Y-103459390D01*
X187391905Y-103459390D02*
X187344286Y-103411771D01*
X187344286Y-103411771D02*
X187296667Y-103316533D01*
X187296667Y-103316533D02*
X187296667Y-103221295D01*
X187296667Y-103221295D02*
X187344286Y-103126057D01*
X187344286Y-103126057D02*
X187391905Y-103078438D01*
X187391905Y-103078438D02*
X187487143Y-103030819D01*
X187487143Y-103030819D02*
X187725238Y-103030819D01*
X187725238Y-103030819D02*
X187868095Y-103078438D01*
X188201429Y-103030819D02*
X188439524Y-104030819D01*
X188439524Y-104030819D02*
X188630000Y-103316533D01*
X188630000Y-103316533D02*
X188820476Y-104030819D01*
X188820476Y-104030819D02*
X189058572Y-103030819D01*
X189582381Y-103459390D02*
X189487143Y-103411771D01*
X189487143Y-103411771D02*
X189439524Y-103364152D01*
X189439524Y-103364152D02*
X189391905Y-103268914D01*
X189391905Y-103268914D02*
X189391905Y-103221295D01*
X189391905Y-103221295D02*
X189439524Y-103126057D01*
X189439524Y-103126057D02*
X189487143Y-103078438D01*
X189487143Y-103078438D02*
X189582381Y-103030819D01*
X189582381Y-103030819D02*
X189772857Y-103030819D01*
X189772857Y-103030819D02*
X189868095Y-103078438D01*
X189868095Y-103078438D02*
X189915714Y-103126057D01*
X189915714Y-103126057D02*
X189963333Y-103221295D01*
X189963333Y-103221295D02*
X189963333Y-103268914D01*
X189963333Y-103268914D02*
X189915714Y-103364152D01*
X189915714Y-103364152D02*
X189868095Y-103411771D01*
X189868095Y-103411771D02*
X189772857Y-103459390D01*
X189772857Y-103459390D02*
X189582381Y-103459390D01*
X189582381Y-103459390D02*
X189487143Y-103507009D01*
X189487143Y-103507009D02*
X189439524Y-103554628D01*
X189439524Y-103554628D02*
X189391905Y-103649866D01*
X189391905Y-103649866D02*
X189391905Y-103840342D01*
X189391905Y-103840342D02*
X189439524Y-103935580D01*
X189439524Y-103935580D02*
X189487143Y-103983200D01*
X189487143Y-103983200D02*
X189582381Y-104030819D01*
X189582381Y-104030819D02*
X189772857Y-104030819D01*
X189772857Y-104030819D02*
X189868095Y-103983200D01*
X189868095Y-103983200D02*
X189915714Y-103935580D01*
X189915714Y-103935580D02*
X189963333Y-103840342D01*
X189963333Y-103840342D02*
X189963333Y-103649866D01*
X189963333Y-103649866D02*
X189915714Y-103554628D01*
X189915714Y-103554628D02*
X189868095Y-103507009D01*
X189868095Y-103507009D02*
X189772857Y-103459390D01*
X187296667Y-84933200D02*
X187439524Y-84980819D01*
X187439524Y-84980819D02*
X187677619Y-84980819D01*
X187677619Y-84980819D02*
X187772857Y-84933200D01*
X187772857Y-84933200D02*
X187820476Y-84885580D01*
X187820476Y-84885580D02*
X187868095Y-84790342D01*
X187868095Y-84790342D02*
X187868095Y-84695104D01*
X187868095Y-84695104D02*
X187820476Y-84599866D01*
X187820476Y-84599866D02*
X187772857Y-84552247D01*
X187772857Y-84552247D02*
X187677619Y-84504628D01*
X187677619Y-84504628D02*
X187487143Y-84457009D01*
X187487143Y-84457009D02*
X187391905Y-84409390D01*
X187391905Y-84409390D02*
X187344286Y-84361771D01*
X187344286Y-84361771D02*
X187296667Y-84266533D01*
X187296667Y-84266533D02*
X187296667Y-84171295D01*
X187296667Y-84171295D02*
X187344286Y-84076057D01*
X187344286Y-84076057D02*
X187391905Y-84028438D01*
X187391905Y-84028438D02*
X187487143Y-83980819D01*
X187487143Y-83980819D02*
X187725238Y-83980819D01*
X187725238Y-83980819D02*
X187868095Y-84028438D01*
X188201429Y-83980819D02*
X188439524Y-84980819D01*
X188439524Y-84980819D02*
X188630000Y-84266533D01*
X188630000Y-84266533D02*
X188820476Y-84980819D01*
X188820476Y-84980819D02*
X189058572Y-83980819D01*
X189344286Y-83980819D02*
X190010952Y-83980819D01*
X190010952Y-83980819D02*
X189582381Y-84980819D01*
X200416033Y-121600000D02*
X199716033Y-121600000D01*
X199716033Y-121600000D02*
X199716033Y-121433333D01*
X199716033Y-121433333D02*
X199749366Y-121333333D01*
X199749366Y-121333333D02*
X199816033Y-121266667D01*
X199816033Y-121266667D02*
X199882700Y-121233333D01*
X199882700Y-121233333D02*
X200016033Y-121200000D01*
X200016033Y-121200000D02*
X200116033Y-121200000D01*
X200116033Y-121200000D02*
X200249366Y-121233333D01*
X200249366Y-121233333D02*
X200316033Y-121266667D01*
X200316033Y-121266667D02*
X200382700Y-121333333D01*
X200382700Y-121333333D02*
X200416033Y-121433333D01*
X200416033Y-121433333D02*
X200416033Y-121600000D01*
X199782700Y-120933333D02*
X199749366Y-120900000D01*
X199749366Y-120900000D02*
X199716033Y-120833333D01*
X199716033Y-120833333D02*
X199716033Y-120666667D01*
X199716033Y-120666667D02*
X199749366Y-120600000D01*
X199749366Y-120600000D02*
X199782700Y-120566667D01*
X199782700Y-120566667D02*
X199849366Y-120533333D01*
X199849366Y-120533333D02*
X199916033Y-120533333D01*
X199916033Y-120533333D02*
X200016033Y-120566667D01*
X200016033Y-120566667D02*
X200416033Y-120966667D01*
X200416033Y-120966667D02*
X200416033Y-120533333D01*
X200416033Y-119866666D02*
X200416033Y-120266666D01*
X200416033Y-120066666D02*
X199716033Y-120066666D01*
X199716033Y-120066666D02*
X199816033Y-120133333D01*
X199816033Y-120133333D02*
X199882700Y-120200000D01*
X199882700Y-120200000D02*
X199916033Y-120266666D01*
X197149999Y-104416033D02*
X197149999Y-103716033D01*
X197149999Y-103716033D02*
X197316666Y-103716033D01*
X197316666Y-103716033D02*
X197416666Y-103749366D01*
X197416666Y-103749366D02*
X197483333Y-103816033D01*
X197483333Y-103816033D02*
X197516666Y-103882700D01*
X197516666Y-103882700D02*
X197549999Y-104016033D01*
X197549999Y-104016033D02*
X197549999Y-104116033D01*
X197549999Y-104116033D02*
X197516666Y-104249366D01*
X197516666Y-104249366D02*
X197483333Y-104316033D01*
X197483333Y-104316033D02*
X197416666Y-104382700D01*
X197416666Y-104382700D02*
X197316666Y-104416033D01*
X197316666Y-104416033D02*
X197149999Y-104416033D01*
X198216666Y-104416033D02*
X197816666Y-104416033D01*
X198016666Y-104416033D02*
X198016666Y-103716033D01*
X198016666Y-103716033D02*
X197949999Y-103816033D01*
X197949999Y-103816033D02*
X197883333Y-103882700D01*
X197883333Y-103882700D02*
X197816666Y-103916033D01*
X198816666Y-103949366D02*
X198816666Y-104416033D01*
X198650000Y-103682700D02*
X198483333Y-104182700D01*
X198483333Y-104182700D02*
X198916666Y-104182700D01*
X187296667Y-123033200D02*
X187439524Y-123080819D01*
X187439524Y-123080819D02*
X187677619Y-123080819D01*
X187677619Y-123080819D02*
X187772857Y-123033200D01*
X187772857Y-123033200D02*
X187820476Y-122985580D01*
X187820476Y-122985580D02*
X187868095Y-122890342D01*
X187868095Y-122890342D02*
X187868095Y-122795104D01*
X187868095Y-122795104D02*
X187820476Y-122699866D01*
X187820476Y-122699866D02*
X187772857Y-122652247D01*
X187772857Y-122652247D02*
X187677619Y-122604628D01*
X187677619Y-122604628D02*
X187487143Y-122557009D01*
X187487143Y-122557009D02*
X187391905Y-122509390D01*
X187391905Y-122509390D02*
X187344286Y-122461771D01*
X187344286Y-122461771D02*
X187296667Y-122366533D01*
X187296667Y-122366533D02*
X187296667Y-122271295D01*
X187296667Y-122271295D02*
X187344286Y-122176057D01*
X187344286Y-122176057D02*
X187391905Y-122128438D01*
X187391905Y-122128438D02*
X187487143Y-122080819D01*
X187487143Y-122080819D02*
X187725238Y-122080819D01*
X187725238Y-122080819D02*
X187868095Y-122128438D01*
X188201429Y-122080819D02*
X188439524Y-123080819D01*
X188439524Y-123080819D02*
X188630000Y-122366533D01*
X188630000Y-122366533D02*
X188820476Y-123080819D01*
X188820476Y-123080819D02*
X189058572Y-122080819D01*
X189487143Y-123080819D02*
X189677619Y-123080819D01*
X189677619Y-123080819D02*
X189772857Y-123033200D01*
X189772857Y-123033200D02*
X189820476Y-122985580D01*
X189820476Y-122985580D02*
X189915714Y-122842723D01*
X189915714Y-122842723D02*
X189963333Y-122652247D01*
X189963333Y-122652247D02*
X189963333Y-122271295D01*
X189963333Y-122271295D02*
X189915714Y-122176057D01*
X189915714Y-122176057D02*
X189868095Y-122128438D01*
X189868095Y-122128438D02*
X189772857Y-122080819D01*
X189772857Y-122080819D02*
X189582381Y-122080819D01*
X189582381Y-122080819D02*
X189487143Y-122128438D01*
X189487143Y-122128438D02*
X189439524Y-122176057D01*
X189439524Y-122176057D02*
X189391905Y-122271295D01*
X189391905Y-122271295D02*
X189391905Y-122509390D01*
X189391905Y-122509390D02*
X189439524Y-122604628D01*
X189439524Y-122604628D02*
X189487143Y-122652247D01*
X189487143Y-122652247D02*
X189582381Y-122699866D01*
X189582381Y-122699866D02*
X189772857Y-122699866D01*
X189772857Y-122699866D02*
X189868095Y-122652247D01*
X189868095Y-122652247D02*
X189915714Y-122604628D01*
X189915714Y-122604628D02*
X189963333Y-122509390D01*
X171939819Y-75153571D02*
X171939819Y-74963095D01*
X171939819Y-74963095D02*
X171987438Y-74867857D01*
X171987438Y-74867857D02*
X172082676Y-74772619D01*
X172082676Y-74772619D02*
X172273152Y-74725000D01*
X172273152Y-74725000D02*
X172606485Y-74725000D01*
X172606485Y-74725000D02*
X172796961Y-74772619D01*
X172796961Y-74772619D02*
X172892200Y-74867857D01*
X172892200Y-74867857D02*
X172939819Y-74963095D01*
X172939819Y-74963095D02*
X172939819Y-75153571D01*
X172939819Y-75153571D02*
X172892200Y-75248809D01*
X172892200Y-75248809D02*
X172796961Y-75344047D01*
X172796961Y-75344047D02*
X172606485Y-75391666D01*
X172606485Y-75391666D02*
X172273152Y-75391666D01*
X172273152Y-75391666D02*
X172082676Y-75344047D01*
X172082676Y-75344047D02*
X171987438Y-75248809D01*
X171987438Y-75248809D02*
X171939819Y-75153571D01*
X172939819Y-73820238D02*
X172939819Y-74296428D01*
X172939819Y-74296428D02*
X171939819Y-74296428D01*
X172416009Y-73486904D02*
X172416009Y-73153571D01*
X172939819Y-73010714D02*
X172939819Y-73486904D01*
X172939819Y-73486904D02*
X171939819Y-73486904D01*
X171939819Y-73486904D02*
X171939819Y-73010714D01*
X172939819Y-72582142D02*
X171939819Y-72582142D01*
X171939819Y-72582142D02*
X171939819Y-72344047D01*
X171939819Y-72344047D02*
X171987438Y-72201190D01*
X171987438Y-72201190D02*
X172082676Y-72105952D01*
X172082676Y-72105952D02*
X172177914Y-72058333D01*
X172177914Y-72058333D02*
X172368390Y-72010714D01*
X172368390Y-72010714D02*
X172511247Y-72010714D01*
X172511247Y-72010714D02*
X172701723Y-72058333D01*
X172701723Y-72058333D02*
X172796961Y-72105952D01*
X172796961Y-72105952D02*
X172892200Y-72201190D01*
X172892200Y-72201190D02*
X172939819Y-72344047D01*
X172939819Y-72344047D02*
X172939819Y-72582142D01*
X172939819Y-71058333D02*
X172939819Y-71629761D01*
X172939819Y-71344047D02*
X171939819Y-71344047D01*
X171939819Y-71344047D02*
X172082676Y-71439285D01*
X172082676Y-71439285D02*
X172177914Y-71534523D01*
X172177914Y-71534523D02*
X172225533Y-71629761D01*
X140188450Y-72757856D02*
X140224164Y-72650714D01*
X140224164Y-72650714D02*
X140224164Y-72472142D01*
X140224164Y-72472142D02*
X140188450Y-72400714D01*
X140188450Y-72400714D02*
X140152735Y-72364999D01*
X140152735Y-72364999D02*
X140081307Y-72329285D01*
X140081307Y-72329285D02*
X140009878Y-72329285D01*
X140009878Y-72329285D02*
X139938450Y-72364999D01*
X139938450Y-72364999D02*
X139902735Y-72400714D01*
X139902735Y-72400714D02*
X139867021Y-72472142D01*
X139867021Y-72472142D02*
X139831307Y-72614999D01*
X139831307Y-72614999D02*
X139795592Y-72686428D01*
X139795592Y-72686428D02*
X139759878Y-72722142D01*
X139759878Y-72722142D02*
X139688450Y-72757856D01*
X139688450Y-72757856D02*
X139617021Y-72757856D01*
X139617021Y-72757856D02*
X139545592Y-72722142D01*
X139545592Y-72722142D02*
X139509878Y-72686428D01*
X139509878Y-72686428D02*
X139474164Y-72614999D01*
X139474164Y-72614999D02*
X139474164Y-72436428D01*
X139474164Y-72436428D02*
X139509878Y-72329285D01*
X140152735Y-71579285D02*
X140188450Y-71614999D01*
X140188450Y-71614999D02*
X140224164Y-71722142D01*
X140224164Y-71722142D02*
X140224164Y-71793570D01*
X140224164Y-71793570D02*
X140188450Y-71900713D01*
X140188450Y-71900713D02*
X140117021Y-71972142D01*
X140117021Y-71972142D02*
X140045592Y-72007856D01*
X140045592Y-72007856D02*
X139902735Y-72043570D01*
X139902735Y-72043570D02*
X139795592Y-72043570D01*
X139795592Y-72043570D02*
X139652735Y-72007856D01*
X139652735Y-72007856D02*
X139581307Y-71972142D01*
X139581307Y-71972142D02*
X139509878Y-71900713D01*
X139509878Y-71900713D02*
X139474164Y-71793570D01*
X139474164Y-71793570D02*
X139474164Y-71722142D01*
X139474164Y-71722142D02*
X139509878Y-71614999D01*
X139509878Y-71614999D02*
X139545592Y-71579285D01*
X140224164Y-70900713D02*
X140224164Y-71257856D01*
X140224164Y-71257856D02*
X139474164Y-71257856D01*
X139509878Y-77516428D02*
X139474164Y-77587857D01*
X139474164Y-77587857D02*
X139474164Y-77694999D01*
X139474164Y-77694999D02*
X139509878Y-77802142D01*
X139509878Y-77802142D02*
X139581307Y-77873571D01*
X139581307Y-77873571D02*
X139652735Y-77909285D01*
X139652735Y-77909285D02*
X139795592Y-77944999D01*
X139795592Y-77944999D02*
X139902735Y-77944999D01*
X139902735Y-77944999D02*
X140045592Y-77909285D01*
X140045592Y-77909285D02*
X140117021Y-77873571D01*
X140117021Y-77873571D02*
X140188450Y-77802142D01*
X140188450Y-77802142D02*
X140224164Y-77694999D01*
X140224164Y-77694999D02*
X140224164Y-77623571D01*
X140224164Y-77623571D02*
X140188450Y-77516428D01*
X140188450Y-77516428D02*
X140152735Y-77480714D01*
X140152735Y-77480714D02*
X139902735Y-77480714D01*
X139902735Y-77480714D02*
X139902735Y-77623571D01*
X140224164Y-77159285D02*
X139474164Y-77159285D01*
X139474164Y-77159285D02*
X140224164Y-76730714D01*
X140224164Y-76730714D02*
X139474164Y-76730714D01*
X140224164Y-76373571D02*
X139474164Y-76373571D01*
X139474164Y-76373571D02*
X139474164Y-76195000D01*
X139474164Y-76195000D02*
X139509878Y-76087857D01*
X139509878Y-76087857D02*
X139581307Y-76016428D01*
X139581307Y-76016428D02*
X139652735Y-75980714D01*
X139652735Y-75980714D02*
X139795592Y-75945000D01*
X139795592Y-75945000D02*
X139902735Y-75945000D01*
X139902735Y-75945000D02*
X140045592Y-75980714D01*
X140045592Y-75980714D02*
X140117021Y-76016428D01*
X140117021Y-76016428D02*
X140188450Y-76087857D01*
X140188450Y-76087857D02*
X140224164Y-76195000D01*
X140224164Y-76195000D02*
X140224164Y-76373571D01*
X140188450Y-70235713D02*
X140224164Y-70128571D01*
X140224164Y-70128571D02*
X140224164Y-69949999D01*
X140224164Y-69949999D02*
X140188450Y-69878571D01*
X140188450Y-69878571D02*
X140152735Y-69842856D01*
X140152735Y-69842856D02*
X140081307Y-69807142D01*
X140081307Y-69807142D02*
X140009878Y-69807142D01*
X140009878Y-69807142D02*
X139938450Y-69842856D01*
X139938450Y-69842856D02*
X139902735Y-69878571D01*
X139902735Y-69878571D02*
X139867021Y-69949999D01*
X139867021Y-69949999D02*
X139831307Y-70092856D01*
X139831307Y-70092856D02*
X139795592Y-70164285D01*
X139795592Y-70164285D02*
X139759878Y-70199999D01*
X139759878Y-70199999D02*
X139688450Y-70235713D01*
X139688450Y-70235713D02*
X139617021Y-70235713D01*
X139617021Y-70235713D02*
X139545592Y-70199999D01*
X139545592Y-70199999D02*
X139509878Y-70164285D01*
X139509878Y-70164285D02*
X139474164Y-70092856D01*
X139474164Y-70092856D02*
X139474164Y-69914285D01*
X139474164Y-69914285D02*
X139509878Y-69807142D01*
X140224164Y-69485713D02*
X139474164Y-69485713D01*
X139474164Y-69485713D02*
X139474164Y-69307142D01*
X139474164Y-69307142D02*
X139509878Y-69199999D01*
X139509878Y-69199999D02*
X139581307Y-69128570D01*
X139581307Y-69128570D02*
X139652735Y-69092856D01*
X139652735Y-69092856D02*
X139795592Y-69057142D01*
X139795592Y-69057142D02*
X139902735Y-69057142D01*
X139902735Y-69057142D02*
X140045592Y-69092856D01*
X140045592Y-69092856D02*
X140117021Y-69128570D01*
X140117021Y-69128570D02*
X140188450Y-69199999D01*
X140188450Y-69199999D02*
X140224164Y-69307142D01*
X140224164Y-69307142D02*
X140224164Y-69485713D01*
X140009878Y-68771427D02*
X140009878Y-68414285D01*
X140224164Y-68842856D02*
X139474164Y-68592856D01*
X139474164Y-68592856D02*
X140224164Y-68342856D01*
X151456428Y-72589819D02*
X151646904Y-72589819D01*
X151646904Y-72589819D02*
X151742142Y-72637438D01*
X151742142Y-72637438D02*
X151837380Y-72732676D01*
X151837380Y-72732676D02*
X151884999Y-72923152D01*
X151884999Y-72923152D02*
X151884999Y-73256485D01*
X151884999Y-73256485D02*
X151837380Y-73446961D01*
X151837380Y-73446961D02*
X151742142Y-73542200D01*
X151742142Y-73542200D02*
X151646904Y-73589819D01*
X151646904Y-73589819D02*
X151456428Y-73589819D01*
X151456428Y-73589819D02*
X151361190Y-73542200D01*
X151361190Y-73542200D02*
X151265952Y-73446961D01*
X151265952Y-73446961D02*
X151218333Y-73256485D01*
X151218333Y-73256485D02*
X151218333Y-72923152D01*
X151218333Y-72923152D02*
X151265952Y-72732676D01*
X151265952Y-72732676D02*
X151361190Y-72637438D01*
X151361190Y-72637438D02*
X151456428Y-72589819D01*
X152789761Y-73589819D02*
X152313571Y-73589819D01*
X152313571Y-73589819D02*
X152313571Y-72589819D01*
X153123095Y-73066009D02*
X153456428Y-73066009D01*
X153599285Y-73589819D02*
X153123095Y-73589819D01*
X153123095Y-73589819D02*
X153123095Y-72589819D01*
X153123095Y-72589819D02*
X153599285Y-72589819D01*
X154027857Y-73589819D02*
X154027857Y-72589819D01*
X154027857Y-72589819D02*
X154265952Y-72589819D01*
X154265952Y-72589819D02*
X154408809Y-72637438D01*
X154408809Y-72637438D02*
X154504047Y-72732676D01*
X154504047Y-72732676D02*
X154551666Y-72827914D01*
X154551666Y-72827914D02*
X154599285Y-73018390D01*
X154599285Y-73018390D02*
X154599285Y-73161247D01*
X154599285Y-73161247D02*
X154551666Y-73351723D01*
X154551666Y-73351723D02*
X154504047Y-73446961D01*
X154504047Y-73446961D02*
X154408809Y-73542200D01*
X154408809Y-73542200D02*
X154265952Y-73589819D01*
X154265952Y-73589819D02*
X154027857Y-73589819D01*
X155789762Y-73589819D02*
X155789762Y-72589819D01*
X155789762Y-72589819D02*
X156170714Y-72589819D01*
X156170714Y-72589819D02*
X156265952Y-72637438D01*
X156265952Y-72637438D02*
X156313571Y-72685057D01*
X156313571Y-72685057D02*
X156361190Y-72780295D01*
X156361190Y-72780295D02*
X156361190Y-72923152D01*
X156361190Y-72923152D02*
X156313571Y-73018390D01*
X156313571Y-73018390D02*
X156265952Y-73066009D01*
X156265952Y-73066009D02*
X156170714Y-73113628D01*
X156170714Y-73113628D02*
X155789762Y-73113628D01*
X157218333Y-73589819D02*
X157218333Y-73066009D01*
X157218333Y-73066009D02*
X157170714Y-72970771D01*
X157170714Y-72970771D02*
X157075476Y-72923152D01*
X157075476Y-72923152D02*
X156885000Y-72923152D01*
X156885000Y-72923152D02*
X156789762Y-72970771D01*
X157218333Y-73542200D02*
X157123095Y-73589819D01*
X157123095Y-73589819D02*
X156885000Y-73589819D01*
X156885000Y-73589819D02*
X156789762Y-73542200D01*
X156789762Y-73542200D02*
X156742143Y-73446961D01*
X156742143Y-73446961D02*
X156742143Y-73351723D01*
X156742143Y-73351723D02*
X156789762Y-73256485D01*
X156789762Y-73256485D02*
X156885000Y-73208866D01*
X156885000Y-73208866D02*
X157123095Y-73208866D01*
X157123095Y-73208866D02*
X157218333Y-73161247D01*
X157694524Y-72923152D02*
X157694524Y-73589819D01*
X157694524Y-73018390D02*
X157742143Y-72970771D01*
X157742143Y-72970771D02*
X157837381Y-72923152D01*
X157837381Y-72923152D02*
X157980238Y-72923152D01*
X157980238Y-72923152D02*
X158075476Y-72970771D01*
X158075476Y-72970771D02*
X158123095Y-73066009D01*
X158123095Y-73066009D02*
X158123095Y-73589819D01*
X158980238Y-73542200D02*
X158885000Y-73589819D01*
X158885000Y-73589819D02*
X158694524Y-73589819D01*
X158694524Y-73589819D02*
X158599286Y-73542200D01*
X158599286Y-73542200D02*
X158551667Y-73446961D01*
X158551667Y-73446961D02*
X158551667Y-73066009D01*
X158551667Y-73066009D02*
X158599286Y-72970771D01*
X158599286Y-72970771D02*
X158694524Y-72923152D01*
X158694524Y-72923152D02*
X158885000Y-72923152D01*
X158885000Y-72923152D02*
X158980238Y-72970771D01*
X158980238Y-72970771D02*
X159027857Y-73066009D01*
X159027857Y-73066009D02*
X159027857Y-73161247D01*
X159027857Y-73161247D02*
X158551667Y-73256485D01*
X159599286Y-73589819D02*
X159504048Y-73542200D01*
X159504048Y-73542200D02*
X159456429Y-73446961D01*
X159456429Y-73446961D02*
X159456429Y-72589819D01*
X139474164Y-75404999D02*
X140224164Y-75154999D01*
X140224164Y-75154999D02*
X139474164Y-74904999D01*
X140152735Y-74226428D02*
X140188450Y-74262142D01*
X140188450Y-74262142D02*
X140224164Y-74369285D01*
X140224164Y-74369285D02*
X140224164Y-74440713D01*
X140224164Y-74440713D02*
X140188450Y-74547856D01*
X140188450Y-74547856D02*
X140117021Y-74619285D01*
X140117021Y-74619285D02*
X140045592Y-74654999D01*
X140045592Y-74654999D02*
X139902735Y-74690713D01*
X139902735Y-74690713D02*
X139795592Y-74690713D01*
X139795592Y-74690713D02*
X139652735Y-74654999D01*
X139652735Y-74654999D02*
X139581307Y-74619285D01*
X139581307Y-74619285D02*
X139509878Y-74547856D01*
X139509878Y-74547856D02*
X139474164Y-74440713D01*
X139474164Y-74440713D02*
X139474164Y-74369285D01*
X139474164Y-74369285D02*
X139509878Y-74262142D01*
X139509878Y-74262142D02*
X139545592Y-74226428D01*
X140152735Y-73476428D02*
X140188450Y-73512142D01*
X140188450Y-73512142D02*
X140224164Y-73619285D01*
X140224164Y-73619285D02*
X140224164Y-73690713D01*
X140224164Y-73690713D02*
X140188450Y-73797856D01*
X140188450Y-73797856D02*
X140117021Y-73869285D01*
X140117021Y-73869285D02*
X140045592Y-73904999D01*
X140045592Y-73904999D02*
X139902735Y-73940713D01*
X139902735Y-73940713D02*
X139795592Y-73940713D01*
X139795592Y-73940713D02*
X139652735Y-73904999D01*
X139652735Y-73904999D02*
X139581307Y-73869285D01*
X139581307Y-73869285D02*
X139509878Y-73797856D01*
X139509878Y-73797856D02*
X139474164Y-73690713D01*
X139474164Y-73690713D02*
X139474164Y-73619285D01*
X139474164Y-73619285D02*
X139509878Y-73512142D01*
X139509878Y-73512142D02*
X139545592Y-73476428D01*
X141899999Y-104416033D02*
X141899999Y-103716033D01*
X141899999Y-103716033D02*
X142066666Y-103716033D01*
X142066666Y-103716033D02*
X142166666Y-103749366D01*
X142166666Y-103749366D02*
X142233333Y-103816033D01*
X142233333Y-103816033D02*
X142266666Y-103882700D01*
X142266666Y-103882700D02*
X142299999Y-104016033D01*
X142299999Y-104016033D02*
X142299999Y-104116033D01*
X142299999Y-104116033D02*
X142266666Y-104249366D01*
X142266666Y-104249366D02*
X142233333Y-104316033D01*
X142233333Y-104316033D02*
X142166666Y-104382700D01*
X142166666Y-104382700D02*
X142066666Y-104416033D01*
X142066666Y-104416033D02*
X141899999Y-104416033D01*
X142966666Y-104416033D02*
X142566666Y-104416033D01*
X142766666Y-104416033D02*
X142766666Y-103716033D01*
X142766666Y-103716033D02*
X142699999Y-103816033D01*
X142699999Y-103816033D02*
X142633333Y-103882700D01*
X142633333Y-103882700D02*
X142566666Y-103916033D01*
X143200000Y-103716033D02*
X143666666Y-103716033D01*
X143666666Y-103716033D02*
X143366666Y-104416033D01*
X160483332Y-104416033D02*
X160483332Y-103716033D01*
X160483332Y-103716033D02*
X160649999Y-103716033D01*
X160649999Y-103716033D02*
X160749999Y-103749366D01*
X160749999Y-103749366D02*
X160816666Y-103816033D01*
X160816666Y-103816033D02*
X160849999Y-103882700D01*
X160849999Y-103882700D02*
X160883332Y-104016033D01*
X160883332Y-104016033D02*
X160883332Y-104116033D01*
X160883332Y-104116033D02*
X160849999Y-104249366D01*
X160849999Y-104249366D02*
X160816666Y-104316033D01*
X160816666Y-104316033D02*
X160749999Y-104382700D01*
X160749999Y-104382700D02*
X160649999Y-104416033D01*
X160649999Y-104416033D02*
X160483332Y-104416033D01*
X161549999Y-104416033D02*
X161149999Y-104416033D01*
X161349999Y-104416033D02*
X161349999Y-103716033D01*
X161349999Y-103716033D02*
X161283332Y-103816033D01*
X161283332Y-103816033D02*
X161216666Y-103882700D01*
X161216666Y-103882700D02*
X161149999Y-103916033D01*
X162149999Y-103716033D02*
X162016666Y-103716033D01*
X162016666Y-103716033D02*
X161949999Y-103749366D01*
X161949999Y-103749366D02*
X161916666Y-103782700D01*
X161916666Y-103782700D02*
X161849999Y-103882700D01*
X161849999Y-103882700D02*
X161816666Y-104016033D01*
X161816666Y-104016033D02*
X161816666Y-104282700D01*
X161816666Y-104282700D02*
X161849999Y-104349366D01*
X161849999Y-104349366D02*
X161883333Y-104382700D01*
X161883333Y-104382700D02*
X161949999Y-104416033D01*
X161949999Y-104416033D02*
X162083333Y-104416033D01*
X162083333Y-104416033D02*
X162149999Y-104382700D01*
X162149999Y-104382700D02*
X162183333Y-104349366D01*
X162183333Y-104349366D02*
X162216666Y-104282700D01*
X162216666Y-104282700D02*
X162216666Y-104116033D01*
X162216666Y-104116033D02*
X162183333Y-104049366D01*
X162183333Y-104049366D02*
X162149999Y-104016033D01*
X162149999Y-104016033D02*
X162083333Y-103982700D01*
X162083333Y-103982700D02*
X161949999Y-103982700D01*
X161949999Y-103982700D02*
X161883333Y-104016033D01*
X161883333Y-104016033D02*
X161849999Y-104049366D01*
X161849999Y-104049366D02*
X161816666Y-104116033D01*
X200416033Y-84600000D02*
X199716033Y-84600000D01*
X199716033Y-84600000D02*
X199716033Y-84433333D01*
X199716033Y-84433333D02*
X199749366Y-84333333D01*
X199749366Y-84333333D02*
X199816033Y-84266667D01*
X199816033Y-84266667D02*
X199882700Y-84233333D01*
X199882700Y-84233333D02*
X200016033Y-84200000D01*
X200016033Y-84200000D02*
X200116033Y-84200000D01*
X200116033Y-84200000D02*
X200249366Y-84233333D01*
X200249366Y-84233333D02*
X200316033Y-84266667D01*
X200316033Y-84266667D02*
X200382700Y-84333333D01*
X200382700Y-84333333D02*
X200416033Y-84433333D01*
X200416033Y-84433333D02*
X200416033Y-84600000D01*
X200416033Y-83533333D02*
X200416033Y-83933333D01*
X200416033Y-83733333D02*
X199716033Y-83733333D01*
X199716033Y-83733333D02*
X199816033Y-83800000D01*
X199816033Y-83800000D02*
X199882700Y-83866667D01*
X199882700Y-83866667D02*
X199916033Y-83933333D01*
X199716033Y-83300000D02*
X199716033Y-82866666D01*
X199716033Y-82866666D02*
X199982700Y-83100000D01*
X199982700Y-83100000D02*
X199982700Y-83000000D01*
X199982700Y-83000000D02*
X200016033Y-82933333D01*
X200016033Y-82933333D02*
X200049366Y-82900000D01*
X200049366Y-82900000D02*
X200116033Y-82866666D01*
X200116033Y-82866666D02*
X200282700Y-82866666D01*
X200282700Y-82866666D02*
X200349366Y-82900000D01*
X200349366Y-82900000D02*
X200382700Y-82933333D01*
X200382700Y-82933333D02*
X200416033Y-83000000D01*
X200416033Y-83000000D02*
X200416033Y-83200000D01*
X200416033Y-83200000D02*
X200382700Y-83266666D01*
X200382700Y-83266666D02*
X200349366Y-83300000D01*
X181490476Y-65457200D02*
X181633333Y-65504819D01*
X181633333Y-65504819D02*
X181871428Y-65504819D01*
X181871428Y-65504819D02*
X181966666Y-65457200D01*
X181966666Y-65457200D02*
X182014285Y-65409580D01*
X182014285Y-65409580D02*
X182061904Y-65314342D01*
X182061904Y-65314342D02*
X182061904Y-65219104D01*
X182061904Y-65219104D02*
X182014285Y-65123866D01*
X182014285Y-65123866D02*
X181966666Y-65076247D01*
X181966666Y-65076247D02*
X181871428Y-65028628D01*
X181871428Y-65028628D02*
X181680952Y-64981009D01*
X181680952Y-64981009D02*
X181585714Y-64933390D01*
X181585714Y-64933390D02*
X181538095Y-64885771D01*
X181538095Y-64885771D02*
X181490476Y-64790533D01*
X181490476Y-64790533D02*
X181490476Y-64695295D01*
X181490476Y-64695295D02*
X181538095Y-64600057D01*
X181538095Y-64600057D02*
X181585714Y-64552438D01*
X181585714Y-64552438D02*
X181680952Y-64504819D01*
X181680952Y-64504819D02*
X181919047Y-64504819D01*
X181919047Y-64504819D02*
X182061904Y-64552438D01*
X182395238Y-64504819D02*
X182633333Y-65504819D01*
X182633333Y-65504819D02*
X182823809Y-64790533D01*
X182823809Y-64790533D02*
X183014285Y-65504819D01*
X183014285Y-65504819D02*
X183252381Y-64504819D01*
X184157142Y-65504819D02*
X183585714Y-65504819D01*
X183871428Y-65504819D02*
X183871428Y-64504819D01*
X183871428Y-64504819D02*
X183776190Y-64647676D01*
X183776190Y-64647676D02*
X183680952Y-64742914D01*
X183680952Y-64742914D02*
X183585714Y-64790533D01*
X184776190Y-64504819D02*
X184871428Y-64504819D01*
X184871428Y-64504819D02*
X184966666Y-64552438D01*
X184966666Y-64552438D02*
X185014285Y-64600057D01*
X185014285Y-64600057D02*
X185061904Y-64695295D01*
X185061904Y-64695295D02*
X185109523Y-64885771D01*
X185109523Y-64885771D02*
X185109523Y-65123866D01*
X185109523Y-65123866D02*
X185061904Y-65314342D01*
X185061904Y-65314342D02*
X185014285Y-65409580D01*
X185014285Y-65409580D02*
X184966666Y-65457200D01*
X184966666Y-65457200D02*
X184871428Y-65504819D01*
X184871428Y-65504819D02*
X184776190Y-65504819D01*
X184776190Y-65504819D02*
X184680952Y-65457200D01*
X184680952Y-65457200D02*
X184633333Y-65409580D01*
X184633333Y-65409580D02*
X184585714Y-65314342D01*
X184585714Y-65314342D02*
X184538095Y-65123866D01*
X184538095Y-65123866D02*
X184538095Y-64885771D01*
X184538095Y-64885771D02*
X184585714Y-64695295D01*
X184585714Y-64695295D02*
X184633333Y-64600057D01*
X184633333Y-64600057D02*
X184680952Y-64552438D01*
X184680952Y-64552438D02*
X184776190Y-64504819D01*
D11*
%TO.C,D24*%
X164133333Y-137850000D02*
X163533333Y-137850000D01*
X163533333Y-137250000D01*
X164133333Y-137850000D01*
G36*
X164133333Y-137850000D02*
G01*
X163533333Y-137850000D01*
X163533333Y-137250000D01*
X164133333Y-137850000D01*
G37*
D12*
X158953333Y-141028000D02*
X158473333Y-141028000D01*
X158713333Y-140698000D01*
X158953333Y-141028000D01*
G36*
X158953333Y-141028000D02*
G01*
X158473333Y-141028000D01*
X158713333Y-140698000D01*
X158953333Y-141028000D01*
G37*
D11*
%TO.C,D15*%
X182466667Y-100600000D02*
X181866667Y-100600000D01*
X181866667Y-100000000D01*
X182466667Y-100600000D01*
G36*
X182466667Y-100600000D02*
G01*
X181866667Y-100600000D01*
X181866667Y-100000000D01*
X182466667Y-100600000D01*
G37*
D12*
X177286667Y-103778000D02*
X176806667Y-103778000D01*
X177046667Y-103448000D01*
X177286667Y-103778000D01*
G36*
X177286667Y-103778000D02*
G01*
X176806667Y-103778000D01*
X177046667Y-103448000D01*
X177286667Y-103778000D01*
G37*
%TO.C,SW4*%
X162595000Y-85415000D02*
X176565000Y-85415000D01*
X162595000Y-99385000D02*
X162595000Y-85415000D01*
X176565000Y-85415000D02*
X176565000Y-99385000D01*
X176565000Y-99385000D02*
X162595000Y-99385000D01*
D11*
%TO.C,D11*%
X159133333Y-85750000D02*
X158533333Y-85150000D01*
X159133333Y-85150000D01*
X159133333Y-85750000D01*
G36*
X159133333Y-85750000D02*
G01*
X158533333Y-85150000D01*
X159133333Y-85150000D01*
X159133333Y-85750000D01*
G37*
D12*
X163953333Y-82302000D02*
X163713333Y-81972000D01*
X164193333Y-81972000D01*
X163953333Y-82302000D01*
G36*
X163953333Y-82302000D02*
G01*
X163713333Y-81972000D01*
X164193333Y-81972000D01*
X163953333Y-82302000D01*
G37*
D11*
%TO.C,D25*%
X145800000Y-137850000D02*
X145200000Y-137850000D01*
X145200000Y-137250000D01*
X145800000Y-137850000D01*
G36*
X145800000Y-137850000D02*
G01*
X145200000Y-137850000D01*
X145200000Y-137250000D01*
X145800000Y-137850000D01*
G37*
D12*
X140620000Y-141028000D02*
X140140000Y-141028000D01*
X140380000Y-140698000D01*
X140620000Y-141028000D01*
G36*
X140620000Y-141028000D02*
G01*
X140140000Y-141028000D01*
X140380000Y-140698000D01*
X140620000Y-141028000D01*
G37*
%TO.C,SW1*%
X143545000Y-85415000D02*
X157515000Y-85415000D01*
X143545000Y-99385000D02*
X143545000Y-85415000D01*
X157515000Y-85415000D02*
X157515000Y-99385000D01*
X157515000Y-99385000D02*
X143545000Y-99385000D01*
D11*
%TO.C,D19*%
X159133333Y-122750000D02*
X158533333Y-122150000D01*
X159133333Y-122150000D01*
X159133333Y-122750000D01*
G36*
X159133333Y-122750000D02*
G01*
X158533333Y-122150000D01*
X159133333Y-122150000D01*
X159133333Y-122750000D01*
G37*
D12*
X163953333Y-119302000D02*
X163713333Y-118972000D01*
X164193333Y-118972000D01*
X163953333Y-119302000D01*
G36*
X163953333Y-119302000D02*
G01*
X163713333Y-118972000D01*
X164193333Y-118972000D01*
X163953333Y-119302000D01*
G37*
D11*
%TO.C,D22*%
X200800000Y-137850000D02*
X200200000Y-137850000D01*
X200200000Y-137250000D01*
X200800000Y-137850000D01*
G36*
X200800000Y-137850000D02*
G01*
X200200000Y-137850000D01*
X200200000Y-137250000D01*
X200800000Y-137850000D01*
G37*
D12*
X195620000Y-141028000D02*
X195140000Y-141028000D01*
X195380000Y-140698000D01*
X195620000Y-141028000D01*
G36*
X195620000Y-141028000D02*
G01*
X195140000Y-141028000D01*
X195380000Y-140698000D01*
X195620000Y-141028000D01*
G37*
D11*
%TO.C,D20*%
X177466667Y-122750000D02*
X176866667Y-122150000D01*
X177466667Y-122150000D01*
X177466667Y-122750000D01*
G36*
X177466667Y-122750000D02*
G01*
X176866667Y-122150000D01*
X177466667Y-122150000D01*
X177466667Y-122750000D01*
G37*
D12*
X182286667Y-119302000D02*
X182046667Y-118972000D01*
X182526667Y-118972000D01*
X182286667Y-119302000D01*
G36*
X182286667Y-119302000D02*
G01*
X182046667Y-118972000D01*
X182526667Y-118972000D01*
X182286667Y-119302000D01*
G37*
%TO.C,SW6*%
X162595000Y-123515000D02*
X176565000Y-123515000D01*
X162595000Y-137485000D02*
X162595000Y-123515000D01*
X176565000Y-123515000D02*
X176565000Y-137485000D01*
X176565000Y-137485000D02*
X162595000Y-137485000D01*
D11*
%TO.C,D18*%
X141800000Y-122750000D02*
X141200000Y-122150000D01*
X141800000Y-122150000D01*
X141800000Y-122750000D01*
G36*
X141800000Y-122750000D02*
G01*
X141200000Y-122150000D01*
X141800000Y-122150000D01*
X141800000Y-122750000D01*
G37*
D12*
X146620000Y-119302000D02*
X146380000Y-118972000D01*
X146860000Y-118972000D01*
X146620000Y-119302000D01*
G36*
X146620000Y-119302000D02*
G01*
X146380000Y-118972000D01*
X146860000Y-118972000D01*
X146620000Y-119302000D01*
G37*
D11*
%TO.C,D12*%
X177466667Y-85750000D02*
X176866667Y-85150000D01*
X177466667Y-85150000D01*
X177466667Y-85750000D01*
G36*
X177466667Y-85750000D02*
G01*
X176866667Y-85150000D01*
X177466667Y-85150000D01*
X177466667Y-85750000D01*
G37*
D12*
X182286667Y-82302000D02*
X182046667Y-81972000D01*
X182526667Y-81972000D01*
X182286667Y-82302000D01*
G36*
X182286667Y-82302000D02*
G01*
X182046667Y-81972000D01*
X182526667Y-81972000D01*
X182286667Y-82302000D01*
G37*
D11*
%TO.C,D10*%
X139850000Y-81550000D02*
X139250000Y-81550000D01*
X139850000Y-80950000D01*
X139850000Y-81550000D01*
G36*
X139850000Y-81550000D02*
G01*
X139250000Y-81550000D01*
X139850000Y-80950000D01*
X139850000Y-81550000D01*
G37*
D12*
X143028000Y-86610000D02*
X142698000Y-86370000D01*
X143028000Y-86130000D01*
X143028000Y-86610000D01*
G36*
X143028000Y-86610000D02*
G01*
X142698000Y-86370000D01*
X143028000Y-86130000D01*
X143028000Y-86610000D01*
G37*
%TO.C,SW5*%
X162595000Y-104465000D02*
X176565000Y-104465000D01*
X162595000Y-118435000D02*
X162595000Y-104465000D01*
X176565000Y-104465000D02*
X176565000Y-118435000D01*
X176565000Y-118435000D02*
X162595000Y-118435000D01*
%TO.C,SW2*%
X143545000Y-104465000D02*
X157515000Y-104465000D01*
X143545000Y-118435000D02*
X143545000Y-104465000D01*
X157515000Y-104465000D02*
X157515000Y-118435000D01*
X157515000Y-118435000D02*
X143545000Y-118435000D01*
D11*
%TO.C,D23*%
X182466667Y-137850000D02*
X181866667Y-137850000D01*
X181866667Y-137250000D01*
X182466667Y-137850000D01*
G36*
X182466667Y-137850000D02*
G01*
X181866667Y-137850000D01*
X181866667Y-137250000D01*
X182466667Y-137850000D01*
G37*
D12*
X177286667Y-141028000D02*
X176806667Y-141028000D01*
X177046667Y-140698000D01*
X177286667Y-141028000D01*
G36*
X177286667Y-141028000D02*
G01*
X176806667Y-141028000D01*
X177046667Y-140698000D01*
X177286667Y-141028000D01*
G37*
%TO.C,SW3*%
X143545000Y-123515000D02*
X157515000Y-123515000D01*
X143545000Y-137485000D02*
X143545000Y-123515000D01*
X157515000Y-123515000D02*
X157515000Y-137485000D01*
X157515000Y-137485000D02*
X143545000Y-137485000D01*
%TO.C,SW8*%
X181645000Y-104465000D02*
X195615000Y-104465000D01*
X181645000Y-118435000D02*
X181645000Y-104465000D01*
X195615000Y-104465000D02*
X195615000Y-118435000D01*
X195615000Y-118435000D02*
X181645000Y-118435000D01*
%TO.C,SW7*%
X181645000Y-85415000D02*
X195615000Y-85415000D01*
X181645000Y-99385000D02*
X181645000Y-85415000D01*
X195615000Y-85415000D02*
X195615000Y-99385000D01*
X195615000Y-99385000D02*
X181645000Y-99385000D01*
D11*
%TO.C,D21*%
X196600000Y-118550000D02*
X196000000Y-118550000D01*
X196600000Y-117950000D01*
X196600000Y-118550000D01*
G36*
X196600000Y-118550000D02*
G01*
X196000000Y-118550000D01*
X196600000Y-117950000D01*
X196600000Y-118550000D01*
G37*
D12*
X199778000Y-123610000D02*
X199448000Y-123370000D01*
X199778000Y-123130000D01*
X199778000Y-123610000D01*
G36*
X199778000Y-123610000D02*
G01*
X199448000Y-123370000D01*
X199778000Y-123130000D01*
X199778000Y-123610000D01*
G37*
D11*
%TO.C,D14*%
X200800000Y-100600000D02*
X200200000Y-100600000D01*
X200200000Y-100000000D01*
X200800000Y-100600000D01*
G36*
X200800000Y-100600000D02*
G01*
X200200000Y-100600000D01*
X200200000Y-100000000D01*
X200800000Y-100600000D01*
G37*
D12*
X195620000Y-103778000D02*
X195140000Y-103778000D01*
X195380000Y-103448000D01*
X195620000Y-103778000D01*
G36*
X195620000Y-103778000D02*
G01*
X195140000Y-103778000D01*
X195380000Y-103448000D01*
X195620000Y-103778000D01*
G37*
%TO.C,SW9*%
X181645000Y-123515000D02*
X195615000Y-123515000D01*
X181645000Y-137485000D02*
X181645000Y-123515000D01*
X195615000Y-123515000D02*
X195615000Y-137485000D01*
X195615000Y-137485000D02*
X181645000Y-137485000D01*
D13*
%TO.C,OLED1*%
X136385000Y-67135000D02*
X136385000Y-79135000D01*
X136385000Y-79135000D02*
X174385000Y-79135000D01*
X141385000Y-79135000D02*
X141385000Y-67135000D01*
X170885000Y-79135000D02*
X170885000Y-67135000D01*
X174385000Y-67135000D02*
X136385000Y-67135000D01*
X174385000Y-79135000D02*
X174385000Y-67135000D01*
D11*
%TO.C,D17*%
X145800000Y-100600000D02*
X145200000Y-100600000D01*
X145200000Y-100000000D01*
X145800000Y-100600000D01*
G36*
X145800000Y-100600000D02*
G01*
X145200000Y-100600000D01*
X145200000Y-100000000D01*
X145800000Y-100600000D01*
G37*
D12*
X140620000Y-103778000D02*
X140140000Y-103778000D01*
X140380000Y-103448000D01*
X140620000Y-103778000D01*
G36*
X140620000Y-103778000D02*
G01*
X140140000Y-103778000D01*
X140380000Y-103448000D01*
X140620000Y-103778000D01*
G37*
D11*
%TO.C,D16*%
X164133333Y-100600000D02*
X163533333Y-100600000D01*
X163533333Y-100000000D01*
X164133333Y-100600000D01*
G36*
X164133333Y-100600000D02*
G01*
X163533333Y-100600000D01*
X163533333Y-100000000D01*
X164133333Y-100600000D01*
G37*
D12*
X158953333Y-103778000D02*
X158473333Y-103778000D01*
X158713333Y-103448000D01*
X158953333Y-103778000D01*
G36*
X158953333Y-103778000D02*
G01*
X158473333Y-103778000D01*
X158713333Y-103448000D01*
X158953333Y-103778000D01*
G37*
D11*
%TO.C,D13*%
X196600000Y-81550000D02*
X196000000Y-81550000D01*
X196600000Y-80950000D01*
X196600000Y-81550000D01*
G36*
X196600000Y-81550000D02*
G01*
X196000000Y-81550000D01*
X196600000Y-80950000D01*
X196600000Y-81550000D01*
G37*
D12*
X199778000Y-86610000D02*
X199448000Y-86370000D01*
X199778000Y-86130000D01*
X199778000Y-86610000D01*
G36*
X199778000Y-86610000D02*
G01*
X199448000Y-86370000D01*
X199778000Y-86130000D01*
X199778000Y-86610000D01*
G37*
%TO.C,SW10*%
X180200000Y-68150000D02*
X180800000Y-68150000D01*
X180500000Y-68450000D02*
X180200000Y-68150000D01*
X180800000Y-68150000D02*
X180500000Y-68450000D01*
X181900000Y-66450000D02*
X181900000Y-78150000D01*
X186000000Y-66450000D02*
X181900000Y-66450000D01*
X186000000Y-78150000D02*
X181900000Y-78150000D01*
X187500000Y-72250000D02*
X188500000Y-72250000D01*
X188000000Y-71750000D02*
X188000000Y-72750000D01*
X190000000Y-66350000D02*
X194100000Y-66350000D01*
X194100000Y-66350000D02*
X194100000Y-68950000D01*
X194100000Y-70950000D02*
X194100000Y-73550000D01*
X194100000Y-75550000D02*
X194100000Y-78150000D01*
X194100000Y-78150000D02*
X190000000Y-78150000D01*
X191000000Y-72250000D02*
G75*
G02*
X185000000Y-72250000I-3000000J0D01*
G01*
X185000000Y-72250000D02*
G75*
G02*
X191000000Y-72250000I3000000J0D01*
G01*
%TD*%
M02*
